SplineFontDB: 3.2
FontName: FiraSans-Light
FullName: Fira Sans Light
FamilyName: Fira Sans Light
Weight: Light
Copyright: Digitized data copyright 2012-2016, The Mozilla Foundation and Telefonica S.A.
Version: 4.203
ItalicAngle: 0
UnderlinePosition: -100
UnderlineWidth: 50
Ascent: 800
Descent: 200
InvalidEm: 0
sfntRevision: 0x000433f7
LayerCount: 2
Layer: 0 1 "Back" 1
Layer: 1 1 "Fore" 0
XUID: [1021 214 -1571244977 10042]
StyleMap: 0x0040
FSType: 0
OS2Version: 4
OS2_WeightWidthSlopeOnly: 0
OS2_UseTypoMetrics: 1
CreationTime: 1476947922
ModificationTime: 1592165055
PfmFamily: 17
TTFWeight: 300
TTFWidth: 5
LineGap: 0
VLineGap: 0
Panose: 2 11 4 3 5 0 0 2 0 4
OS2TypoAscent: 935
OS2TypoAOffset: 0
OS2TypoDescent: -265
OS2TypoDOffset: 0
OS2TypoLinegap: 0
OS2WinAscent: 935
OS2WinAOffset: 0
OS2WinDescent: 265
OS2WinDOffset: 0
HheadAscent: 935
HheadAOffset: 0
HheadDescent: -265
HheadDOffset: 0
OS2SubXSize: 650
OS2SubYSize: 600
OS2SubXOff: 0
OS2SubYOff: 75
OS2SupXSize: 650
OS2SupYSize: 600
OS2SupXOff: 0
OS2SupYOff: 350
OS2StrikeYSize: 50
OS2StrikeYPos: 313
OS2CapHeight: 685
OS2XHeight: 523
OS2Vendor: 'CTDB'
OS2CodePages: 2000019f.00000000
OS2UnicodeRanges: 00000027.00000001.00000000.00000000
Lookup: 1 0 0 "'locl' Localized Forms in Latin lookup 0" { "'locl' Localized Forms in Latin lookup 0 subtable"  } ['locl' ('latn' <'TAT ' > ) ]
Lookup: 1 0 0 "'locl' Localized Forms in Latin lookup 1" { "'locl' Localized Forms in Latin lookup 1 subtable"  } ['locl' ('latn' <'TRK ' > ) ]
Lookup: 1 0 0 "'locl' Localized Forms in Latin lookup 2" { "'locl' Localized Forms in Latin lookup 2 subtable"  } ['locl' ('latn' <'KAZ ' > ) ]
Lookup: 1 0 0 "'locl' Localized Forms in Latin lookup 3" { "'locl' Localized Forms in Latin lookup 3 subtable"  } ['locl' ('latn' <'PLK ' > ) ]
Lookup: 1 0 0 "'locl' Localized Forms in Latin lookup 4" { "'locl' Localized Forms in Latin lookup 4 subtable"  } ['locl' ('latn' <'AZE ' > ) ]

StartChar: A
Encoding: 65 65 1
Width: 595
GlyphClass: 2
Flags: W
LayerCount: 2
Fore
SplineSet
155.155351003 179.5 m 1,0,-1
 92.888671875 -0 l 1,1,-1
 16 -0 l 1,2,-1
 255.950551297 685 l 1,3,-1
 345.00386122 685 l 1,4,-1
 583.819335938 0 l 1,5,-1
 504.9453125 0 l 1,6,-1
 442.678633372 179.5 l 1,7,-1
 155.155351003 179.5 l 1,0,-1
421.097107785 245.5 m 1,8,-1
 299.925379976 611.411132812 l 1,9,-1
 177.799990952 245.5 l 1,10,-1
 421.097107785 245.5 l 1,8,-1
EndSplineSet
Validated: 524289
Substitution2: "Single Substitution lookup 19 subtable" ordfeminine
EndChar

StartChar: Aacute
Encoding: 193 193 2
Width: 610
GlyphClass: 2
Flags: W
LayerCount: 2
Fore
SplineSet
395.122070312 891.440429688 m 1
 428.169921875 825.045898438 l 1
 216.002929688 741.465820312 l 1
 193.916992188 788.697265625 l 1
 395.122070312 891.440429688 l 1
EndSplineSet
Refer: 1 65 N 1 0 0 1 0 0 0
Validated: 524289
EndChar

StartChar: Acircumflex
Encoding: 194 194 3
Width: 610
GlyphClass: 2
Flags: W
LayerCount: 2
Fore
SplineSet
293.740234375 894 m 1
 332.345703125 894 l 1
 469.544921875 787.133789062 l 1
 434.095703125 745.857421875 l 1
 311.723632812 826.749023438 l 1
 188.369140625 745.860351562 l 1
 152.916992188 787.138671875 l 1
 291.151367188 894 l 1
 293.740234375 894 l 1
EndSplineSet
Refer: 1 65 N 1 0 0 1 0 0 0
Validated: 524289
EndChar

StartChar: Adieresis
Encoding: 196 196 4
Width: 610
GlyphClass: 2
Flags: W
LayerCount: 2
Fore
SplineSet
213.416992188 868 m 0
 233.708984375 867.20703125 233.708984375 867.20703125 247.219726562 854.302734375 c 0
 260.509765625 839.864257812 260.509765625 839.864257812 260.916992188 820.5 c 0
 260.106445312 800.140625 260.106445312 800.140625 247.099609375 787.080078125 c 0
 232.686523438 774.387695312 232.686523438 774.387695312 213.416992188 774 c 0
 193.216796875 774.762695312 193.216796875 774.762695312 179.734375 787.080078125 c 0
 166.33203125 801.060546875 166.33203125 801.060546875 165.916992188 820.5 c 0
 166.709960938 840.791992188 166.709960938 840.791992188 179.614257812 854.302734375 c 0
 194.052734375 867.592773438 194.052734375 867.592773438 213.416992188 868 c 0
402.416992188 868 m 0
 422.708984375 867.20703125 422.708984375 867.20703125 436.219726562 854.302734375 c 0
 449.509765625 839.864257812 449.509765625 839.864257812 449.916992188 820.5 c 0
 449.106445312 800.140625 449.106445312 800.140625 436.099609375 787.080078125 c 0
 421.686523438 774.387695312 421.686523438 774.387695312 402.416992188 774 c 0
 382.216796875 774.762695312 382.216796875 774.762695312 368.734375 787.080078125 c 0
 355.33203125 801.060546875 355.33203125 801.060546875 354.916992188 820.5 c 0
 355.709960938 840.791992188 355.709960938 840.791992188 368.614257812 854.302734375 c 0
 383.052734375 867.592773438 383.052734375 867.592773438 402.416992188 868 c 0
EndSplineSet
Refer: 1 65 N 1 0 0 1 0 0 0
Validated: 524289
EndChar

StartChar: Agrave
Encoding: 192 192 5
Width: 610
GlyphClass: 2
Flags: W
LayerCount: 2
Fore
SplineSet
221.96484375 891.440429688 m 1
 423.169921875 788.697265625 l 1
 401.083984375 741.465820312 l 1
 188.916992188 825.045898438 l 1
 221.96484375 891.440429688 l 1
EndSplineSet
Refer: 1 65 N 1 0 0 1 0 0 0
Validated: 524289
EndChar

StartChar: Aring
Encoding: 197 197 6
Width: 610
GlyphClass: 2
Flags: W
LayerCount: 2
Fore
SplineSet
308.416992188 947 m 0
 354.606445312 946.247070312 354.606445312 946.247070312 384.119140625 918.400390625 c 0
 413.5078125 888.891601562 413.5078125 888.891601562 413.916992188 845.5 c 0
 413.106445312 801.146484375 413.106445312 801.146484375 384.119140625 772.599609375 c 0
 353.639648438 744.375976562 353.639648438 744.375976562 308.416992188 744 c 0
 261.241210938 744.744140625 261.241210938 744.744140625 231.71484375 772.599609375 c 0
 202.326171875 802.108398438 202.326171875 802.108398438 201.916992188 845.5 c 0
 202.727539062 889.853515625 202.727539062 889.853515625 231.71484375 918.400390625 c 0
 262.209960938 946.629882812 262.209960938 946.629882812 308.416992188 947 c 0
343.525390625 807.7109375 m 0
 355.587890625 821.551757812 355.587890625 821.551757812 355.916992188 845.5 c 0
 354.596679688 895.228515625 354.596679688 895.228515625 308.416992188 896 c 0
 284.616210938 895.301757812 284.616210938 895.301757812 272.39453125 882.87890625 c 0
 260.247070312 868.575195312 260.247070312 868.575195312 259.916992188 845.5 c 0
 260.540039062 820.49609375 260.540039062 820.49609375 272.30859375 807.7109375 c 0
 285.620117188 795.34765625 285.620117188 795.34765625 308.416992188 795 c 0
 331.318359375 795.696289062 331.318359375 795.696289062 343.525390625 807.7109375 c 0
EndSplineSet
Refer: 1 65 N 1 0 0 1 0 0 0
Validated: 524289
EndChar

StartChar: Atilde
Encoding: 195 195 7
Width: 625
GlyphClass: 2
Flags: W
LayerCount: 2
Fore
SplineSet
482.965820312 853.228515625 m 1
 445.036132812 777.795898438 445.036132812 777.795898438 384.216796875 777 c 0
 363.93550227 777.392578125 363.93550227 777.392578125 344.834973972 784.35546875 c 0
 322.858724177 792.366210938 322.858724177 792.366210938 302.031143508 803.133789062 c 0
 281.203562839 813.900390625 281.203562839 813.900390625 269.499023438 818.724609375 c 0
 260.083984375 822.774414062 260.083984375 822.774414062 252.216796875 823 c 0
 237.451171875 822.375976562 237.451171875 822.375976562 227.249023438 815.025390625 c 0
 214.793945312 804.845703125 214.793945312 804.845703125 198.783203125 780.830078125 c 1
 149.916992188 805.263671875 l 1
 153.624023438 812.077148438 l 1
 193.569335938 883.25 193.569335938 883.25 252.216796875 884 c 0
 271.313209342 883.622070312 271.313209342 883.622070312 289.827257029 877.127929688 c 0
 308.341304716 870.633789062 308.341304716 870.633789062 329.532110063 858.828125 c 0
 350.420999356 848.168945312 350.420999356 848.168945312 362.779892545 843.33203125 c 0
 373.486328125 839.197265625 373.486328125 839.197265625 384.216796875 839 c 0
 397.94140625 839.696289062 397.94140625 839.696289062 408.037109375 847.359375 c 0
 420.543945312 858.063476562 420.543945312 858.063476562 437.588867188 884.200195312 c 1
 486.205078125 859.891601562 l 1
 482.965820312 853.228515625 l 1
EndSplineSet
Refer: 1 65 N 1 0 0 1 0 0 0
Validated: 524289
EndChar

StartChar: AE
Encoding: 198 198 8
Width: 814
GlyphClass: 2
Flags: W
LayerCount: 2
Fore
SplineSet
537.59928925 65 m 1,0,-1
 770.474609375 65 l 1,1,-1
 770.474609375 0 l 1,2,-1
 476.188988745 -0 l 1,3,-1
 428.85041651 176.5 l 1,4,-1
 146.907331289 176.5 l 1,5,-1
 76.146484375 0 l 1,6,-1
 0 0 l 1,7,-1
 277.29442581 685 l 1,8,-1
 724.598632812 685 l 1,9,-1
 715.498046875 620 l 1,10,-1
 386.180980794 620 l 1,11,-1
 450.121820635 386.5 l 1,12,-1
 715.474609375 386.5 l 1,13,-1
 715.474609375 322.5 l 1,14,-1
 467.473803232 322.5 l 1,15,-1
 537.59928925 65 l 1,0,-1
411.625061379 242.5 m 1,16,-1
 317.043389997 611.96484375 l 1,17,-1
 172.335332195 242.5 l 1,18,-1
 411.625061379 242.5 l 1,16,-1
EndSplineSet
Validated: 524289
EndChar

StartChar: B
Encoding: 66 66 9
Width: 628
GlyphClass: 2
Flags: W
LayerCount: 2
Fore
SplineSet
308.544776119 0 m 2,0,-1
 111 0 l 1,1,-1
 111 685 l 1,2,-1
 271.5 685 l 2,3,4
 403.705034398 684.534179688 403.705034398 684.534179688 474.15234375 641.693359375 c 0,5,6
 541.491210938 596.483398438 541.491210938 596.483398438 542 510.325195312 c 0,7,8
 541.318359375 445.75 541.318359375 445.75 505.619140625 405.651367188 c 0,9,10
 479.32421875 377.436523438 479.32421875 377.436523438 441.782969916 363.938476562 c 1,11,12
 493.165039062 350.88671875 493.165039062 350.88671875 527.643554688 319.4609375 c 0,13,14
 573.646484375 275.732421875 573.646484375 275.732421875 574 193.267578125 c 0,15,16
 573.086914062 95.59375 573.086914062 95.59375 505.887695312 47.380859375 c 0,17,18
 436.586316465 0.2509765625 436.586316465 0.2509765625 308.544776119 0 c 2,0,-1
186 620 m 1,19,-1
 186 391.5 l 1,20,-1
 320.529850746 391.5 l 2,21,22
 387.381967118 392.1171875 387.381967118 392.1171875 427.433652052 422.18359375 c 0,23,24
 465.58984375 453.352539062 465.58984375 453.352539062 466 506.234375 c 0,25,26
 465.075195312 567.048828125 465.075195312 567.048828125 421.287896455 593.0546875 c 0,27,28
 372.617683069 619.790039062 372.617683069 619.790039062 278.037313433 620 c 2,29,-1
 186 620 l 1,19,-1
328.156716418 328.5 m 2,30,-1
 186 328.5 l 1,31,-1
 186 65 l 1,32,-1
 308.544776119 65 l 2,33,34
 395.414222831 65.41015625 395.414222831 65.41015625 442.906570662 90.830078125 c 0,35,36
 496.509765625 123.383789062 496.509765625 123.383789062 497 193.833007812 c 0,37,38
 496.192382812 262.24609375 496.192382812 262.24609375 454.3515625 295.067382812 c 0,39,40
 406.070341651 328.211914062 406.070341651 328.211914062 328.156716418 328.5 c 2,30,-1
EndSplineSet
Validated: 524289
EndChar

StartChar: C
Encoding: 67 67 10
Width: 580
GlyphClass: 2
Flags: W
LayerCount: 2
Fore
SplineSet
360.839434562 696 m 0,0,1
 423.18971283 695.67578125 423.18971283 695.67578125 464.735351562 679.984375 c 0,2,3
 505.794921875 663.818359375 505.794921875 663.818359375 546.1796875 632.392578125 c 2,4,-1
 552.040039062 627.803710938 l 1,5,-1
 510.670898438 577.19140625 l 1,6,-1
 504.8203125 581.772460938 l 2,7,8
 470.333984375 608.38671875 470.333984375 608.38671875 439.870117188 619.782226562 c 0,9,10
 406.482981146 630.903320312 406.482981146 630.903320312 365.090849384 631.0625 c 0,11,12
 265.596740349 630.142578125 265.596740349 630.142578125 203.865076152 561.333007812 c 0,13,14
 144.266601562 489.9140625 144.266601562 489.9140625 144 342.819335938 c 0,15,16
 144.329101562 246.1953125 144.329101562 246.1953125 171.438476562 181.178710938 c 0,17,18
 200.07658394 116.716796875 200.07658394 116.716796875 248.886894836 86.126953125 c 0,19,20
 299.161743405 55.8388671875 299.161743405 55.8388671875 361.902288268 55.5556640625 c 0,21,22
 412.581934636 55.888671875 412.581934636 55.888671875 446.563476562 69.162109375 c 0,23,24
 480.651367188 83.7666015625 480.651367188 83.7666015625 519.689453125 114.333984375 c 1,25,-1
 559.649414062 65.1298828125 l 1,26,-1
 554.654296875 60.5009765625 l 2,27,28
 476.709960938 -10.6240234375 476.709960938 -10.6240234375 359.776580857 -11 c 0,29,30
 272.033025337 -10.4375 272.033025337 -10.4375 203.955377199 30.3466796875 c 0,31,32
 138.479492188 72.62890625 138.479492188 72.62890625 102.1484375 151.5 c 0,33,34
 66.1826171875 231.508789062 66.1826171875 231.508789062 66 342.989257812 c 0,35,36
 66.3857421875 455.508789062 66.3857421875 455.508789062 103.696289062 534.583007812 c 0,37,38
 142.344726562 614.366210938 142.344726562 614.366210938 207.18234221 655.165039062 c 0,39,40
 276.28132633 695.71875 276.28132633 695.71875 360.839434562 696 c 0,0,1
EndSplineSet
Validated: 524289
EndChar

StartChar: Ccedilla
Encoding: 199 199 11
Width: 580
GlyphClass: 2
Flags: W
LayerCount: 2
Fore
SplineSet
384.75782881 -49.7060546875 m 1,0,1
 431.881436702 -55.2783203125 431.881436702 -55.2783203125 454.979492188 -74.8935546875 c 0,2,3
 479.5625 -97.943359375 479.5625 -97.943359375 480 -132.5 c 0,4,5
 479.067382812 -177.260742188 479.067382812 -177.260742188 447.057617188 -202.455078125 c 0,6,7
 412.675971574 -226.696289062 412.675971574 -226.696289062 362.968868967 -227 c 0,8,9
 309.345524674 -226.469726562 309.345524674 -226.469726562 273.573101274 -204.775390625 c 2,10,-1
 267.638017795 -201.110351562 l 1,11,-1
 293.663950489 -152.138671875 l 1,12,-1
 300.933856869 -155.939453125 l 2,13,14
 327.834794 -170 327.834794 -170 361.905992877 -170 c 0,15,16
 385.049496956 -169.474609375 385.049496956 -169.474609375 399.283110062 -160.379882812 c 0,17,18
 411.950434086 -150.48828125 411.950434086 -150.48828125 412.392607147 -132.5 c 0,19,20
 410.932190489 -114.96484375 410.932190489 -114.96484375 393.889844278 -106.181640625 c 0,21,22
 371.606813127 -96.1708984375 371.606813127 -96.1708984375 325.768205821 -96 c 2,23,-1
 317.020237378 -96 l 1,24,-1
 325.595903642 -9.265625 l 1,25,26
 249.231785664 -1.1875 249.231785664 -1.1875 190.276415518 38.9580078125 c 0,27,28
 131.299804688 82.697265625 131.299804688 82.697265625 98.564453125 159.551757812 c 0,29,30
 66.171875 237.49609375 66.171875 237.49609375 66 343.0078125 c 0,31,32
 66.3857421875 455.521484375 66.3857421875 455.521484375 103.696289062 534.590820312 c 0,33,34
 142.344726562 614.370117188 142.344726562 614.370117188 207.182788323 655.166992188 c 0,35,36
 276.28322771 695.71875 276.28322771 695.71875 360.843116787 696 c 0,37,38
 423.19470819 695.67578125 423.19470819 695.67578125 464.735351562 679.984375 c 0,39,40
 505.794921875 663.818359375 505.794921875 663.818359375 546.1796875 632.393554688 c 2,41,-1
 552.040039062 627.8046875 l 1,42,-1
 510.670898438 577.192382812 l 1,43,-1
 504.8203125 581.774414062 l 2,44,45
 470.333984375 608.387695312 470.333984375 608.387695312 439.870117188 619.782226562 c 0,46,47
 406.487624652 630.903320312 406.487624652 630.903320312 365.094621147 631.0625 c 0,48,49
 265.598416705 630.142578125 265.598416705 630.142578125 203.865452402 561.334960938 c 0,50,51
 144.266601562 489.916992188 144.266601562 489.916992188 144 342.82421875 c 0,52,53
 144.329101562 246.201171875 144.329101562 246.201171875 171.438476562 181.185546875 c 0,54,55
 200.076880401 116.724609375 200.076880401 116.724609375 248.888219272 86.134765625 c 0,56,57
 299.164126661 55.84765625 299.164126661 55.84765625 361.905992877 55.5634765625 c 0,58,59
 412.586706589 55.8974609375 412.586706589 55.8974609375 446.563476562 69.169921875 c 0,60,61
 480.651367188 83.775390625 480.651367188 83.775390625 519.689453125 114.341796875 c 1,62,-1
 559.564453125 65.2421875 l 1,63,-1
 554.76171875 60.611328125 l 2,64,65
 487.310546875 -3.353515625 487.310546875 -3.353515625 384.75782881 -10.5654296875 c 1,66,-1
 384.75782881 -49.7060546875 l 1,0,1
EndSplineSet
Validated: 524289
EndChar

StartChar: D
Encoding: 68 68 12
Width: 662
GlyphClass: 2
Flags: W
LayerCount: 2
Fore
SplineSet
266.299031477 0 m 2,0,-1
 111 0 l 1,1,-1
 111 685 l 1,2,-1
 254.5 685 l 2,3,4
 409.837852792 684.385742188 409.837852792 684.385742188 504.728515625 612.899414062 c 0,5,6
 595.669921875 539.095703125 595.669921875 539.095703125 596 347.881835938 c 0,7,8
 595.326171875 155.793945312 595.326171875 155.793945312 503.905273438 77.62890625 c 0,9,10
 406.847242452 0.3466796875 406.847242452 0.3466796875 266.299031477 0 c 2,0,-1
263.081113801 620 m 2,11,-1
 186 620 l 1,12,-1
 186 65 l 1,13,-1
 270.589588378 65 l 2,14,15
 409.754052853 65.916015625 409.754052853 65.916015625 471.273683414 151.211914062 c 0,16,17
 517.768554688 221.96484375 517.768554688 221.96484375 518 347.85546875 c 0,18,19
 517.622070312 460.885742188 517.622070312 460.885742188 483.939453125 520.553710938 c 0,20,21
 447.504878083 579.409179688 447.504878083 579.409179688 393.629897 599.58984375 c 0,22,23
 336.910955471 619.833007812 336.910955471 619.833007812 263.081113801 620 c 2,11,-1
EndSplineSet
Validated: 524289
EndChar

StartChar: Eth
Encoding: 208 208 13
Width: 667
GlyphClass: 2
Flags: W
LayerCount: 2
Fore
SplineSet
271.299031477 0 m 2,0,-1
 116 0 l 1,1,-1
 116 320.5 l 1,2,-1
 23 320.5 l 1,3,-1
 23 383.5 l 1,4,-1
 116 383.5 l 1,5,-1
 116 685 l 1,6,-1
 259.5 685 l 2,7,8
 414.837852792 684.385742188 414.837852792 684.385742188 509.728515625 612.899414062 c 0,9,10
 600.669921875 539.095703125 600.669921875 539.095703125 601 347.881835938 c 0,11,12
 600.326171875 155.793945312 600.326171875 155.793945312 508.905273438 77.62890625 c 0,13,14
 411.847242452 0.3466796875 411.847242452 0.3466796875 271.299031477 0 c 2,0,-1
268.081113801 620 m 2,15,-1
 191 620 l 1,16,-1
 191 383.5 l 1,17,-1
 373.736077482 383.5 l 1,18,-1
 373.736077482 320.5 l 1,19,-1
 191 320.5 l 1,20,-1
 191 65 l 1,21,-1
 275.589588378 65 l 2,22,23
 414.754052853 65.916015625 414.754052853 65.916015625 476.273683414 151.211914062 c 0,24,25
 522.768554688 221.96484375 522.768554688 221.96484375 523 347.85546875 c 0,26,27
 522.622070312 460.885742188 522.622070312 460.885742188 488.939453125 520.553710938 c 0,28,29
 452.504878083 579.409179688 452.504878083 579.409179688 398.629897 599.58984375 c 0,30,31
 341.910955471 619.833007812 341.910955471 619.833007812 268.081113801 620 c 2,15,-1
EndSplineSet
Validated: 524289
EndChar

StartChar: E
Encoding: 69 69 14
Width: 542
GlyphClass: 2
Flags: W
LayerCount: 2
Fore
SplineSet
490.124023438 685 m 1,0,-1
 481.024414062 620 l 1,1,-1
 186 620 l 1,2,-1
 186 387.5 l 1,3,-1
 444 387.5 l 1,4,-1
 444 322.5 l 1,5,-1
 186 322.5 l 1,6,-1
 186 65 l 1,7,-1
 496 65 l 1,8,-1
 496 0 l 1,9,-1
 111 0 l 1,10,-1
 111 685 l 1,11,-1
 490.124023438 685 l 1,0,-1
EndSplineSet
Validated: 524289
EndChar

StartChar: Eacute
Encoding: 201 201 15
Width: 557
GlyphClass: 2
Flags: W
LayerCount: 2
Fore
SplineSet
398.205078125 891.440429688 m 1
 431.252929688 825.045898438 l 1
 219.0859375 741.465820312 l 1
 197 788.697265625 l 1
 398.205078125 891.440429688 l 1
EndSplineSet
Refer: 14 69 N 1 0 0 1 0 0 0
Validated: 524289
EndChar

StartChar: Ecircumflex
Encoding: 202 202 16
Width: 557
GlyphClass: 2
Flags: W
LayerCount: 2
Fore
SplineSet
296.823242188 894 m 1
 335.428710938 894 l 1
 472.627929688 787.133789062 l 1
 437.178710938 745.857421875 l 1
 314.806640625 826.749023438 l 1
 191.452148438 745.860351562 l 1
 156 787.138671875 l 1
 294.234375 894 l 1
 296.823242188 894 l 1
EndSplineSet
Refer: 14 69 N 1 0 0 1 0 0 0
Validated: 524289
EndChar

StartChar: Edieresis
Encoding: 203 203 17
Width: 557
GlyphClass: 2
Flags: W
LayerCount: 2
Fore
SplineSet
216.5 868 m 0
 236.791992188 867.20703125 236.791992188 867.20703125 250.302734375 854.302734375 c 0
 263.592773438 839.864257812 263.592773438 839.864257812 264 820.5 c 0
 263.189453125 800.140625 263.189453125 800.140625 250.182617188 787.080078125 c 0
 235.76953125 774.387695312 235.76953125 774.387695312 216.5 774 c 0
 196.299804688 774.762695312 196.299804688 774.762695312 182.817382812 787.080078125 c 0
 169.415039062 801.060546875 169.415039062 801.060546875 169 820.5 c 0
 169.79296875 840.791992188 169.79296875 840.791992188 182.697265625 854.302734375 c 0
 197.135742188 867.592773438 197.135742188 867.592773438 216.5 868 c 0
405.5 868 m 0
 425.791992188 867.20703125 425.791992188 867.20703125 439.302734375 854.302734375 c 0
 452.592773438 839.864257812 452.592773438 839.864257812 453 820.5 c 0
 452.189453125 800.140625 452.189453125 800.140625 439.182617188 787.080078125 c 0
 424.76953125 774.387695312 424.76953125 774.387695312 405.5 774 c 0
 385.299804688 774.762695312 385.299804688 774.762695312 371.817382812 787.080078125 c 0
 358.415039062 801.060546875 358.415039062 801.060546875 358 820.5 c 0
 358.79296875 840.791992188 358.79296875 840.791992188 371.697265625 854.302734375 c 0
 386.135742188 867.592773438 386.135742188 867.592773438 405.5 868 c 0
EndSplineSet
Refer: 14 69 N 1 0 0 1 0 0 0
Validated: 524289
EndChar

StartChar: Egrave
Encoding: 200 200 18
Width: 557
GlyphClass: 2
Flags: W
LayerCount: 2
Fore
SplineSet
225.047851562 891.440429688 m 1
 426.252929688 788.697265625 l 1
 404.166992188 741.465820312 l 1
 192 825.045898438 l 1
 225.047851562 891.440429688 l 1
EndSplineSet
Refer: 14 69 N 1 0 0 1 0 0 0
Validated: 524289
EndChar

StartChar: F
Encoding: 70 70 19
Width: 511
GlyphClass: 2
Flags: W
LayerCount: 2
Fore
SplineSet
186 0 m 1,0,-1
 111 0 l 1,1,-1
 111 685 l 1,2,-1
 484.124023438 685 l 1,3,-1
 475.024414062 620 l 1,4,-1
 186 620 l 1,5,-1
 186 375.5 l 1,6,-1
 438 375.5 l 1,7,-1
 438 310.5 l 1,8,-1
 186 310.5 l 1,9,-1
 186 0 l 1,0,-1
EndSplineSet
Validated: 524289
EndChar

StartChar: G
Encoding: 71 71 20
Width: 648
GlyphClass: 2
Flags: W
LayerCount: 2
Fore
SplineSet
508 80.427734375 m 1,0,-1
 508 311.5 l 1,1,-1
 369.97418283 311.5 l 1,2,-1
 360.351607399 376.5 l 1,3,-1
 582 376.5 l 1,4,-1
 582 47.0244140625 l 1,5,-1
 578.212890625 44.9013671875 l 2,6,7
 477.940429688 -10.7294921875 477.940429688 -10.7294921875 366.298850575 -11 c 0,8,9
 223.959500718 -10.1396484375 223.959500718 -10.1396484375 143.741210938 80.75 c 0,10,11
 66.2841796875 172.83984375 66.2841796875 172.83984375 66 344.948242188 c 0,12,13
 66.412109375 457.565429688 66.412109375 457.565429688 106.279296875 536.709960938 c 0,14,15
 147.525390625 616.478515625 147.525390625 616.478515625 215.751706178 656.270507812 c 0,16,17
 287.539960489 695.727539062 287.539960489 695.727539062 369.471264368 696 c 0,18,19
 432.579786279 695.671875 432.579786279 695.671875 478.18359375 679.004882812 c 0,20,21
 522.770507812 661.834960938 522.770507812 661.834960938 567.163085938 627.424804688 c 2,22,-1
 573.567382812 622.43359375 l 1,23,-1
 527.248046875 574.518554688 l 1,24,-1
 521.87890625 578.642578125 l 2,25,26
 485.350585938 606.313476562 485.350585938 606.313476562 451.310659124 618.697265625 c 0,27,28
 414.893992457 630.822265625 414.893992457 630.822265625 369.471264368 630.98046875 c 0,29,30
 308.908315374 630.426757812 308.908315374 630.426757812 257.819234914 601.681640625 c 0,31,32
 206.312948994 571.416015625 206.312948994 571.416015625 174.80078125 508.318359375 c 0,33,34
 144.184570312 442.8359375 144.184570312 442.8359375 144 344.330078125 c 0,35,36
 144.49609375 194.327148438 144.49609375 194.327148438 201.297189296 120.543945312 c 0,37,38
 261.238460848 47.9599609375 261.238460848 47.9599609375 366.298850575 47.5 c 0,39,40
 446.659437859 47.98046875 446.659437859 47.98046875 508 80.427734375 c 1,0,-1
EndSplineSet
Validated: 524289
EndChar

StartChar: H
Encoding: 72 72 21
Width: 700
GlyphClass: 2
Flags: W
LayerCount: 2
Fore
SplineSet
186 393.5 m 1,0,-1
 514 393.5 l 1,1,-1
 514 685 l 1,2,-1
 589 685 l 1,3,-1
 589 0 l 1,4,-1
 514 0 l 1,5,-1
 514 327.5 l 1,6,-1
 186 327.5 l 1,7,-1
 186 0 l 1,8,-1
 111 0 l 1,9,-1
 111 685 l 1,10,-1
 186 685 l 1,11,-1
 186 393.5 l 1,0,-1
EndSplineSet
Validated: 524289
EndChar

StartChar: I
Encoding: 73 73 22
Width: 297
GlyphClass: 2
Flags: W
LayerCount: 2
Fore
SplineSet
111 685 m 1,0,-1
 186 685 l 1,1,-1
 186 0 l 1,2,-1
 111 0 l 1,3,-1
 111 685 l 1,0,-1
EndSplineSet
Validated: 1
EndChar

StartChar: Iacute
Encoding: 205 205 23
Width: 312
GlyphClass: 2
Flags: W
LayerCount: 2
Fore
SplineSet
241.705078125 891.440429688 m 1
 274.752929688 825.045898438 l 1
 62.5859375 741.465820312 l 1
 40.5 788.697265625 l 1
 241.705078125 891.440429688 l 1
EndSplineSet
Refer: 22 73 N 1 0 0 1 0 0 0
Validated: 524289
EndChar

StartChar: Icircumflex
Encoding: 206 206 24
Width: 312
GlyphClass: 2
Flags: W
LayerCount: 2
Fore
SplineSet
140.323242188 894 m 1
 178.928710938 894 l 1
 316.127929688 787.133789062 l 1
 280.678710938 745.857421875 l 1
 158.306640625 826.749023438 l 1
 34.9521484375 745.860351562 l 1
 -0.5 787.138671875 l 1
 137.734375 894 l 1
 140.323242188 894 l 1
EndSplineSet
Refer: 22 73 N 1 0 0 1 0 0 0
Validated: 524289
EndChar

StartChar: Idieresis
Encoding: 207 207 25
Width: 312
GlyphClass: 2
Flags: W
LayerCount: 2
Fore
SplineSet
60 868 m 0
 80.2919921875 867.20703125 80.2919921875 867.20703125 93.802734375 854.302734375 c 0
 107.092773438 839.864257812 107.092773438 839.864257812 107.5 820.5 c 0
 106.689453125 800.140625 106.689453125 800.140625 93.6826171875 787.080078125 c 0
 79.26953125 774.387695312 79.26953125 774.387695312 60 774 c 0
 39.7998046875 774.762695312 39.7998046875 774.762695312 26.3173828125 787.080078125 c 0
 12.9150390625 801.060546875 12.9150390625 801.060546875 12.5 820.5 c 0
 13.29296875 840.791992188 13.29296875 840.791992188 26.197265625 854.302734375 c 0
 40.6357421875 867.592773438 40.6357421875 867.592773438 60 868 c 0
249 868 m 0
 269.291992188 867.20703125 269.291992188 867.20703125 282.802734375 854.302734375 c 0
 296.092773438 839.864257812 296.092773438 839.864257812 296.5 820.5 c 0
 295.689453125 800.140625 295.689453125 800.140625 282.682617188 787.080078125 c 0
 268.26953125 774.387695312 268.26953125 774.387695312 249 774 c 0
 228.799804688 774.762695312 228.799804688 774.762695312 215.317382812 787.080078125 c 0
 201.915039062 801.060546875 201.915039062 801.060546875 201.5 820.5 c 0
 202.29296875 840.791992188 202.29296875 840.791992188 215.197265625 854.302734375 c 0
 229.635742188 867.592773438 229.635742188 867.592773438 249 868 c 0
EndSplineSet
Refer: 22 73 N 1 0 0 1 0 0 0
Validated: 524289
EndChar

StartChar: Igrave
Encoding: 204 204 26
Width: 312
GlyphClass: 2
Flags: W
LayerCount: 2
Fore
SplineSet
68.5478515625 891.440429688 m 1
 269.752929688 788.697265625 l 1
 247.666992188 741.465820312 l 1
 35.5 825.045898438 l 1
 68.5478515625 891.440429688 l 1
EndSplineSet
Refer: 22 73 N 1 0 0 1 0 0 0
Validated: 524289
EndChar

StartChar: J
Encoding: 74 74 27
Width: 306
GlyphClass: 2
Flags: W
LayerCount: 2
Fore
SplineSet
126.9609375 99.9404296875 m 2,0,-1
 126.9609375 685 l 1,1,-1
 201.9609375 685 l 1,2,-1
 201.9609375 97.31640625 l 2,3,4
 201.64453125 36.017578125 201.64453125 36.017578125 185.920898438 -2.796875 c 0,5,6
 168.859375 -43.3994140625 168.859375 -43.3994140625 134.983398438 -69.4814453125 c 0,7,8
 99.873046875 -95.6103515625 99.873046875 -95.6103515625 34.0341796875 -121.276367188 c 1,9,-1
 13 -63.43359375 l 1,10,-1
 19.4755859375 -60.6181640625 l 2,11,12
 64.3759765625 -40.7919921875 64.3759765625 -40.7919921875 87.458984375 -20.4130859375 c 0,13,14
 109.7890625 -0.0107421875 109.7890625 -0.0107421875 118.28515625 26.197265625 c 0,15,16
 126.84375 54.88671875 126.84375 54.88671875 126.9609375 99.9404296875 c 2,0,-1
EndSplineSet
Validated: 524289
EndChar

StartChar: K
Encoding: 75 75 28
Width: 577
GlyphClass: 2
Flags: W
LayerCount: 2
Fore
SplineSet
267.527414466 369.166015625 m 1,0,-1
 585.268554688 -0 l 1,1,-1
 492.9375 -0 l 1,2,-1
 186 358.33203125 l 1,3,-1
 186 0 l 1,4,-1
 111 0 l 1,5,-1
 111 685 l 1,6,-1
 186 685 l 1,7,-1
 186 374.60546875 l 1,8,-1
 480.16015625 685 l 1,9,-1
 569.358398438 685 l 1,10,-1
 267.527414466 369.166015625 l 1,0,-1
EndSplineSet
Validated: 524289
EndChar

StartChar: L
Encoding: 76 76 29
Width: 507
GlyphClass: 2
Flags: W
LayerCount: 2
Fore
SplineSet
186 685 m 1,0,-1
 186 67.521484375 l 1,1,-1
 488.193359375 67.521484375 l 1,2,-1
 477.971679688 0 l 1,3,-1
 111 0 l 1,4,-1
 111 685 l 1,5,-1
 186 685 l 1,0,-1
EndSplineSet
Validated: 524289
EndChar

StartChar: M
Encoding: 77 77 30
Width: 800
GlyphClass: 2
Flags: W
LayerCount: 2
Fore
SplineSet
665.05859375 685 m 1,0,-1
 732.50390625 -0 l 1,1,-1
 659.420898438 -0 l 1,2,-1
 626.840342656 334.75 l 2,3,4
 612.045898438 492.953125 612.045898438 492.953125 604.530273438 593.633789062 c 1,5,-1
 436.287787515 81 l 1,6,-1
 366.321604633 81 l 1,7,-1
 192.44140625 593.431640625 l 1,8,9
 186.759765625 504.4296875 186.759765625 504.4296875 174.71875 375.85546875 c 1,10,-1
 172.637406108 336.91796875 l 1,11,-1
 141.095703125 0 l 1,12,-1
 69 0 l 1,13,-1
 135.423828125 685 l 1,14,-1
 230.727539062 685 l 1,15,-1
 402.687486585 169.58984375 l 1,16,-1
 568.705078125 685 l 1,17,-1
 665.05859375 685 l 1,0,-1
EndSplineSet
Validated: 524289
EndChar

StartChar: N
Encoding: 78 78 31
Width: 703
GlyphClass: 2
Flags: W
LayerCount: 2
Fore
SplineSet
592 685 m 1,0,-1
 592 0 l 1,1,-1
 500.016291456 -0 l 1,2,-1
 177.086914062 591.913085938 l 1,3,4
 182.999023438 486.065429688 182.999023438 486.065429688 183 390.5 c 2,5,-1
 183 0 l 1,6,-1
 111 0 l 1,7,-1
 111 685 l 1,8,-1
 200.033203125 685 l 1,9,-1
 525.729492188 93.2431640625 l 1,10,11
 520.034179688 188.041015625 520.034179688 188.041015625 520 261.5 c 2,12,-1
 520 685 l 1,13,-1
 592 685 l 1,0,-1
EndSplineSet
Validated: 524289
EndChar

StartChar: Ntilde
Encoding: 209 209 32
Width: 733
GlyphClass: 2
Flags: W
LayerCount: 2
Fore
SplineSet
542.048828125 853.228515625 m 1
 504.119140625 777.795898438 504.119140625 777.795898438 443.299804688 777 c 0
 423.018510082 777.392578125 423.018510082 777.392578125 403.917981784 784.35546875 c 0
 381.94173199 792.366210938 381.94173199 792.366210938 361.114151321 803.133789062 c 0
 340.286570652 813.900390625 340.286570652 813.900390625 328.58203125 818.724609375 c 0
 319.166992188 822.774414062 319.166992188 822.774414062 311.299804688 823 c 0
 296.534179688 822.375976562 296.534179688 822.375976562 286.33203125 815.025390625 c 0
 273.876953125 804.845703125 273.876953125 804.845703125 257.866210938 780.830078125 c 1
 209 805.263671875 l 1
 212.70703125 812.077148438 l 1
 252.65234375 883.25 252.65234375 883.25 311.299804688 884 c 0
 330.396217155 883.622070312 330.396217155 883.622070312 348.910264842 877.127929688 c 0
 367.424312529 870.633789062 367.424312529 870.633789062 388.615117876 858.828125 c 0
 409.504007169 848.168945312 409.504007169 848.168945312 421.862900358 843.33203125 c 0
 432.569335938 839.197265625 432.569335938 839.197265625 443.299804688 839 c 0
 457.024414062 839.696289062 457.024414062 839.696289062 467.120117188 847.359375 c 0
 479.626953125 858.063476562 479.626953125 858.063476562 496.671875 884.200195312 c 1
 545.288085938 859.891601562 l 1
 542.048828125 853.228515625 l 1
EndSplineSet
Refer: 31 78 N 1 0 0 1 0 0 0
Validated: 524289
EndChar

StartChar: O
Encoding: 79 79 33
Width: 721
GlyphClass: 2
Flags: W
LayerCount: 2
Fore
SplineSet
359.97754491 696 m 0,0,1
 450.351050828 695.459960938 450.351050828 695.459960938 517.808982621 655.1796875 c 0,2,3
 583.518554688 613.356445312 583.518554688 613.356445312 619.375 533.938476562 c 0,4,5
 654.8203125 453.466796875 654.8203125 453.466796875 655 342.010742188 c 0,6,7
 654.63671875 231.537109375 654.63671875 231.537109375 619.883789062 152.549804688 c 0,8,9
 583.735351562 72.662109375 583.735351562 72.662109375 518.927363047 30.8447265625 c 0,10,11
 450.396969732 -10.7265625 450.396969732 -10.7265625 359.97754491 -11 c 0,12,13
 270.617316149 -10.4501953125 270.617316149 -10.4501953125 203.154282256 30.33203125 c 0,14,15
 137.487304688 72.6181640625 137.487304688 72.6181640625 101.638671875 151.030273438 c 0,16,17
 66.181640625 230.5390625 66.181640625 230.5390625 66 341.03125 c 0,18,19
 66.3681640625 451.520507812 66.3681640625 451.520507812 101.625 531.000976562 c 0,20,21
 138.26953125 611.362304688 138.26953125 611.362304688 203.627757181 653.658203125 c 0,22,23
 272.653054243 695.71875 272.653054243 695.71875 359.97754491 696 c 0,0,1
359.97754491 637.5 m 0,24,25
 259.259020046 636.533203125 259.259020046 636.533203125 201.129768783 563.974609375 c 0,26,27
 144.255859375 488.478515625 144.255859375 488.478515625 144 341 c 0,28,29
 144.509765625 194.546875 144.509765625 194.546875 201.617529589 120.568359375 c 0,30,31
 261.325370743 47.97265625 261.325370743 47.97265625 359.97754491 47.5 c 0,32,33
 463.785901829 48.439453125 463.785901829 48.439453125 520.904937196 120.012695312 c 0,34,35
 576.747070312 194.522460938 576.747070312 194.522460938 577 342 c 0,36,37
 576.504882812 491.456054688 576.504882812 491.456054688 520.402890508 564.961914062 c 0,38,39
 461.703224411 637.036132812 461.703224411 637.036132812 359.97754491 637.5 c 0,24,25
EndSplineSet
Validated: 524289
Substitution2: "Single Substitution lookup 19 subtable" ordmasculine
EndChar

StartChar: Oacute
Encoding: 211 211 34
Width: 736
GlyphClass: 2
Flags: W
LayerCount: 2
Fore
SplineSet
454.205078125 891.440429688 m 1
 487.252929688 825.045898438 l 1
 275.0859375 741.465820312 l 1
 253 788.697265625 l 1
 454.205078125 891.440429688 l 1
EndSplineSet
Refer: 33 79 N 1 0 0 1 0 0 0
Validated: 524289
Substitution2: "'locl' Localized Forms in Latin lookup 3 subtable" Oacute.loclPLK
EndChar

StartChar: Ocircumflex
Encoding: 212 212 36
Width: 736
GlyphClass: 2
Flags: W
LayerCount: 2
Fore
SplineSet
352.823242188 894 m 1
 391.428710938 894 l 1
 528.627929688 787.133789062 l 1
 493.178710938 745.857421875 l 1
 370.806640625 826.749023438 l 1
 247.452148438 745.860351562 l 1
 212 787.138671875 l 1
 350.234375 894 l 1
 352.823242188 894 l 1
EndSplineSet
Refer: 33 79 N 1 0 0 1 0 0 0
Validated: 524289
EndChar

StartChar: Odieresis
Encoding: 214 214 37
Width: 736
GlyphClass: 2
Flags: W
LayerCount: 2
Fore
SplineSet
272.5 868 m 0
 292.791992188 867.20703125 292.791992188 867.20703125 306.302734375 854.302734375 c 0
 319.592773438 839.864257812 319.592773438 839.864257812 320 820.5 c 0
 319.189453125 800.140625 319.189453125 800.140625 306.182617188 787.080078125 c 0
 291.76953125 774.387695312 291.76953125 774.387695312 272.5 774 c 0
 252.299804688 774.762695312 252.299804688 774.762695312 238.817382812 787.080078125 c 0
 225.415039062 801.060546875 225.415039062 801.060546875 225 820.5 c 0
 225.79296875 840.791992188 225.79296875 840.791992188 238.697265625 854.302734375 c 0
 253.135742188 867.592773438 253.135742188 867.592773438 272.5 868 c 0
461.5 868 m 0
 481.791992188 867.20703125 481.791992188 867.20703125 495.302734375 854.302734375 c 0
 508.592773438 839.864257812 508.592773438 839.864257812 509 820.5 c 0
 508.189453125 800.140625 508.189453125 800.140625 495.182617188 787.080078125 c 0
 480.76953125 774.387695312 480.76953125 774.387695312 461.5 774 c 0
 441.299804688 774.762695312 441.299804688 774.762695312 427.817382812 787.080078125 c 0
 414.415039062 801.060546875 414.415039062 801.060546875 414 820.5 c 0
 414.79296875 840.791992188 414.79296875 840.791992188 427.697265625 854.302734375 c 0
 442.135742188 867.592773438 442.135742188 867.592773438 461.5 868 c 0
EndSplineSet
Refer: 33 79 N 1 0 0 1 0 0 0
Validated: 524289
EndChar

StartChar: Ograve
Encoding: 210 210 38
Width: 736
GlyphClass: 2
Flags: W
LayerCount: 2
Fore
SplineSet
281.047851562 891.440429688 m 1
 482.252929688 788.697265625 l 1
 460.166992188 741.465820312 l 1
 248 825.045898438 l 1
 281.047851562 891.440429688 l 1
EndSplineSet
Refer: 33 79 N 1 0 0 1 0 0 0
Validated: 524289
EndChar

StartChar: Oslash
Encoding: 216 216 39
Width: 721
GlyphClass: 2
Flags: W
LayerCount: 2
Fore
SplineSet
499.004681068 667.618164062 m 1,0,1
 572.7890625 628.85546875 572.7890625 628.85546875 613.236328125 548.86328125 c 0,2,3
 654.802734375 464.598632812 654.802734375 464.598632812 655 342.903320312 c 0,4,5
 654.63671875 232.150390625 654.63671875 232.150390625 619.883789062 152.963867188 c 0,6,7
 583.735351562 72.873046875 583.735351562 72.873046875 518.927363047 30.9501953125 c 0,8,9
 450.396969732 -10.7255859375 450.396969732 -10.7255859375 359.97754491 -11 c 0,10,11
 319.012780104 -10.771484375 319.012780104 -10.771484375 284.021554547 -2.64453125 c 1,12,-1
 250.544632415 -121.788085938 l 1,13,-1
 179.9921875 -102.60546875 l 1,14,-1
 220.946327072 18.5322265625 l 1,15,16
 147.236328125 58.142578125 147.236328125 58.142578125 107.263671875 137.198242188 c 0,17,18
 66.197265625 220.465820312 66.197265625 220.465820312 66 340.18359375 c 0,19,20
 66.3681640625 450.936523438 66.3681640625 450.936523438 101.625 530.607421875 c 0,21,22
 138.26953125 611.16015625 138.26953125 611.16015625 203.627757181 653.557617188 c 0,23,24
 272.653054243 695.717773438 272.653054243 695.717773438 359.97754491 696 c 0,25,26
 399.113716902 695.788085938 399.113716902 695.788085938 433.90289928 688.452148438 c 1,27,-1
 470.528837832 811.6328125 l 1,28,-1
 541.016601562 793.745117188 l 1,29,-1
 499.004681068 667.618164062 l 1,0,1
246.734383772 77.6298828125 m 1,30,-1
 418.117000374 630.822265625 l 1,31,32
 390.404431372 637.381835938 390.404431372 637.381835938 359.97754491 637.5 c 0,33,34
 259.259020046 636.533203125 259.259020046 636.533203125 201.129768783 563.974609375 c 0,35,36
 144.255859375 488.478515625 144.255859375 488.478515625 144 341 c 0,37,38
 144.328125 236.35546875 144.328125 236.35546875 172.41015625 169.418945312 c 0,39,40
 199.504239568 108.466796875 199.504239568 108.466796875 246.734383772 77.6298828125 c 1,30,-1
359.97754491 47.5 m 0,41,42
 463.785901829 48.439453125 463.785901829 48.439453125 520.904937196 120.012695312 c 0,43,44
 576.747070312 194.522460938 576.747070312 194.522460938 577 342 c 0,45,46
 576.249023438 545.375 576.249023438 545.375 472.276817459 609.662109375 c 1,47,-1
 300.787056746 54.18359375 l 1,48,49
 328.643504982 47.6162109375 328.643504982 47.6162109375 359.97754491 47.5 c 0,41,42
EndSplineSet
Validated: 524289
EndChar

StartChar: Otilde
Encoding: 213 213 40
Width: 751
GlyphClass: 2
Flags: W
LayerCount: 2
Fore
SplineSet
542.048828125 853.228515625 m 1
 504.119140625 777.795898438 504.119140625 777.795898438 443.299804688 777 c 0
 423.018510082 777.392578125 423.018510082 777.392578125 403.917981784 784.35546875 c 0
 381.94173199 792.366210938 381.94173199 792.366210938 361.114151321 803.133789062 c 0
 340.286570652 813.900390625 340.286570652 813.900390625 328.58203125 818.724609375 c 0
 319.166992188 822.774414062 319.166992188 822.774414062 311.299804688 823 c 0
 296.534179688 822.375976562 296.534179688 822.375976562 286.33203125 815.025390625 c 0
 273.876953125 804.845703125 273.876953125 804.845703125 257.866210938 780.830078125 c 1
 209 805.263671875 l 1
 212.70703125 812.077148438 l 1
 252.65234375 883.25 252.65234375 883.25 311.299804688 884 c 0
 330.396217155 883.622070312 330.396217155 883.622070312 348.910264842 877.127929688 c 0
 367.424312529 870.633789062 367.424312529 870.633789062 388.615117876 858.828125 c 0
 409.504007169 848.168945312 409.504007169 848.168945312 421.862900358 843.33203125 c 0
 432.569335938 839.197265625 432.569335938 839.197265625 443.299804688 839 c 0
 457.024414062 839.696289062 457.024414062 839.696289062 467.120117188 847.359375 c 0
 479.626953125 858.063476562 479.626953125 858.063476562 496.671875 884.200195312 c 1
 545.288085938 859.891601562 l 1
 542.048828125 853.228515625 l 1
EndSplineSet
Refer: 33 79 N 1 0 0 1 0 0 0
Validated: 524289
EndChar

StartChar: P
Encoding: 80 80 42
Width: 600
GlyphClass: 2
Flags: W
LayerCount: 2
Fore
SplineSet
276.5 259.5 m 2,0,-1
 186 259.5 l 1,1,-1
 186 0 l 1,2,-1
 111 0 l 1,3,-1
 111 685 l 1,4,-1
 279.5 685 l 2,5,6
 417.41719028 684.462890625 417.41719028 684.462890625 486.573242188 633.844726562 c 0,7,8
 554.575195312 581.024414062 554.575195312 581.024414062 555 476.180664062 c 0,9,10
 554.143554688 364.450195312 554.143554688 364.450195312 483.500976562 311.583984375 c 0,11,12
 409.668778498 259.767578125 409.668778498 259.767578125 276.5 259.5 c 2,0,-1
278.5 621 m 2,13,-1
 186 621 l 1,14,-1
 186 323.5 l 1,15,-1
 276.5 323.5 l 2,16,17
 376.412971252 323.991210938 376.412971252 323.991210938 429.515909976 358.159179688 c 0,18,19
 476.606445312 393.176757812 476.606445312 393.176757812 477 475.17578125 c 0,20,21
 476.220703125 553.374023438 476.220703125 553.374023438 431.122011232 586.864257812 c 0,22,23
 378.554079321 620.749023438 378.554079321 620.749023438 278.5 621 c 2,13,-1
EndSplineSet
Validated: 524289
EndChar

StartChar: Thorn
Encoding: 222 222 43
Width: 600
GlyphClass: 2
Flags: W
LayerCount: 2
Fore
SplineSet
282.301282051 133.0859375 m 2,0,-1
 186 133.0859375 l 1,1,-1
 186 0 l 1,2,-1
 111 0 l 1,3,-1
 111 685 l 1,4,-1
 186 685 l 1,5,-1
 186 565.614257812 l 1,6,-1
 285.493589744 565.614257812 l 2,7,8
 419.186022636 565.075195312 419.186022636 565.075195312 487.124023438 514.14453125 c 0,9,10
 554.583007812 461.056640625 554.583007812 461.056640625 555 355.7109375 c 0,11,12
 554.170898438 240.599609375 554.170898438 240.599609375 483.583984375 186.481445312 c 0,13,14
 410.707494491 133.360351562 410.707494491 133.360351562 282.301282051 133.0859375 c 2,0,-1
284.429487179 505.5 m 2,15,-1
 186 505.5 l 1,16,-1
 186 193.5 l 1,17,-1
 282.301282051 193.5 l 2,18,19
 378.643091446 194.009765625 378.643091446 194.009765625 429.685722155 229.50390625 c 0,20,21
 476.62109375 265.928710938 476.62109375 265.928710938 477 355 c 0,22,23
 476.236328125 436.18359375 476.236328125 436.18359375 431.772360777 470.526367188 c 0,24,25
 381.756422776 505.243164062 381.756422776 505.243164062 284.429487179 505.5 c 2,15,-1
EndSplineSet
Validated: 524289
EndChar

StartChar: Q
Encoding: 81 81 44
Width: 720
GlyphClass: 2
Flags: W
LayerCount: 2
Fore
SplineSet
655 341.831054688 m 0,0,1
 654.046875 109.515625 654.046875 109.515625 504.308333696 35.8564453125 c 1,2,3
 607.974609375 25.72265625 607.974609375 25.72265625 676.252929688 -28.69921875 c 2,4,-1
 681.927734375 -33.3564453125 l 1,5,-1
 632.478515625 -96.4033203125 l 1,6,-1
 626.520507812 -91.1064453125 l 2,7,8
 573.185546875 -44.291015625 573.185546875 -44.291015625 515.421692894 -26.6640625 c 0,9,10
 455.242130664 -9.119140625 455.242130664 -9.119140625 359.41966774 -9 c 0,11,12
 270.36937629 -8.45703125 270.36937629 -8.45703125 203.135892586 31.818359375 c 0,13,14
 137.504882812 73.6123046875 137.504882812 73.6123046875 101.646484375 151.536132812 c 0,15,16
 66.1826171875 230.5625 66.1826171875 230.5625 66 341.051757812 c 0,17,18
 66.3681640625 451.534179688 66.3681640625 451.534179688 101.625 531.010742188 c 0,19,20
 138.26953125 611.3671875 138.26953125 611.3671875 203.571231936 653.661132812 c 0,21,22
 272.375192173 695.71875 272.375192173 695.71875 359.41966774 696 c 0,23,24
 449.503381571 695.459960938 449.503381571 695.459960938 516.745002459 655.159179688 c 0,25,26
 583.518554688 613.314453125 583.518554688 613.314453125 619.375 533.856445312 c 0,27,28
 654.8203125 453.342773438 654.8203125 453.342773438 655 341.831054688 c 0,0,1
144 341 m 0,29,30
 144.509765625 194.546875 144.509765625 194.546875 201.567450349 120.568359375 c 0,31,32
 261.083832074 47.97265625 261.083832074 47.97265625 359.41966774 47.5 c 0,33,34
 462.895152319 48.439453125 462.895152319 48.439453125 519.831029533 120.012695312 c 0,35,36
 576.747070312 194.522460938 576.747070312 194.522460938 577 342 c 0,37,38
 576.504882812 491.456054688 576.504882812 491.456054688 519.33059271 564.961914062 c 0,39,40
 460.819153223 637.036132812 460.819153223 637.036132812 359.41966774 637.5 c 0,41,42
 259.024107346 636.533203125 259.024107346 636.533203125 201.081253599 563.974609375 c 0,43,44
 144.255859375 488.478515625 144.255859375 488.478515625 144 341 c 0,29,30
EndSplineSet
Validated: 524289
EndChar

StartChar: R
Encoding: 82 82 45
Width: 620
GlyphClass: 2
Flags: W
LayerCount: 2
Fore
SplineSet
396.960500684 313.938476562 m 1,0,-1
 591.646484375 0 l 1,1,-1
 503.166992188 -0 l 1,2,-1
 317.380460009 299.5 l 1,3,-1
 186 299.5 l 1,4,-1
 186 0 l 1,5,-1
 111 0 l 1,6,-1
 111 685 l 1,7,-1
 289.389680336 685 l 2,8,9
 405.519588474 684.567382812 405.519588474 684.567382812 470.545079744 647.977539062 c 0,10,11
 550.491210938 599.858398438 550.491210938 599.858398438 551 495.646484375 c 0,12,13
 550.333007812 420.328125 550.333007812 420.328125 510.114257812 375.310546875 c 0,14,15
 469.625618457 333.419921875 469.625618457 333.419921875 396.960500684 313.938476562 c 1,0,-1
287.290397487 621 m 2,16,-1
 186 621 l 1,17,-1
 186 363.5 l 1,18,-1
 297.786811734 363.5 l 2,19,20
 375.706286874 363.947265625 375.706286874 363.947265625 418.251615951 389.732421875 c 0,21,22
 469.979257413 422.953125 469.979257413 422.953125 470.452826103 495.165039062 c 0,23,24
 469.604092607 559.602539062 469.604092607 559.602539062 428.358514826 589.983398438 c 0,25,26
 384.206947357 620.76171875 384.206947357 620.76171875 287.290397487 621 c 2,16,-1
EndSplineSet
Validated: 524289
EndChar

StartChar: S
Encoding: 83 83 46
Width: 569
GlyphClass: 2
Flags: W
LayerCount: 2
Fore
SplineSet
285.387921533 696 m 0,0,1
 354.460160075 695.657226562 354.460160075 695.657226562 403.774414062 676.951171875 c 0,2,3
 450.955078125 657.286132812 450.955078125 657.286132812 494.489257812 618.056640625 c 2,4,-1
 500.088867188 612.977539062 l 1,5,-1
 455.098632812 564.131835938 l 1,6,-1
 449.61328125 568.772460938 l 2,7,8
 411.080078125 600.956054688 411.080078125 600.956054688 374.032537941 615.477539062 c 0,9,10
 336.105845971 630 336.105845971 630 287.521877552 630 c 0,11,12
 221.920443454 629.416015625 221.920443454 629.416015625 182.645441382 600.844726562 c 0,13,14
 145.3984375 571.384765625 145.3984375 571.384765625 144.954101562 523.98046875 c 0,15,16
 145.421875 490.715820312 145.421875 490.715820312 158.341796875 469.681640625 c 0,17,18
 173.848082655 448.09765625 173.848082655 448.09765625 207.046311531 431.244140625 c 0,19,20
 243.616357633 413.329101562 243.616357633 413.329101562 309.088587363 395.163085938 c 0,21,22
 382.647551794 374.162109375 382.647551794 374.162109375 426.166992188 350.555664062 c 0,23,24
 469.92578125 325.377929688 469.92578125 325.377929688 493.875 287.392578125 c 0,25,26
 517.717773438 247.743164062 517.717773438 247.743164062 517.954101562 189.80078125 c 0,27,28
 517.411132812 130.729492188 517.411132812 130.729492188 488.826171875 85.2919921875 c 0,29,30
 458.747070312 39.4580078125 458.747070312 39.4580078125 406.221679688 14.16015625 c 0,31,32
 349.434735328 -10.7978515625 349.434735328 -10.7978515625 275.785119445 -11 c 0,33,34
 137.23046875 -10.2333984375 137.23046875 -10.2333984375 44.3046875 75.2197265625 c 2,35,-1
 39 80.12890625 l 1,36,-1
 82.7607421875 128.021484375 l 1,37,-1
 88.3310546875 123.345703125 l 2,38,39
 129.973632812 88.8115234375 129.973632812 88.8115234375 172.243447758 71.150390625 c 0,40,41
 217.369115382 53.810546875 217.369115382 53.810546875 274.718141435 53.62890625 c 0,42,43
 350.933089213 54.2529296875 350.933089213 54.2529296875 398.138671875 90.103515625 c 0,44,45
 441.526367188 126.986328125 441.526367188 126.986328125 441.954101562 188.272460938 c 0,46,47
 441.520507812 227.595703125 441.520507812 227.595703125 427.444335938 252.190429688 c 0,48,49
 411.883789062 277.126953125 411.883789062 277.126953125 379.087137868 294.974609375 c 0,50,51
 341.990896557 313.903320312 341.990896557 313.903320312 276.653081049 333.025390625 c 0,52,53
 162.936565352 365.208984375 162.936565352 365.208984375 116.338867188 407.145507812 c 0,54,55
 69.3486328125 451.305664062 69.3486328125 451.305664062 68.9541015625 524.146484375 c 0,56,57
 69.5400390625 573.684570312 69.5400390625 573.684570312 95.6962890625 612.897460938 c 0,58,59
 123.265625 652.373046875 123.265625 652.373046875 170.476265429 674.247070312 c 0,60,61
 221.369240947 695.80078125 221.369240947 695.80078125 285.387921533 696 c 0,0,1
EndSplineSet
Validated: 524289
EndChar

StartChar: T
Encoding: 84 84 47
Width: 525
GlyphClass: 2
Flags: W
LayerCount: 2
Fore
SplineSet
516.056640625 685 m 1,0,-1
 507.075195312 617 l 1,1,-1
 301.570967051 617 l 1,2,-1
 307 0 l 1,3,-1
 233 0 l 1,4,-1
 223.059810606 617 l 1,5,-1
 15 617 l 1,6,-1
 15 685 l 1,7,-1
 516.056640625 685 l 1,0,-1
EndSplineSet
Validated: 524289
EndChar

StartChar: U
Encoding: 85 85 48
Width: 682
GlyphClass: 2
Flags: W
LayerCount: 2
Fore
SplineSet
101 216.594726562 m 2,0,-1
 101 685 l 1,1,-1
 176 685 l 1,2,-1
 176 211.5 l 2,3,4
 176.626206708 128.291992188 176.626206708 128.291992188 216.476282594 84.4521484375 c 0,5,6
 257.662675408 41.3662109375 257.662675408 41.3662109375 341.02388535 41 c 0,7,8
 425.397053518 41.728515625 425.397053518 41.728515625 464.988256369 84.88671875 c 0,9,10
 504.682803792 130.23828125 504.682803792 130.23828125 505 211.5 c 2,11,-1
 505 685 l 1,12,-1
 581 685 l 1,13,-1
 581 216.594726562 l 2,14,15
 580.287109375 113.706054688 580.287109375 113.706054688 520.956054688 51.5087890625 c 0,16,17
 457.636466834 -10.640625 457.636466834 -10.640625 341.02388535 -11 c 0,18,19
 222.344412445 -10.279296875 222.344412445 -10.279296875 160.541992188 51.021484375 c 0,20,21
 101.349609375 113.705078125 101.349609375 113.705078125 101 216.594726562 c 2,0,-1
EndSplineSet
Validated: 524289
EndChar

StartChar: Uacute
Encoding: 218 218 49
Width: 697
GlyphClass: 2
Flags: W
LayerCount: 2
Fore
SplineSet
435.205078125 891.440429688 m 1
 468.252929688 825.045898438 l 1
 256.0859375 741.465820312 l 1
 234 788.697265625 l 1
 435.205078125 891.440429688 l 1
EndSplineSet
Refer: 48 85 N 1 0 0 1 0 0 0
Validated: 524289
EndChar

StartChar: Ucircumflex
Encoding: 219 219 50
Width: 697
GlyphClass: 2
Flags: W
LayerCount: 2
Fore
SplineSet
333.823242188 894 m 1
 372.428710938 894 l 1
 509.627929688 787.133789062 l 1
 474.178710938 745.857421875 l 1
 351.806640625 826.749023438 l 1
 228.452148438 745.860351562 l 1
 193 787.138671875 l 1
 331.234375 894 l 1
 333.823242188 894 l 1
EndSplineSet
Refer: 48 85 N 1 0 0 1 0 0 0
Validated: 524289
EndChar

StartChar: Udieresis
Encoding: 220 220 51
Width: 697
GlyphClass: 2
Flags: W
LayerCount: 2
Fore
SplineSet
253.5 868 m 0
 273.791992188 867.20703125 273.791992188 867.20703125 287.302734375 854.302734375 c 0
 300.592773438 839.864257812 300.592773438 839.864257812 301 820.5 c 0
 300.189453125 800.140625 300.189453125 800.140625 287.182617188 787.080078125 c 0
 272.76953125 774.387695312 272.76953125 774.387695312 253.5 774 c 0
 233.299804688 774.762695312 233.299804688 774.762695312 219.817382812 787.080078125 c 0
 206.415039062 801.060546875 206.415039062 801.060546875 206 820.5 c 0
 206.79296875 840.791992188 206.79296875 840.791992188 219.697265625 854.302734375 c 0
 234.135742188 867.592773438 234.135742188 867.592773438 253.5 868 c 0
442.5 868 m 0
 462.791992188 867.20703125 462.791992188 867.20703125 476.302734375 854.302734375 c 0
 489.592773438 839.864257812 489.592773438 839.864257812 490 820.5 c 0
 489.189453125 800.140625 489.189453125 800.140625 476.182617188 787.080078125 c 0
 461.76953125 774.387695312 461.76953125 774.387695312 442.5 774 c 0
 422.299804688 774.762695312 422.299804688 774.762695312 408.817382812 787.080078125 c 0
 395.415039062 801.060546875 395.415039062 801.060546875 395 820.5 c 0
 395.79296875 840.791992188 395.79296875 840.791992188 408.697265625 854.302734375 c 0
 423.135742188 867.592773438 423.135742188 867.592773438 442.5 868 c 0
EndSplineSet
Refer: 48 85 N 1 0 0 1 0 0 0
Validated: 524289
EndChar

StartChar: Ugrave
Encoding: 217 217 52
Width: 697
GlyphClass: 2
Flags: W
LayerCount: 2
Fore
SplineSet
262.047851562 891.440429688 m 1
 463.252929688 788.697265625 l 1
 441.166992188 741.465820312 l 1
 229 825.045898438 l 1
 262.047851562 891.440429688 l 1
EndSplineSet
Refer: 48 85 N 1 0 0 1 0 0 0
Validated: 524289
EndChar

StartChar: V
Encoding: 86 86 53
Width: 576
GlyphClass: 2
Flags: W
LayerCount: 2
Fore
SplineSet
565.67578125 685 m 1,0,-1
 331.805878948 0 l 1,1,-1
 250.811549495 -0 l 1,2,-1
 16 685 l 1,3,-1
 96.875 685 l 1,4,-1
 291.843896673 79.7900390625 l 1,5,-1
 487.823242188 685 l 1,6,-1
 565.67578125 685 l 1,0,-1
EndSplineSet
Validated: 524289
EndChar

StartChar: W
Encoding: 87 87 54
Width: 855
GlyphClass: 2
Flags: W
LayerCount: 2
Fore
SplineSet
827.65625 685 m 1,0,-1
 659.37109375 -0 l 1,1,-1
 572.435546875 -0 l 1,2,-1
 428.334960938 593.697265625 l 1,3,-1
 269.233398438 0 l 1,4,-1
 184.306640625 -0 l 1,5,-1
 30 685 l 1,6,-1
 106.444335938 685 l 1,7,-1
 230.857421875 83.03125 l 1,8,-1
 389.411132812 685 l 1,9,-1
 468.23046875 685 l 1,10,-1
 614.767578125 82.568359375 l 1,11,-1
 755.234375 685 l 1,12,-1
 827.65625 685 l 1,0,-1
EndSplineSet
Validated: 524289
EndChar

StartChar: X
Encoding: 88 88 55
Width: 544
GlyphClass: 2
Flags: W
LayerCount: 2
Fore
SplineSet
275.384765625 415.784179688 m 1,0,-1
 434.500976562 685 l 1,1,-1
 517.044921875 685 l 1,2,-1
 321.233355445 370.33984375 l 1,3,-1
 544.869140625 0 l 1,4,-1
 459.461914062 0 l 1,5,-1
 274.377135128 320.90625 l 1,6,-1
 92.3427734375 0 l 1,7,-1
 10 0 l 1,8,-1
 228.503106721 367.374023438 l 1,9,-1
 30.716796875 685 l 1,10,-1
 116.268554688 685 l 1,11,-1
 275.384765625 415.784179688 l 1,0,-1
EndSplineSet
Validated: 524289
EndChar

StartChar: Y
Encoding: 89 89 56
Width: 553
GlyphClass: 2
Flags: W
LayerCount: 2
Fore
SplineSet
283.903439357 330.235351562 m 1,0,-1
 467.75 685 l 1,1,-1
 548.754882812 685 l 1,2,-1
 320.958329285 267.799804688 l 1,3,-1
 320.958329285 0 l 1,4,-1
 242.795909375 0 l 1,5,-1
 242.795909375 266.810546875 l 1,6,-1
 13 685 l 1,7,-1
 97.009765625 685 l 1,8,-1
 283.903439357 330.235351562 l 1,0,-1
EndSplineSet
Validated: 524289
EndChar

StartChar: Yacute
Encoding: 221 221 57
Width: 568
GlyphClass: 2
Flags: W
LayerCount: 2
Fore
SplineSet
375.102539062 891.440429688 m 1
 408.150390625 825.045898438 l 1
 195.983398438 741.465820312 l 1
 173.897460938 788.697265625 l 1
 375.102539062 891.440429688 l 1
EndSplineSet
Refer: 56 89 N 1 0 0 1 0 0 0
Validated: 524289
EndChar

StartChar: Z
Encoding: 90 90 58
Width: 546
GlyphClass: 2
Flags: W
LayerCount: 2
Fore
SplineSet
73 685 m 1,0,-1
 498 685 l 1,1,-1
 498 629.7109375 l 1,2,-1
 498 627.608398438 l 1,3,-1
 125.024414062 66.54296875 l 1,4,-1
 493.217773438 66.54296875 l 1,5,-1
 482.954101562 0 l 1,6,-1
 35 0 l 1,7,-1
 35 58.25 l 1,8,-1
 410.916992188 618 l 1,9,-1
 73 618 l 1,10,-1
 73 685 l 1,0,-1
EndSplineSet
Validated: 524289
EndChar

StartChar: a
Encoding: 97 97 59
Width: 566
GlyphClass: 2
Flags: W
LayerCount: 2
Fore
SplineSet
288.506704178 321.5 m 2,0,-1
 388 321.5 l 1,1,-1
 388 363.516601562 l 2,2,3
 387.424804688 421.323242188 387.424804688 421.323242188 360.263792995 446.822265625 c 0,4,5
 331.268672184 471.8828125 331.268672184 471.8828125 265.897701425 472.181640625 c 0,6,7
 201.94189611 471.771484375 201.94189611 471.771484375 120.07421875 443.643554688 c 2,8,-1
 112.875 441.098632812 l 1,9,-1
 93.09765625 497.133789062 l 1,10,-1
 99.732421875 499.68359375 l 2,11,12
 190.060183865 534 190.060183865 534 274.510654855 534 c 0,13,14
 359.192430746 533.450195312 359.192430746 533.450195312 405.31640625 500.5546875 c 0,15,16
 460.60546875 457.451171875 460.60546875 457.451171875 461 365.137695312 c 2,17,-1
 461 119.874023438 l 2,18,19
 461.313476562 82.109375 461.313476562 82.109375 470.483398438 66.12109375 c 0,20,21
 480.763671875 50.7705078125 480.763671875 50.7705078125 500.228515625 42.9736328125 c 2,22,-1
 506.7734375 40.4814453125 l 1,23,-1
 489.629882812 -12.1396484375 l 1,24,-1
 483.0625 -10.8623046875 l 2,25,26
 444.69921875 -2.8056640625 444.69921875 -2.8056640625 423.630859375 18.265625 c 0,27,28
 407.108398438 36.13671875 407.108398438 36.13671875 399.609375 65.2607421875 c 1,29,30
 339.291798114 -10.517578125 339.291798114 -10.517578125 229.292649348 -11 c 0,31,32
 147.342773438 -10.29296875 147.342773438 -10.29296875 101.759765625 32.6513671875 c 0,33,34
 56.3828125 77.208984375 56.3828125 77.208984375 56 148.893554688 c 0,35,36
 56.919921875 231.775390625 56.919921875 231.775390625 116.448242188 276.963867188 c 0,37,38
 176.92942515 321.233398438 176.92942515 321.233398438 288.506704178 321.5 c 2,0,-1
388 129.955078125 m 1,39,-1
 388 264.5 l 1,40,-1
 298.196276787 264.5 l 2,41,42
 214.705721139 264.009765625 214.705721139 264.009765625 171.947265625 234.961914062 c 0,43,44
 133.438476562 205.181640625 133.438476562 205.181640625 133 148 c 0,45,46
 133.673828125 97.0595703125 133.673828125 97.0595703125 159.802734375 70.302734375 c 0,47,48
 188.448409254 43.8515625 188.448409254 43.8515625 240.058841135 43.5 c 0,49,50
 335.700263823 44.767578125 335.700263823 44.767578125 388 129.955078125 c 1,39,-1
EndSplineSet
Validated: 524289
Substitution2: "Single Substitution lookup 19 subtable" ordfeminine
EndChar

StartChar: aacute
Encoding: 225 225 60
Width: 581
GlyphClass: 2
Flags: W
LayerCount: 2
Fore
SplineSet
361.462890625 785.7421875 m 1
 394.481445312 719.407226562 l 1
 186.004882812 628.533203125 l 1
 160 675.366210938 l 1
 361.462890625 785.7421875 l 1
EndSplineSet
Refer: 59 97 N 1 0 0 1 0 0 0
Validated: 524289
EndChar

StartChar: acircumflex
Encoding: 226 226 61
Width: 581
GlyphClass: 2
Flags: W
LayerCount: 2
Fore
SplineSet
261.970703125 779 m 1
 300.635742188 779 l 1
 303.284179688 779 l 1
 441.290039062 669.19921875 l 1
 405.974609375 626.7734375 l 1
 282.653320312 712.694335938 l 1
 160.314453125 626.76953125 l 1
 125 669.1953125 l 1
 261.970703125 779 l 1
EndSplineSet
Refer: 59 97 N 1 0 0 1 0 0 0
Validated: 524289
EndChar

StartChar: adieresis
Encoding: 228 228 62
Width: 581
GlyphClass: 2
Flags: W
LayerCount: 2
Fore
SplineSet
185.5 742 m 0
 205.791992188 741.20703125 205.791992188 741.20703125 219.302734375 728.302734375 c 0
 232.592773438 713.864257812 232.592773438 713.864257812 233 694.5 c 0
 232.189453125 674.140625 232.189453125 674.140625 219.182617188 661.080078125 c 0
 204.76953125 648.387695312 204.76953125 648.387695312 185.5 648 c 0
 165.299804688 648.762695312 165.299804688 648.762695312 151.817382812 661.080078125 c 0
 138.415039062 675.060546875 138.415039062 675.060546875 138 694.5 c 0
 138.79296875 714.791992188 138.79296875 714.791992188 151.697265625 728.302734375 c 0
 166.135742188 741.592773438 166.135742188 741.592773438 185.5 742 c 0
374.5 742 m 0
 394.791992188 741.20703125 394.791992188 741.20703125 408.302734375 728.302734375 c 0
 421.592773438 713.864257812 421.592773438 713.864257812 422 694.5 c 0
 421.189453125 674.140625 421.189453125 674.140625 408.182617188 661.080078125 c 0
 393.76953125 648.387695312 393.76953125 648.387695312 374.5 648 c 0
 354.299804688 648.762695312 354.299804688 648.762695312 340.817382812 661.080078125 c 0
 327.415039062 675.060546875 327.415039062 675.060546875 327 694.5 c 0
 327.79296875 714.791992188 327.79296875 714.791992188 340.697265625 728.302734375 c 0
 355.135742188 741.592773438 355.135742188 741.592773438 374.5 742 c 0
EndSplineSet
Refer: 59 97 N 1 0 0 1 0 0 0
Validated: 524289
EndChar

StartChar: agrave
Encoding: 224 224 63
Width: 581
GlyphClass: 2
Flags: W
LayerCount: 2
Fore
SplineSet
203.025390625 785.7421875 m 1
 404.33984375 675.447265625 l 1
 379.6328125 628.4765625 l 1
 170 719.388671875 l 1
 203.025390625 785.7421875 l 1
EndSplineSet
Refer: 59 97 N 1 0 0 1 0 0 0
Validated: 524289
EndChar

StartChar: aring
Encoding: 229 229 64
Width: 581
GlyphClass: 2
Flags: W
LayerCount: 2
Fore
SplineSet
280.5 821 m 0
 326.689453125 820.247070312 326.689453125 820.247070312 356.202148438 792.400390625 c 0
 385.590820312 762.891601562 385.590820312 762.891601562 386 719.5 c 0
 385.189453125 675.146484375 385.189453125 675.146484375 356.202148438 646.599609375 c 0
 325.72265625 618.375976562 325.72265625 618.375976562 280.5 618 c 0
 233.32421875 618.744140625 233.32421875 618.744140625 203.797851562 646.599609375 c 0
 174.409179688 676.108398438 174.409179688 676.108398438 174 719.5 c 0
 174.810546875 763.853515625 174.810546875 763.853515625 203.797851562 792.400390625 c 0
 234.29296875 820.629882812 234.29296875 820.629882812 280.5 821 c 0
315.608398438 681.7109375 m 0
 327.670898438 695.551757812 327.670898438 695.551757812 328 719.5 c 0
 326.6796875 769.228515625 326.6796875 769.228515625 280.5 770 c 0
 256.69921875 769.301757812 256.69921875 769.301757812 244.477539062 756.87890625 c 0
 232.330078125 742.575195312 232.330078125 742.575195312 232 719.5 c 0
 232.623046875 694.49609375 232.623046875 694.49609375 244.391601562 681.7109375 c 0
 257.703125 669.34765625 257.703125 669.34765625 280.5 669 c 0
 303.401367188 669.696289062 303.401367188 669.696289062 315.608398438 681.7109375 c 0
EndSplineSet
Refer: 59 97 N 1 0 0 1 0 0 0
Validated: 524289
EndChar

StartChar: atilde
Encoding: 227 227 65
Width: 596
GlyphClass: 2
Flags: W
LayerCount: 2
Fore
SplineSet
455.048828125 727.228515625 m 1
 417.119140625 651.795898438 417.119140625 651.795898438 356.299804688 651 c 0
 336.018510082 651.392578125 336.018510082 651.392578125 316.917981784 658.35546875 c 0
 294.94173199 666.366210938 294.94173199 666.366210938 274.114151321 677.133789062 c 0
 253.286570652 687.900390625 253.286570652 687.900390625 241.58203125 692.724609375 c 0
 232.166992188 696.774414062 232.166992188 696.774414062 224.299804688 697 c 0
 209.534179688 696.375976562 209.534179688 696.375976562 199.33203125 689.025390625 c 0
 186.876953125 678.845703125 186.876953125 678.845703125 170.866210938 654.830078125 c 1
 122 679.263671875 l 1
 125.70703125 686.077148438 l 1
 165.65234375 757.25 165.65234375 757.25 224.299804688 758 c 0
 243.396217155 757.622070312 243.396217155 757.622070312 261.910264842 751.127929688 c 0
 280.424312529 744.633789062 280.424312529 744.633789062 301.615117876 732.828125 c 0
 322.504007169 722.168945312 322.504007169 722.168945312 334.862900358 717.33203125 c 0
 345.569335938 713.197265625 345.569335938 713.197265625 356.299804688 713 c 0
 370.024414062 713.696289062 370.024414062 713.696289062 380.120117188 721.359375 c 0
 392.626953125 732.063476562 392.626953125 732.063476562 409.671875 758.200195312 c 1
 458.288085938 733.891601562 l 1
 455.048828125 727.228515625 l 1
EndSplineSet
Refer: 59 97 N 1 0 0 1 0 0 0
Validated: 524289
EndChar

StartChar: ae
Encoding: 230 230 66
Width: 877
GlyphClass: 2
Flags: W
LayerCount: 2
Fore
SplineSet
712.694335938 5.4990234375 m 0,0,1
 668.415495562 -10.8271484375 668.415495562 -10.8271484375 616.147928994 -11 c 0,2,3
 486.716727533 -10.0400390625 486.716727533 -10.0400390625 423.877808339 89.6689453125 c 1,4,5
 384.101007766 38.65234375 384.101007766 38.65234375 340.325513129 14.921875 c 0,6,7
 291.047163924 -10.7626953125 291.047163924 -10.7626953125 229.023668639 -11 c 0,8,9
 148.342773438 -10.29296875 148.342773438 -10.29296875 102.259765625 33.1435546875 c 0,10,11
 56.3896484375 78.177734375 56.3896484375 78.177734375 56 148.904296875 c 0,12,13
 56.9306640625 231.811523438 56.9306640625 231.811523438 117.465820312 277.485351562 c 0,14,15
 178.948999168 322.231445312 178.948999168 322.231445312 285.650887574 322.5 c 2,16,-1
 380.887573964 322.5 l 1,17,-1
 380.887573964 363.544921875 l 2,18,19
 380.283295581 421.305664062 380.283295581 421.305664062 353.806652182 446.790039062 c 0,20,21
 325.578506379 471.891601562 325.578506379 471.891601562 264.029585799 472.19140625 c 0,22,23
 202.42335429 471.778320312 202.42335429 471.778320312 115.018554688 441.165039062 c 1,24,-1
 93.9619140625 497.087890625 l 1,25,-1
 100.732421875 499.688476562 l 2,26,27
 190.475533931 534 190.475533931 534 271.236686391 534 c 0,28,29
 341.624560836 533.504882812 341.624560836 533.504882812 383.561078495 507.282226562 c 0,30,31
 419.515139608 483.53125 419.515139608 483.53125 437.500716531 443.103515625 c 1,32,33
 496.523934449 533.4453125 496.523934449 533.4453125 607.911242604 534 c 0,34,35
 711.245117188 533.112304688 711.245117188 533.112304688 764.965820312 465.248046875 c 0,36,37
 817.724609375 396.545898438 817.724609375 396.545898438 818 279.802734375 c 0,38,39
 817.903320312 257.022460938 817.903320312 257.022460938 815.288085938 231.5 c 1,40,-1
 460.539709689 231.5 l 1,41,42
 466.433686206 141.0703125 466.433686206 141.0703125 507.150587093 96.9140625 c 0,43,44
 550.530937962 51.8828125 550.530937962 51.8828125 619.236686391 51.474609375 c 0,45,46
 660.310523761 51.7998046875 660.310523761 51.7998046875 691.591230584 63.078125 c 0,47,48
 723.90234375 75.5986328125 723.90234375 75.5986328125 763.973632812 104.6875 c 1,49,-1
 800.830078125 57.548828125 l 1,50,-1
 795.252929688 53.119140625 l 2,51,52
 754.767578125 21.4013671875 754.767578125 21.4013671875 712.694335938 5.4990234375 c 0,0,1
460.534682415 291.5 m 1,53,-1
 745 291.5 l 1,54,-1
 745 299 l 2,55,56
 744.489257812 384.631835938 744.489257812 384.631835938 710.430664062 432.095703125 c 0,57,58
 675.002230492 478.049804688 675.002230492 478.049804688 606.881656805 478.5 c 0,59,60
 543.463595599 477.551757812 543.463595599 477.551757812 504.263926128 431.284179688 c 0,61,62
 465.986258783 384.126953125 465.986258783 384.126953125 460.534682415 291.5 c 1,53,-1
380.887573964 256 m 2,63,-1
 380.887573964 264.5 l 1,64,-1
 293.887573964 264.5 l 2,65,66
 215.062927607 263.998046875 215.062927607 263.998046875 173.458984375 234.470703125 c 0,67,68
 134.4453125 204.21484375 134.4453125 204.21484375 134 148 c 0,69,70
 134.673828125 97.0595703125 134.673828125 97.0595703125 160.802734375 70.302734375 c 0,71,72
 188.934171598 43.8515625 188.934171598 43.8515625 238.289940828 43.5 c 0,73,74
 287.7673701 44.0537109375 287.7673701 44.0537109375 324.162825906 66.783203125 c 0,75,76
 360.907174556 90.8818359375 360.907174556 90.8818359375 396.664166513 142.250976562 c 1,77,78
 381.025321283 196.3984375 381.025321283 196.3984375 380.887573964 256 c 2,63,-1
EndSplineSet
Validated: 524289
EndChar

StartChar: b
Encoding: 98 98 67
Width: 611
GlyphClass: 2
Flags: W
LayerCount: 2
Fore
SplineSet
488.12109375 64.1005859375 m 0,0,1
 432.465820312 -10.50390625 432.465820312 -10.50390625 328.331491713 -11 c 0,2,3
 235.443413329 -10.1474609375 235.443413329 -10.1474609375 176.3046875 54.5087890625 c 1,4,-1
 171.349609375 0 l 1,5,-1
 106 0 l 1,6,-1
 106 735.149414062 l 1,7,-1
 179 743.959960938 l 1,8,-1
 179 463.86328125 l 1,9,10
 241.978720649 533.52734375 241.978720649 533.52734375 336.994475138 534 c 0,11,12
 438.412109375 533.038085938 438.412109375 533.038085938 490.607421875 462.811523438 c 0,13,14
 541.752929688 391.876953125 541.752929688 391.876953125 542 263.932617188 c 0,15,16
 541.47265625 137.899414062 541.47265625 137.899414062 488.12109375 64.1005859375 c 0,0,1
179 393.630859375 m 1,17,-1
 179 123.21484375 l 1,18,19
 231.975893474 45.048828125 231.975893474 45.048828125 316.419889503 44.5 c 0,20,21
 389.052745166 45.55078125 389.052745166 45.55078125 427.763671875 98.6650390625 c 0,22,23
 464.771484375 155.272460938 464.771484375 155.272460938 465 264 c 0,24,25
 463.7734375 477.548828125 463.7734375 477.548828125 324 478.5 c 0,26,27
 275.354260186 477.928710938 275.354260186 477.928710938 240.896905214 456.326171875 c 0,28,29
 207.23046875 433.185546875 207.23046875 433.185546875 179 393.630859375 c 1,17,-1
EndSplineSet
Validated: 524289
EndChar

StartChar: c
Encoding: 99 99 68
Width: 499
GlyphClass: 2
Flags: W
LayerCount: 2
Fore
SplineSet
303.377192982 534 m 0,0,1
 354.124023438 533.686523438 354.124023438 533.686523438 390.020507812 521.065429688 c 0,2,3
 426.752929688 507.848632812 426.752929688 507.848632812 460.34765625 480.368164062 c 2,4,-1
 465.78125 475.884765625 l 1,5,-1
 427.78515625 427.461914062 l 1,6,-1
 421.79296875 432.168945312 l 2,7,8
 396.231445312 451.811523438 396.231445312 451.811523438 370.439453125 461.138671875 c 0,9,10
 342.972247513 470.274414062 342.972247513 470.274414062 306.677944862 470.427734375 c 0,11,12
 229.183339207 469.479492188 229.183339207 469.479492188 183.459960938 417.37109375 c 0,13,14
 141.263671875 362.448242188 141.263671875 362.448242188 141 258.891601562 c 0,15,16
 141.515625 155.420898438 141.515625 155.420898438 182.885742188 103.907226562 c 0,17,18
 229.148956375 53.6337890625 229.148956375 53.6337890625 305.577694236 53.1904296875 c 0,19,20
 342.922822192 53.521484375 342.922822192 53.521484375 370.302734375 63.40234375 c 0,21,22
 398.336914062 74.291015625 398.336914062 74.291015625 425.973632812 94.50390625 c 2,23,-1
 432.1015625 99.0263671875 l 1,24,-1
 468.625 49.5498046875 l 1,25,-1
 463.34765625 45.1953125 l 2,26,27
 394.576171875 -10.63671875 394.576171875 -10.63671875 304.477443609 -11 c 0,28,29
 228.034737723 -10.4677734375 228.034737723 -10.4677734375 172.46484375 21.2900390625 c 0,30,31
 120.538085938 54.5244140625 120.538085938 54.5244140625 92.16796875 114.450195312 c 0,32,33
 64.1884765625 175.477539062 64.1884765625 175.477539062 64 258.09375 c 0,34,35
 64.37890625 340.693359375 64.37890625 340.693359375 92.1318359375 402.630859375 c 0,36,37
 121.251953125 465.434570312 121.251953125 465.434570312 172.290039062 499.651367188 c 0,38,39
 228.988861313 533.715820312 228.988861313 533.715820312 303.377192982 534 c 0,0,1
EndSplineSet
Validated: 524289
EndChar

StartChar: ccedilla
Encoding: 231 231 69
Width: 499
GlyphClass: 2
Flags: W
LayerCount: 2
Fore
SplineSet
325.938917839 -49.7060546875 m 1,0,1
 372.3359375 -55.2783203125 372.3359375 -55.2783203125 394.979492188 -74.8935546875 c 0,2,3
 419.5625 -97.943359375 419.5625 -97.943359375 420 -132.5 c 0,4,5
 419.067382812 -177.260742188 419.067382812 -177.260742188 387.057617188 -202.455078125 c 0,6,7
 354.266601562 -226.696289062 354.266601562 -226.696289062 303.382733221 -227 c 0,8,9
 247.871223611 -226.469726562 247.871223611 -226.469726562 210.839194902 -204.775390625 c 2,10,-1
 204.695127465 -201.110351562 l 1,11,-1
 231.63747565 -152.138671875 l 1,12,-1
 239.163367278 -155.939453125 l 2,13,14
 267.762615077 -169.759765625 267.762615077 -169.759765625 302.282431532 -170 c 0,15,16
 326.240856095 -169.474609375 326.240856095 -169.474609375 340.975657908 -160.379882812 c 0,17,18
 353.583984375 -150.48828125 353.583984375 -150.48828125 354 -132.5 c 0,19,20
 352.625976562 -114.96484375 352.625976562 -114.96484375 335.392486449 -106.181640625 c 0,21,22
 312.324833468 -96.1708984375 312.324833468 -96.1708984375 264.872174117 -96 c 2,23,-1
 255.825846074 -96 l 1,24,-1
 264.726040299 -8.0380859375 l 1,25,26
 169.165039062 4.8583984375 169.165039062 4.8583984375 117.475585938 71.82421875 c 0,27,28
 64.2763671875 142.713867188 64.2763671875 142.713867188 64 258.133789062 c 0,29,30
 64.37890625 340.721679688 64.37890625 340.721679688 92.1318359375 402.649414062 c 0,31,32
 121.251953125 465.4453125 121.251953125 465.4453125 172.290039062 499.65625 c 0,33,34
 228.990949225 533.715820312 228.990949225 533.715820312 303.382733221 534 c 0,35,36
 354.124023438 533.686523438 354.124023438 533.686523438 390.020507812 521.065429688 c 0,37,38
 426.752929688 507.849609375 426.752929688 507.849609375 460.34765625 480.369140625 c 2,39,-1
 465.78125 475.885742188 l 1,40,-1
 427.78515625 427.463867188 l 1,41,-1
 421.79296875 432.170898438 l 2,42,43
 396.231445312 451.813476562 396.231445312 451.813476562 370.439453125 461.139648438 c 0,44,45
 342.979625339 470.275390625 342.979625339 470.275390625 306.683638287 470.428710938 c 0,46,47
 229.185436145 469.481445312 229.185436145 469.481445312 183.459960938 417.374023438 c 0,48,49
 141.263671875 362.452148438 141.263671875 362.452148438 141 258.897460938 c 0,50,51
 141.515625 155.4296875 141.515625 155.4296875 182.885742188 103.91796875 c 0,52,53
 229.151051717 53.64453125 229.151051717 53.64453125 305.583336598 53.201171875 c 0,54,55
 342.930197725 53.533203125 342.930197725 53.533203125 370.302734375 63.4130859375 c 0,56,57
 398.336914062 74.3017578125 398.336914062 74.3017578125 425.973632812 94.5146484375 c 2,58,-1
 432.1015625 99.0361328125 l 1,59,-1
 468.548828125 49.6630859375 l 1,60,-1
 463.455078125 45.296875 l 2,61,62
 404.485351562 -4.3662109375 404.485351562 -4.3662109375 325.938917839 -10.5322265625 c 1,63,-1
 325.938917839 -49.7060546875 l 1,0,1
EndSplineSet
Validated: 524289
EndChar

StartChar: d
Encoding: 100 100 70
Width: 615
GlyphClass: 2
Flags: W
LayerCount: 2
Fore
SplineSet
436 743.959960938 m 1,0,-1
 509 735.149414062 l 1,1,-1
 509 0 l 1,2,-1
 444.626953125 0 l 1,3,-1
 438.912109375 65.3154296875 l 1,4,5
 382.178842905 -10.4912109375 382.178842905 -10.4912109375 279.27027027 -11 c 0,6,7
 177.5859375 -10.0234375 177.5859375 -10.0234375 122.921875 62.5830078125 c 0,8,9
 69 135.05078125 69 135.05078125 69 259.067382812 c 0,10,11
 69.34375 339.587890625 69.34375 339.587890625 94.021484375 400.915039062 c 0,12,13
 120.006835938 463.250976562 120.006835938 463.250976562 167.49609375 498.473632812 c 0,14,15
 218.955658784 533.689453125 218.955658784 533.689453125 289 534 c 0,16,17
 378.406672297 533.1640625 378.406672297 533.1640625 436 475.2109375 c 1,18,-1
 436 743.959960938 l 1,0,-1
436 136.00390625 m 1,19,-1
 436 404.595703125 l 1,20,21
 381.313133446 477.946289062 381.313133446 477.946289062 299.810810811 478.5 c 0,22,23
 227.122888514 477.447265625 227.122888514 477.447265625 185.138671875 422.692382812 c 0,24,25
 146.227539062 366.0703125 146.227539062 366.0703125 145.9765625 265.055664062 c 0,26,27
 145.9765625 154.947265625 145.9765625 154.947265625 182.76171875 98.6279296875 c 0,28,29
 221.931798986 45.02734375 221.931798986 45.02734375 289 44.5 c 0,30,31
 340.753589527 45.0576171875 340.753589527 45.0576171875 375.729307432 67.1611328125 c 0,32,33
 409.534179688 90.7890625 409.534179688 90.7890625 436 136.00390625 c 1,19,-1
EndSplineSet
Validated: 524289
EndChar

StartChar: eth
Encoding: 240 240 71
Width: 586
GlyphClass: 2
Flags: W
LayerCount: 2
Fore
SplineSet
354.825890743 657.282226562 m 1,0,1
 439.166015625 594.232421875 439.166015625 594.232421875 477.403320312 507.301757812 c 0,2,3
 516.831054688 415.6640625 516.831054688 415.6640625 517 280.947265625 c 0,4,5
 516.454101562 142.452148438 516.454101562 142.452148438 457.465820312 66.22265625 c 0,6,7
 396.288781368 -10.5205078125 396.288781368 -10.5205078125 287.810606061 -11 c 0,8,9
 181.966796875 -10.16015625 181.966796875 -10.16015625 122.840820312 55.4755859375 c 0,10,11
 64.3173828125 122.360351562 64.3173828125 122.360351562 64 234.572265625 c 0,12,13
 64.388671875 296.971679688 64.388671875 296.971679688 87.0830078125 350.18359375 c 0,14,15
 111.125976562 404.39453125 111.125976562 404.39453125 156.005859375 437.672851562 c 0,16,17
 204.162050189 471.053710938 204.162050189 471.053710938 272.75 471.356445312 c 0,18,19
 365.857658617 470.536132812 365.857658617 470.536132812 431.817382812 409.1953125 c 1,20,21
 419.647460938 467.647460938 419.647460938 467.647460938 394.19399562 513.784179688 c 0,22,23
 361.773141572 567.370117188 361.773141572 567.370117188 305.547999527 610.383789062 c 1,24,-1
 223.945904356 534.528320312 l 1,25,-1
 164.721679688 560.047851562 l 1,26,-1
 249.67689098 643.389648438 l 1,27,28
 184.851991596 673.013671875 184.851991596 673.013671875 134.048828125 683.140625 c 2,29,-1
 126.068359375 684.708007812 l 1,30,-1
 143.158203125 745.182617188 l 1,31,-1
 149.940429688 743.861328125 l 2,32,33
 228.838290128 728.75390625 228.838290128 728.75390625 300.320490057 690.96484375 c 1,34,-1
 375.524769176 764.926757812 l 1,35,-1
 423.390625 723.87109375 l 1,36,-1
 354.825890743 657.282226562 l 1,0,1
287.810606061 44.5 m 0,37,38
 362.077799479 45.611328125 362.077799479 45.611328125 403.208984375 104.083007812 c 0,39,40
 442.7734375 166.197265625 442.7734375 166.197265625 443 282 c 0,41,42
 442.919921875 301.701171875 442.919921875 301.701171875 441.169921875 327.322265625 c 1,43,44
 375.553133878 412.946289062 375.553133878 412.946289062 281.356060606 413.5 c 0,45,46
 210.217388731 412.520507812 210.217388731 412.520507812 174.162109375 364.225585938 c 0,47,48
 139.26953125 312.809570312 139.26953125 312.809570312 139 234 c 0,49,50
 139.529296875 142.4921875 139.529296875 142.4921875 176.954101562 93.05859375 c 0,51,52
 217.49556108 44.95703125 217.49556108 44.95703125 287.810606061 44.5 c 0,37,38
EndSplineSet
Validated: 524289
EndChar

StartChar: e
Encoding: 101 101 72
Width: 566
GlyphClass: 2
Flags: W
LayerCount: 2
Fore
SplineSet
507 279.802734375 m 0,0,1
 506.903320312 257.022460938 506.903320312 257.022460938 504.288085938 231.5 c 1,2,-1
 141.440429688 231.5 l 1,3,4
 148.071289062 141.08203125 148.071289062 141.08203125 187.924773521 96.9140625 c 0,5,6
 233.420301072 51.8828125 233.420301072 51.8828125 305.47606383 51.474609375 c 0,7,8
 348.516762591 51.8017578125 348.516762591 51.8017578125 380.778569648 63.064453125 c 0,9,10
 412.954101562 75.599609375 412.954101562 75.599609375 454.137695312 104.686523438 c 1,11,-1
 489.734375 57.47265625 l 1,12,-1
 484.252929688 53.119140625 l 2,13,14
 443.7890625 21.4111328125 443.7890625 21.4111328125 402.22265625 5.509765625 c 0,15,16
 357.061211769 -10.826171875 357.061211769 -10.826171875 302.236702128 -11 c 0,17,18
 186.053072016 -10.15234375 186.053072016 -10.15234375 124.729492188 60.7373046875 c 0,19,20
 64.296875 132.741210938 64.296875 132.741210938 64 257.120117188 c 0,21,22
 64.3515625 339.618164062 64.3515625 339.618164062 90.052734375 401.475585938 c 0,23,24
 117.079101562 464.297851562 117.079101562 464.297851562 165.599609375 499.034179688 c 0,25,26
 218.299061877 533.697265625 218.299061877 533.697265625 288.199468085 534 c 0,27,28
 399.2109375 533.130859375 399.2109375 533.130859375 453.444335938 465.275390625 c 0,29,30
 506.72265625 396.565429688 506.72265625 396.565429688 507 279.802734375 c 0,0,1
141.358398438 291.5 m 1,31,-1
 435 291.5 l 1,32,-1
 435 299 l 2,33,34
 434.482421875 384.604492188 434.482421875 384.604492188 399.959960938 432.055664062 c 0,35,36
 362.914628698 478.055664062 362.914628698 478.055664062 290.359042553 478.5 c 0,37,38
 223.888858876 477.547851562 223.888858876 477.547851562 183.359375 431.3203125 c 0,39,40
 146.6328125 384.153320312 146.6328125 384.153320312 141.358398438 291.5 c 1,31,-1
EndSplineSet
Validated: 524289
EndChar

StartChar: eacute
Encoding: 233 233 73
Width: 581
GlyphClass: 2
Flags: W
LayerCount: 2
Fore
SplineSet
379.462890625 785.7421875 m 1
 412.481445312 719.407226562 l 1
 204.004882812 628.533203125 l 1
 178 675.366210938 l 1
 379.462890625 785.7421875 l 1
EndSplineSet
Refer: 72 101 N 1 0 0 1 0 0 0
Validated: 524289
EndChar

StartChar: ecircumflex
Encoding: 234 234 74
Width: 581
GlyphClass: 2
Flags: W
LayerCount: 2
Fore
SplineSet
279.970703125 779 m 1
 318.635742188 779 l 1
 321.284179688 779 l 1
 459.290039062 669.19921875 l 1
 423.974609375 626.7734375 l 1
 300.653320312 712.694335938 l 1
 178.314453125 626.76953125 l 1
 143 669.1953125 l 1
 279.970703125 779 l 1
EndSplineSet
Refer: 72 101 N 1 0 0 1 0 0 0
Validated: 524289
EndChar

StartChar: edieresis
Encoding: 235 235 75
Width: 581
GlyphClass: 2
Flags: W
LayerCount: 2
Fore
SplineSet
203.5 742 m 0
 223.791992188 741.20703125 223.791992188 741.20703125 237.302734375 728.302734375 c 0
 250.592773438 713.864257812 250.592773438 713.864257812 251 694.5 c 0
 250.189453125 674.140625 250.189453125 674.140625 237.182617188 661.080078125 c 0
 222.76953125 648.387695312 222.76953125 648.387695312 203.5 648 c 0
 183.299804688 648.762695312 183.299804688 648.762695312 169.817382812 661.080078125 c 0
 156.415039062 675.060546875 156.415039062 675.060546875 156 694.5 c 0
 156.79296875 714.791992188 156.79296875 714.791992188 169.697265625 728.302734375 c 0
 184.135742188 741.592773438 184.135742188 741.592773438 203.5 742 c 0
392.5 742 m 0
 412.791992188 741.20703125 412.791992188 741.20703125 426.302734375 728.302734375 c 0
 439.592773438 713.864257812 439.592773438 713.864257812 440 694.5 c 0
 439.189453125 674.140625 439.189453125 674.140625 426.182617188 661.080078125 c 0
 411.76953125 648.387695312 411.76953125 648.387695312 392.5 648 c 0
 372.299804688 648.762695312 372.299804688 648.762695312 358.817382812 661.080078125 c 0
 345.415039062 675.060546875 345.415039062 675.060546875 345 694.5 c 0
 345.79296875 714.791992188 345.79296875 714.791992188 358.697265625 728.302734375 c 0
 373.135742188 741.592773438 373.135742188 741.592773438 392.5 742 c 0
EndSplineSet
Refer: 72 101 N 1 0 0 1 0 0 0
Validated: 524289
EndChar

StartChar: egrave
Encoding: 232 232 76
Width: 581
GlyphClass: 2
Flags: W
LayerCount: 2
Fore
SplineSet
221.025390625 785.7421875 m 1
 422.33984375 675.447265625 l 1
 397.6328125 628.4765625 l 1
 188 719.388671875 l 1
 221.025390625 785.7421875 l 1
EndSplineSet
Refer: 72 101 N 1 0 0 1 0 0 0
Validated: 524289
EndChar

StartChar: f
Encoding: 102 102 77
Width: 351
GlyphClass: 2
Flags: W
LayerCount: 2
Fore
SplineSet
189.871550904 599.5 m 2,0,-1
 189.871550904 523 l 1,1,-1
 339.385742188 523 l 1,2,-1
 328.83203125 461 l 1,3,-1
 189.871550904 461 l 1,4,-1
 185 0 l 1,5,-1
 112 0 l 1,6,-1
 112 461 l 1,7,-1
 21 461 l 1,8,-1
 21 523 l 1,9,-1
 112 523 l 1,10,-1
 112 601.5 l 2,11,12
 112.790039062 666.853515625 112.790039062 666.853515625 154.195188582 704.978515625 c 0,13,14
 200.347435106 742.6640625 200.347435106 742.6640625 278.173557651 743 c 0,15,16
 342.63671875 742.544921875 342.63671875 742.544921875 404.622070312 714.3203125 c 2,17,-1
 411.48046875 711.171875 l 1,18,-1
 385.197265625 654.663085938 l 1,19,-1
 378.471679688 657.637695312 l 2,20,21
 327.49609375 679.770507812 327.49609375 679.770507812 281.505708849 680 c 0,22,23
 234.827390276 679.416992188 234.827390276 679.416992188 212.213885011 661.016601562 c 0,24,25
 190.243597734 641.126953125 190.243597734 641.126953125 189.871550904 599.5 c 2,0,-1
EndSplineSet
Validated: 524289
EndChar

StartChar: g
Encoding: 103 103 78
Width: 533
GlyphClass: 2
Flags: W
LayerCount: 2
Fore
SplineSet
167.043026773 164.651367188 m 0,0,1
 157.564424784 150.767578125 157.564424784 150.767578125 157.250996797 136.044921875 c 0,2,3
 157.250996797 90.646484375 157.250996797 90.646484375 237.488561344 90.646484375 c 2,4,-1
 327.822243284 90.646484375 l 2,5,6
 412.3125 90.0419921875 412.3125 90.0419921875 459.765625 52.3662109375 c 0,7,8
 508 13.5537109375 508 13.5537109375 508 -47.5 c 0,9,10
 506.98046875 -123.495117188 506.98046875 -123.495117188 447.727539062 -164.694335938 c 0,11,12
 386.635655759 -204.775390625 386.635655759 -204.775390625 265.120040526 -205 c 0,13,14
 139.194335938 -204.561523438 139.194335938 -204.561523438 86.6943359375 -168.139648438 c 0,15,16
 33.4423828125 -129.361328125 33.4423828125 -129.361328125 33 -47.5 c 2,17,-1
 33 -40 l 1,18,-1
 101.805664062 -40 l 1,19,-1
 101.997070312 -47.2998046875 l 2,20,21
 103.395507812 -83.173828125 103.395507812 -83.173828125 116.701171875 -103.282226562 c 0,22,23
 131.311523438 -123.010742188 131.311523438 -123.010742188 163.161501377 -132.287109375 c 0,24,25
 200.279885276 -141.896484375 200.279885276 -141.896484375 265.120040526 -142 c 0,26,27
 356.216535611 -141.62109375 356.216535611 -141.62109375 396.876033054 -117.670898438 c 0,28,29
 433.484375 -93.3994140625 433.484375 -93.3994140625 434 -50.5 c 0,30,31
 433.05078125 -13.2021484375 433.05078125 -13.2021484375 406.042244898 6.46484375 c 0,32,33
 374.170147329 26.7578125 374.170147329 26.7578125 318.25750049 27.0107421875 c 2,34,-1
 227.92381855 27.0107421875 l 2,35,36
 159.22704609 27.5556640625 159.22704609 27.5556640625 123.407226562 53.892578125 c 0,37,38
 87.515625 82.2216796875 87.515625 82.2216796875 87 124.021484375 c 0,39,40
 88.0810546875 174.276367188 88.0810546875 174.276367188 137.142578125 210.110351562 c 1,41,42
 98.4091796875 232.865234375 98.4091796875 232.865234375 78.556640625 264.577148438 c 0,43,44
 56.2412109375 302.137695312 56.2412109375 302.137695312 56 354.116210938 c 0,45,46
 56.8271484375 434.475585938 56.8271484375 434.475585938 111.411132812 484.283203125 c 0,47,48
 168.30815497 533.65625 168.30815497 533.65625 262.016895891 534 c 0,49,50
 361.426497506 533.014648438 361.426497506 533.014648438 407.537109375 541.04296875 c 0,51,52
 451.431640625 549.159179688 451.431640625 549.159179688 504.171875 570.479492188 c 1,53,-1
 527.046875 501 l 1,54,-1
 519.462890625 498.995117188 l 2,55,56
 476.557617188 487.940429688 476.557617188 487.940429688 399.385532628 484.888671875 c 1,57,58
 468.483398438 439.515625 468.483398438 439.515625 469 352.784179688 c 0,59,60
 468.181640625 274.288085938 468.181640625 274.288085938 415.609375 225.875976562 c 0,61,62
 358.723959504 177.872070312 358.723959504 177.872070312 264.057291326 177.538085938 c 0,63,64
 223.285707054 177.80859375 223.285707054 177.80859375 192.74723519 186.614257812 c 1,65,66
 176.232071119 176.610351562 176.232071119 176.610351562 167.043026773 164.651367188 c 0,0,1
261.931792928 481.5 m 0,67,68
 196.300802825 480.791992188 196.300802825 480.791992188 163.086776824 447.893554688 c 0,69,70
 131.342773438 413.154296875 131.342773438 413.154296875 131 357 c 0,71,72
 131.71484375 298.05078125 131.71484375 298.05078125 164.971496107 265.33984375 c 0,73,74
 201.348861522 232.856445312 201.348861522 232.856445312 261.931792928 232.5 c 0,75,76
 326.654672142 233.182617188 326.654672142 233.182617188 360.405261948 264.762695312 c 0,77,78
 393.874596838 298.02734375 393.874596838 298.02734375 394.24406824 356 c 0,79,80
 393.537298509 416.060546875 393.537298509 416.060546875 360.854647107 448.81640625 c 0,81,82
 326.534282584 481.1484375 326.534282584 481.1484375 261.931792928 481.5 c 0,67,68
EndSplineSet
Validated: 524321
EndChar

StartChar: h
Encoding: 104 104 79
Width: 614
GlyphClass: 2
Flags: W
LayerCount: 2
Fore
SplineSet
513 371.076171875 m 2,0,-1
 513 0 l 1,1,-1
 440 0 l 1,2,-1
 440 373.5 l 2,3,4
 439.52649819 425.08984375 439.52649819 425.08984375 420.547053639 453.0546875 c 0,5,6
 395.77886814 486.546875 395.77886814 486.546875 342.920731707 487 c 0,7,8
 292.090260575 486.3828125 292.090260575 486.3828125 253.64232803 460.892578125 c 0,9,10
 214.297125095 433.715820312 214.297125095 433.715820312 179 384.23828125 c 1,11,-1
 179 0 l 1,12,-1
 106 0 l 1,13,-1
 106 735.149414062 l 1,14,-1
 179 743.959960938 l 1,15,-1
 179 450.616210938 l 1,16,17
 252.592749619 533.4921875 252.592749619 533.4921875 354.591463415 534 c 0,18,19
 432.476812595 533.227539062 432.476812595 533.227539062 473.091796875 490.225585938 c 0,20,21
 512.6796875 445.944335938 512.6796875 445.944335938 513 371.076171875 c 2,0,-1
EndSplineSet
Validated: 524289
EndChar

StartChar: i
Encoding: 105 105 80
Width: 285
GlyphClass: 2
Flags: W
LayerCount: 2
Fore
SplineSet
141.5 753 m 0,0,1
 164.729492188 752.239257812 164.729492188 752.239257812 178.802734375 738.802734375 c 0,2,3
 192.596679688 723.85546875 192.596679688 723.85546875 193 703.5 c 0,4,5
 192.2109375 682.215820312 192.2109375 682.215820312 178.802734375 668.197265625 c 0,6,7
 163.797851562 654.374023438 163.797851562 654.374023438 141.5 654 c 0,8,9
 119.244140625 654.774414062 119.244140625 654.774414062 105.197265625 668.197265625 c 0,10,11
 91.4033203125 683.14453125 91.4033203125 683.14453125 91 703.5 c 0,12,13
 91.7890625 724.784179688 91.7890625 724.784179688 105.197265625 738.802734375 c 0,14,15
 120.173828125 752.611328125 120.173828125 752.611328125 141.5 753 c 0,0,1
106 523 m 1,16,-1
 179 523 l 1,17,-1
 179 0 l 1,18,-1
 106 0 l 1,19,-1
 106 523 l 1,16,-1
EndSplineSet
Validated: 524289
Substitution2: "Single Substitution lookup 19 subtable" dotlessi
Substitution2: "'locl' Localized Forms in Latin lookup 6 subtable" i.loclTRK
Substitution2: "'locl' Localized Forms in Latin lookup 4 subtable" i.loclTRK
Substitution2: "'locl' Localized Forms in Latin lookup 2 subtable" i.loclTRK
Substitution2: "'locl' Localized Forms in Latin lookup 1 subtable" i.loclTRK
Substitution2: "'locl' Localized Forms in Latin lookup 0 subtable" i.loclTRK
EndChar

StartChar: iacute
Encoding: 237 237 82
Width: 285
GlyphClass: 2
Flags: W
LayerCount: 2
Fore
SplineSet
22 674.443359375 m 1,0,-1
 223.462890625 784.819335938 l 1,1,-1
 256.481445312 718.783203125 l 1,2,-1
 48.0048828125 627.908203125 l 1,3,-1
 22 674.443359375 l 1,0,-1
108.737304688 523 m 1,4,-1
 181.737304688 523 l 1,5,-1
 181.737304688 0 l 1,6,-1
 108.737304688 0 l 1,7,-1
 108.737304688 523 l 1,4,-1
EndSplineSet
Validated: 524289
EndChar

StartChar: icircumflex
Encoding: 238 238 83
Width: 285
GlyphClass: 2
Flags: W
LayerCount: 2
Fore
SplineSet
-13 667.51171875 m 1,0,-1
 123.970703125 779 l 1,1,-1
 165.284179688 779 l 1,2,-1
 303.290039062 667.534179688 l 1,3,-1
 267.974609375 625.426757812 l 1,4,-1
 144.653320312 711.34765625 l 1,5,-1
 22.314453125 625.407226562 l 1,6,-1
 -13 667.51171875 l 1,0,-1
109.135742188 523 m 1,7,-1
 182.135742188 523 l 1,8,-1
 182.135742188 0 l 1,9,-1
 109.135742188 0 l 1,10,-1
 109.135742188 523 l 1,7,-1
EndSplineSet
Validated: 524289
EndChar

StartChar: idieresis
Encoding: 239 239 84
Width: 285
GlyphClass: 2
Flags: W
LayerCount: 2
Fore
SplineSet
47.5 742 m 0,0,1
 67.7919921875 741.20703125 67.7919921875 741.20703125 81.302734375 728.302734375 c 0,2,3
 94.5927734375 713.864257812 94.5927734375 713.864257812 95 694.5 c 0,4,5
 94.189453125 674.140625 94.189453125 674.140625 81.1826171875 661.080078125 c 0,6,7
 66.76953125 648.387695312 66.76953125 648.387695312 47.5 648 c 0,8,9
 27.2998046875 648.762695312 27.2998046875 648.762695312 13.8173828125 661.080078125 c 0,10,11
 0.4150390625 675.060546875 0.4150390625 675.060546875 0 694.5 c 0,12,13
 0.79296875 714.791992188 0.79296875 714.791992188 13.697265625 728.302734375 c 0,14,15
 28.1357421875 741.592773438 28.1357421875 741.592773438 47.5 742 c 0,0,1
236.5 742 m 0,16,17
 256.791992188 741.20703125 256.791992188 741.20703125 270.302734375 728.302734375 c 0,18,19
 283.592773438 713.864257812 283.592773438 713.864257812 284 694.5 c 0,20,21
 283.189453125 674.140625 283.189453125 674.140625 270.182617188 661.080078125 c 0,22,23
 255.76953125 648.387695312 255.76953125 648.387695312 236.5 648 c 0,24,25
 216.299804688 648.762695312 216.299804688 648.762695312 202.817382812 661.080078125 c 0,26,27
 189.415039062 675.060546875 189.415039062 675.060546875 189 694.5 c 0,28,29
 189.79296875 714.791992188 189.79296875 714.791992188 202.697265625 728.302734375 c 0,30,31
 217.135742188 741.592773438 217.135742188 741.592773438 236.5 742 c 0,16,17
106 523 m 1,32,-1
 179 523 l 1,33,-1
 179 0 l 1,34,-1
 106 0 l 1,35,-1
 106 523 l 1,32,-1
EndSplineSet
Validated: 524289
EndChar

StartChar: igrave
Encoding: 236 236 86
Width: 285
GlyphClass: 2
Flags: W
LayerCount: 2
Fore
SplineSet
32 718.76953125 m 1,0,-1
 65.025390625 784.819335938 l 1,1,-1
 266.33984375 674.525390625 l 1,2,-1
 241.6328125 627.857421875 l 1,3,-1
 32 718.76953125 l 1,0,-1
108.750976562 523 m 1,4,-1
 181.750976562 523 l 1,5,-1
 181.750976562 0 l 1,6,-1
 108.750976562 0 l 1,7,-1
 108.750976562 523 l 1,4,-1
EndSplineSet
Validated: 524289
EndChar

StartChar: j
Encoding: 106 106 87
Width: 285
GlyphClass: 2
Flags: W
LayerCount: 2
Fore
SplineSet
143.553710938 753 m 0,0,1
 166.783203125 752.239257812 166.783203125 752.239257812 180.85546875 738.802734375 c 0,2,3
 194.650390625 723.85546875 194.650390625 723.85546875 195.053710938 703.5 c 0,4,5
 194.263671875 682.215820312 194.263671875 682.215820312 180.85546875 668.197265625 c 0,6,7
 165.850585938 654.374023438 165.850585938 654.374023438 143.553710938 654 c 0,8,9
 121.296875 654.774414062 121.296875 654.774414062 107.250976562 668.197265625 c 0,10,11
 93.45703125 683.14453125 93.45703125 683.14453125 93.0537109375 703.5 c 0,12,13
 93.8427734375 724.784179688 93.8427734375 724.784179688 107.250976562 738.802734375 c 0,14,15
 122.227539062 752.611328125 122.227539062 752.611328125 143.553710938 753 c 0,0,1
102.291992188 -45.693359375 m 0,16,17
 108.053710938 -18.0556640625 108.053710938 -18.0556640625 108.053710938 22.6962890625 c 2,18,-1
 108.053710938 523 l 1,19,-1
 181.053710938 523 l 1,20,-1
 181.053710938 23.8232421875 l 2,21,22
 180.772460938 -43.9912109375 180.772460938 -43.9912109375 165.588867188 -84.6015625 c 0,23,24
 149.240234375 -127.0859375 149.240234375 -127.0859375 119.388671875 -152.731445312 c 0,25,26
 88.302734375 -178.489257812 88.302734375 -178.489257812 28.53125 -205.555664062 c 1,27,-1
 6 -149.890625 l 1,28,29
 48.6279296875 -128.576171875 48.6279296875 -128.576171875 69.03125 -110.430664062 c 0,30,31
 93.955078125 -86.7431640625 93.955078125 -86.7431640625 102.291992188 -45.693359375 c 0,16,17
EndSplineSet
Validated: 524289
EndChar

StartChar: k
Encoding: 107 107 89
Width: 518
GlyphClass: 2
Flags: W
LayerCount: 2
Fore
SplineSet
259.352293446 287.962890625 m 1,0,-1
 518.603515625 0 l 1,1,-1
 429.004882812 0 l 1,2,-1
 179 280.046875 l 1,3,-1
 179 0 l 1,4,-1
 106 0 l 1,5,-1
 106 735.149414062 l 1,6,-1
 179 743.959960938 l 1,7,-1
 179 291.137695312 l 1,8,-1
 407.968298333 523 l 1,9,-1
 496.84375 523 l 1,10,-1
 259.352293446 287.962890625 l 1,0,-1
EndSplineSet
Validated: 524289
EndChar

StartChar: l
Encoding: 108 108 90
Width: 299
GlyphClass: 2
Flags: W
LayerCount: 2
Fore
SplineSet
101 93.4013671875 m 2,0,-1
 101 735.149414062 l 1,1,-1
 174 743.959960938 l 1,2,-1
 174 95.69140625 l 2,3,4
 174.416992188 75.66796875 174.416992188 75.66796875 181.063476562 65.171875 c 0,5,6
 190.407226562 53.474609375 190.407226562 53.474609375 208.5 53.05859375 c 0,7,8
 228.064453125 53.4208984375 228.064453125 53.4208984375 241.334960938 59.2333984375 c 2,9,-1
 248.6953125 62.599609375 l 1,10,-1
 269.87890625 6.8037109375 l 1,11,-1
 263.846679688 3.787109375 l 2,12,13
 233.678710938 -10.76953125 233.678710938 -10.76953125 200.5 -11 c 0,14,15
 154.258789062 -10.263671875 154.258789062 -10.263671875 127.64453125 15.71484375 c 0,16,17
 101.325195312 43.2900390625 101.325195312 43.2900390625 101 93.4013671875 c 2,0,-1
EndSplineSet
Validated: 524289
EndChar

StartChar: m
Encoding: 109 109 91
Width: 898
GlyphClass: 2
Flags: W
LayerCount: 2
Fore
SplineSet
433.2109375 504.833984375 m 0,0,1
 463.389648438 479.538085938 463.389648438 479.538085938 477.197265625 440.034179688 c 1,2,3
 548.310856193 533.454101562 548.310856193 533.454101562 648.714932127 534 c 0,4,5
 719.796291714 533.159179688 719.796291714 533.159179688 758.719726562 489.596679688 c 0,6,7
 796.69140625 444.879882812 796.69140625 444.879882812 797 371.076171875 c 2,8,-1
 797 0 l 1,9,-1
 724 0 l 1,10,-1
 724 373.5 l 2,11,12
 723.484834559 432.81640625 723.484834559 432.81640625 700.646528563 460.33203125 c 0,13,14
 676.934318439 486.569335938 676.934318439 486.569335938 636.968325792 487 c 0,15,16
 592.42320065 486.291015625 592.42320065 486.291015625 557.60364819 460.640625 c 0,17,18
 521.513910492 432.970703125 521.513910492 432.970703125 488 384.313476562 c 1,19,-1
 488 0 l 1,20,-1
 415 0 l 1,21,-1
 415 373.5 l 2,22,23
 414.484834559 432.81640625 414.484834559 432.81640625 391.646528563 460.33203125 c 0,24,25
 367.934318439 486.569335938 367.934318439 486.569335938 327.968325792 487 c 0,26,27
 282.374098558 486.301757812 282.374098558 486.301757812 247.535774887 460.640625 c 0,28,29
 211.50443651 432.994140625 211.50443651 432.994140625 179 384.369140625 c 1,30,-1
 179 0 l 1,31,-1
 106 0 l 1,32,-1
 106 523 l 1,33,-1
 170.590820312 523 l 1,34,-1
 174.762695312 448.739257812 l 1,35,36
 243.718962104 533.478515625 243.718962104 533.478515625 339.714932127 534 c 0,37,38
 396.169347426 533.34375 396.169347426 533.34375 433.2109375 504.833984375 c 0,0,1
EndSplineSet
Validated: 524289
EndChar

StartChar: n
Encoding: 110 110 92
Width: 614
GlyphClass: 2
Flags: W
LayerCount: 2
Fore
SplineSet
513 371.076171875 m 2,0,-1
 513 0 l 1,1,-1
 440 0 l 1,2,-1
 440 373.5 l 2,3,4
 439.459151105 433.630859375 439.459151105 433.630859375 415.403808594 460.606445312 c 0,5,6
 390.171446265 486.618164062 390.171446265 486.618164062 342.920731707 487 c 0,7,8
 292.090260575 486.3828125 292.090260575 486.3828125 253.64232803 460.892578125 c 0,9,10
 214.297125095 433.715820312 214.297125095 433.715820312 179 384.23828125 c 1,11,-1
 179 0 l 1,12,-1
 106 0 l 1,13,-1
 106 523 l 1,14,-1
 170.51171875 523 l 1,15,-1
 175.6015625 447.5 l 1,16,17
 206.732493331 484.16015625 206.732493331 484.16015625 245.458103087 506.4296875 c 0,18,19
 294.725085747 533.733398438 294.725085747 533.733398438 354.591463415 534 c 0,20,21
 433.523282679 533.23828125 433.523282679 533.23828125 473.595703125 490.708007812 c 0,22,23
 512.685546875 446.897460938 512.685546875 446.897460938 513 371.076171875 c 2,0,-1
EndSplineSet
Validated: 524289
EndChar

StartChar: ntilde
Encoding: 241 241 94
Width: 644
GlyphClass: 2
Flags: W
LayerCount: 2
Fore
SplineSet
494.048828125 727.228515625 m 1
 456.119140625 651.795898438 456.119140625 651.795898438 395.299804688 651 c 0
 375.018510082 651.392578125 375.018510082 651.392578125 355.917981784 658.35546875 c 0
 333.94173199 666.366210938 333.94173199 666.366210938 313.114151321 677.133789062 c 0
 292.286570652 687.900390625 292.286570652 687.900390625 280.58203125 692.724609375 c 0
 271.166992188 696.774414062 271.166992188 696.774414062 263.299804688 697 c 0
 248.534179688 696.375976562 248.534179688 696.375976562 238.33203125 689.025390625 c 0
 225.876953125 678.845703125 225.876953125 678.845703125 209.866210938 654.830078125 c 1
 161 679.263671875 l 1
 164.70703125 686.077148438 l 1
 204.65234375 757.25 204.65234375 757.25 263.299804688 758 c 0
 282.396217155 757.622070312 282.396217155 757.622070312 300.910264842 751.127929688 c 0
 319.424312529 744.633789062 319.424312529 744.633789062 340.615117876 732.828125 c 0
 361.504007169 722.168945312 361.504007169 722.168945312 373.862900358 717.33203125 c 0
 384.569335938 713.197265625 384.569335938 713.197265625 395.299804688 713 c 0
 409.024414062 713.696289062 409.024414062 713.696289062 419.120117188 721.359375 c 0
 431.626953125 732.063476562 431.626953125 732.063476562 448.671875 758.200195312 c 1
 497.288085938 733.891601562 l 1
 494.048828125 727.228515625 l 1
EndSplineSet
Refer: 92 110 N 1 0 0 1 0 0 0
Validated: 524289
EndChar

StartChar: o
Encoding: 111 111 95
Width: 601
GlyphClass: 2
Flags: W
LayerCount: 2
Fore
SplineSet
301.03440367 534 m 0,0,1
 416.067924849 533.143554688 416.067924849 533.143554688 476.807617188 461.733398438 c 0,2,3
 536.708984375 389.248046875 536.708984375 389.248046875 537 262.959960938 c 0,4,5
 536.401367188 136.67578125 536.401367188 136.67578125 475.83203125 63.2431640625 c 0,6,7
 412.92830329 -10.5576171875 412.92830329 -10.5576171875 299.96559633 -11 c 0,8,9
 184.899718678 -10.1318359375 184.899718678 -10.1318359375 124.16015625 62.2783203125 c 0,10,11
 64.291015625 135.711914062 64.291015625 135.711914062 64 261.013671875 c 0,12,13
 64.3740234375 343.59375 64.3740234375 343.59375 91.6201171875 405.038085938 c 0,14,15
 120.279296875 467.408203125 120.279296875 467.408203125 171.375976562 500.680664062 c 0,16,17
 226.716805834 533.729492188 226.716805834 533.729492188 301.03440367 534 c 0,0,1
301.03440367 477.5 m 0,18,19
 223.764016808 476.538085938 223.764016808 476.538085938 181.541992188 423.557617188 c 0,20,21
 141.252929688 367.546875 141.252929688 367.546875 141 261 c 0,22,23
 141.487304688 154.422851562 141.487304688 154.422851562 181.067382812 99.408203125 c 0,24,25
 223.841254838 45.9716796875 223.841254838 45.9716796875 299.96559633 45.5 c 0,26,27
 377.27355845 46.4580078125 377.27355845 46.4580078125 419.983398438 99.4765625 c 0,28,29
 460.74609375 155.482421875 460.74609375 155.482421875 461 263 c 0,30,31
 460.51171875 369.553710938 460.51171875 369.553710938 420.951171875 424.06640625 c 0,32,33
 378.237990073 477.036132812 378.237990073 477.036132812 301.03440367 477.5 c 0,18,19
EndSplineSet
Validated: 524289
Substitution2: "Single Substitution lookup 19 subtable" ordmasculine
EndChar

StartChar: oacute
Encoding: 243 243 96
Width: 616
GlyphClass: 2
Flags: W
LayerCount: 2
Fore
SplineSet
389.462890625 785.7421875 m 1
 422.481445312 719.407226562 l 1
 214.004882812 628.533203125 l 1
 188 675.366210938 l 1
 389.462890625 785.7421875 l 1
EndSplineSet
Refer: 95 111 N 1 0 0 1 0 0 0
Validated: 524289
Substitution2: "'locl' Localized Forms in Latin lookup 3 subtable" oacute.loclPLK
EndChar

StartChar: ocircumflex
Encoding: 244 244 98
Width: 616
GlyphClass: 2
Flags: W
LayerCount: 2
Fore
SplineSet
289.970703125 779 m 1
 328.635742188 779 l 1
 331.284179688 779 l 1
 469.290039062 669.19921875 l 1
 433.974609375 626.7734375 l 1
 310.653320312 712.694335938 l 1
 188.314453125 626.76953125 l 1
 153 669.1953125 l 1
 289.970703125 779 l 1
EndSplineSet
Refer: 95 111 N 1 0 0 1 0 0 0
Validated: 524289
EndChar

StartChar: odieresis
Encoding: 246 246 99
Width: 616
GlyphClass: 2
Flags: W
LayerCount: 2
Fore
SplineSet
213.5 742 m 0
 233.791992188 741.20703125 233.791992188 741.20703125 247.302734375 728.302734375 c 0
 260.592773438 713.864257812 260.592773438 713.864257812 261 694.5 c 0
 260.189453125 674.140625 260.189453125 674.140625 247.182617188 661.080078125 c 0
 232.76953125 648.387695312 232.76953125 648.387695312 213.5 648 c 0
 193.299804688 648.762695312 193.299804688 648.762695312 179.817382812 661.080078125 c 0
 166.415039062 675.060546875 166.415039062 675.060546875 166 694.5 c 0
 166.79296875 714.791992188 166.79296875 714.791992188 179.697265625 728.302734375 c 0
 194.135742188 741.592773438 194.135742188 741.592773438 213.5 742 c 0
402.5 742 m 0
 422.791992188 741.20703125 422.791992188 741.20703125 436.302734375 728.302734375 c 0
 449.592773438 713.864257812 449.592773438 713.864257812 450 694.5 c 0
 449.189453125 674.140625 449.189453125 674.140625 436.182617188 661.080078125 c 0
 421.76953125 648.387695312 421.76953125 648.387695312 402.5 648 c 0
 382.299804688 648.762695312 382.299804688 648.762695312 368.817382812 661.080078125 c 0
 355.415039062 675.060546875 355.415039062 675.060546875 355 694.5 c 0
 355.79296875 714.791992188 355.79296875 714.791992188 368.697265625 728.302734375 c 0
 383.135742188 741.592773438 383.135742188 741.592773438 402.5 742 c 0
EndSplineSet
Refer: 95 111 N 1 0 0 1 0 0 0
Validated: 524289
EndChar

StartChar: ograve
Encoding: 242 242 100
Width: 616
GlyphClass: 2
Flags: W
LayerCount: 2
Fore
SplineSet
231.025390625 785.7421875 m 1
 432.33984375 675.447265625 l 1
 407.6328125 628.4765625 l 1
 198 719.388671875 l 1
 231.025390625 785.7421875 l 1
EndSplineSet
Refer: 95 111 N 1 0 0 1 0 0 0
Validated: 524289
EndChar

StartChar: oslash
Encoding: 248 248 101
Width: 601
GlyphClass: 2
Flags: W
LayerCount: 2
Fore
SplineSet
427.500976562 505.899414062 m 1,0,1
 479.78125 474.389648438 479.78125 474.389648438 507.828125 415.157226562 c 0,2,3
 536.813476562 351.905273438 536.813476562 351.905273438 537 264.079101562 c 0,4,5
 536.401367188 137.279296875 536.401367188 137.279296875 475.83203125 63.5458984375 c 0,6,7
 412.92830329 -10.5556640625 412.92830329 -10.5556640625 299.96559633 -11 c 0,8,9
 269.039071459 -10.76953125 269.039071459 -10.76953125 240.00592209 -4.466796875 c 1,10,-1
 196.107583142 -126.680664062 l 1,11,-1
 131.8515625 -108.544921875 l 1,12,-1
 175.436523438 16.25390625 l 1,13,14
 123.16015625 48.6650390625 123.16015625 48.6650390625 94.1943359375 108.7734375 c 0,15,16
 64.193359375 173.00390625 64.193359375 173.00390625 64 259.8984375 c 0,17,18
 64.3740234375 342.81640625 64.3740234375 342.81640625 91.6201171875 404.51171875 c 0,19,20
 120.279296875 467.13671875 120.279296875 467.13671875 171.375976562 500.544921875 c 0,21,22
 226.716805834 533.728515625 226.716805834 533.728515625 301.03440367 534 c 0,23,24
 333.777066012 533.77734375 333.777066012 533.77734375 363.022098086 527.485351562 c 1,25,-1
 404.782822355 649.7109375 l 1,26,-1
 469.022460938 631.581054688 l 1,27,-1
 427.500976562 505.899414062 l 1,0,1
203.935761898 73.2490234375 m 1,28,-1
 345.325195312 472.986328125 l 1,29,30
 325.621147506 477.391601562 325.621147506 477.391601562 301.03440367 477.5 c 0,31,32
 223.764016808 476.538085938 223.764016808 476.538085938 181.541992188 423.557617188 c 0,33,34
 141.252929688 367.546875 141.252929688 367.546875 141 261 c 0,35,36
 141.641601562 123.918945312 141.641601562 123.918945312 203.935761898 73.2490234375 c 1,28,-1
299.96559633 45.5 m 0,37,38
 377.27355845 46.4580078125 377.27355845 46.4580078125 419.983398438 99.4765625 c 0,39,40
 460.74609375 155.482421875 460.74609375 155.482421875 461 263 c 0,41,42
 460.362304688 398.995117188 460.362304688 398.995117188 399.209159081 448.770507812 c 1,43,-1
 257.957501613 49.421875 l 1,44,45
 278.498642668 45.59765625 278.498642668 45.59765625 299.96559633 45.5 c 0,37,38
EndSplineSet
Validated: 524289
EndChar

StartChar: otilde
Encoding: 245 245 102
Width: 631
GlyphClass: 2
Flags: W
LayerCount: 2
Fore
SplineSet
483.048828125 727.228515625 m 1
 445.119140625 651.795898438 445.119140625 651.795898438 384.299804688 651 c 0
 364.018510082 651.392578125 364.018510082 651.392578125 344.917981784 658.35546875 c 0
 322.94173199 666.366210938 322.94173199 666.366210938 302.114151321 677.133789062 c 0
 281.286570652 687.900390625 281.286570652 687.900390625 269.58203125 692.724609375 c 0
 260.166992188 696.774414062 260.166992188 696.774414062 252.299804688 697 c 0
 237.534179688 696.375976562 237.534179688 696.375976562 227.33203125 689.025390625 c 0
 214.876953125 678.845703125 214.876953125 678.845703125 198.866210938 654.830078125 c 1
 150 679.263671875 l 1
 153.70703125 686.077148438 l 1
 193.65234375 757.25 193.65234375 757.25 252.299804688 758 c 0
 271.396217155 757.622070312 271.396217155 757.622070312 289.910264842 751.127929688 c 0
 308.424312529 744.633789062 308.424312529 744.633789062 329.615117876 732.828125 c 0
 350.504007169 722.168945312 350.504007169 722.168945312 362.862900358 717.33203125 c 0
 373.569335938 713.197265625 373.569335938 713.197265625 384.299804688 713 c 0
 398.024414062 713.696289062 398.024414062 713.696289062 408.120117188 721.359375 c 0
 420.626953125 732.063476562 420.626953125 732.063476562 437.671875 758.200195312 c 1
 486.288085938 733.891601562 l 1
 483.048828125 727.228515625 l 1
EndSplineSet
Refer: 95 111 N 1 0 0 1 0 0 0
Validated: 524289
EndChar

StartChar: p
Encoding: 112 112 104
Width: 611
GlyphClass: 2
Flags: W
LayerCount: 2
Fore
SplineSet
489.173828125 64.66015625 m 0,0,1
 434.498046875 -10.50390625 434.498046875 -10.50390625 330.013198322 -11 c 0,2,3
 240.679782191 -10.216796875 240.679782191 -10.216796875 179.537678813 48.5185546875 c 1,4,-1
 179.537678813 -196.037109375 l 1,5,-1
 106 -206.106445312 l 1,6,-1
 106 523 l 1,7,-1
 170.5234375 523 l 1,8,-1
 174.945400577 459.790039062 l 1,9,10
 242.376702733 533.541015625 242.376702733 533.541015625 339.584079421 534 c 0,11,12
 443.48046875 533.038085938 443.48046875 533.038085938 493.224609375 462.16015625 c 0,13,14
 541.764648438 390.803710938 541.764648438 390.803710938 542 263.932617188 c 0,15,16
 541.481445312 138.912109375 541.481445312 138.912109375 489.173828125 64.66015625 c 0,0,1
318.315454756 45.5 m 0,17,18
 390.676549943 46.5341796875 390.676549943 46.5341796875 428.254882812 99.15234375 c 0,19,20
 464.7734375 155.270507812 464.7734375 155.270507812 465 264 c 0,21,22
 463.79296875 477.548828125 463.79296875 477.548828125 327.886335855 478.5 c 0,23,24
 280.115010923 477.918945312 280.115010923 477.918945312 245.763274268 455.838867188 c 0,25,26
 210.567231371 432.20703125 210.567231371 432.20703125 179.537678813 393.520507812 c 1,27,-1
 179.537678813 120.240234375 l 1,28,29
 233.140220909 46.0556640625 233.140220909 46.0556640625 318.315454756 45.5 c 0,17,18
EndSplineSet
Validated: 524289
EndChar

StartChar: thorn
Encoding: 254 254 105
Width: 611
GlyphClass: 2
Flags: W
LayerCount: 2
Fore
SplineSet
489.173828125 64.66015625 m 0,0,1
 434.498046875 -10.50390625 434.498046875 -10.50390625 328.331491713 -11 c 0,2,3
 237.36487828 -10.216796875 237.36487828 -10.216796875 179 48.5185546875 c 1,4,-1
 179 -193.818359375 l 1,5,-1
 106 -206.405273438 l 1,6,-1
 106 735.149414062 l 1,7,-1
 179 743.959960938 l 1,8,-1
 179 464.967773438 l 1,9,10
 241.464779006 533.57421875 241.464779006 533.57421875 338.077348066 534 c 0,11,12
 443.48046875 533.038085938 443.48046875 533.038085938 493.224609375 462.16015625 c 0,13,14
 541.764648438 390.803710938 541.764648438 390.803710938 542 263.932617188 c 0,15,16
 541.481445312 138.912109375 541.481445312 138.912109375 489.173828125 64.66015625 c 0,0,1
316.419889503 45.5 m 0,17,18
 390.103893301 46.5341796875 390.103893301 46.5341796875 428.254882812 99.15234375 c 0,19,20
 464.7734375 155.270507812 464.7734375 155.270507812 465 264 c 0,21,22
 463.79296875 477.548828125 463.79296875 477.548828125 326.165745856 478.5 c 0,23,24
 277.521063536 477.918945312 277.521063536 477.918945312 242.541306975 455.838867188 c 0,25,26
 208.178710938 432.20703125 208.178710938 432.20703125 179 393.520507812 c 1,27,-1
 179 120.240234375 l 1,28,29
 229.687478419 46.0556640625 229.687478419 46.0556640625 316.419889503 45.5 c 0,17,18
EndSplineSet
Validated: 524289
EndChar

StartChar: q
Encoding: 113 113 106
Width: 615
GlyphClass: 2
Flags: W
LayerCount: 2
Fore
SplineSet
444.4609375 523 m 1,0,-1
 509 523 l 1,1,-1
 509 -206.106445312 l 1,2,-1
 435.472205075 -196.037109375 l 1,3,-1
 435.472205075 59.876953125 l 1,4,5
 411.062360142 31.716796875 411.062360142 31.716796875 379.550960102 13.5712890625 c 0,6,7
 336.229917726 -11 336.229917726 -11 277.708746223 -11 c 0,8,9
 177.5859375 -10.0234375 177.5859375 -10.0234375 122.921875 62.5830078125 c 0,10,11
 69 135.05078125 69 135.05078125 69 259.067382812 c 0,12,13
 69.3505859375 339.614257812 69.3505859375 339.614257812 94.541015625 400.961914062 c 0,14,15
 121.024414062 463.267578125 121.024414062 463.267578125 168.49609375 498.473632812 c 0,16,17
 219.499856398 533.689453125 219.499856398 533.689453125 288.332548166 534 c 0,18,19
 378.371344593 533.1328125 378.371344593 533.1328125 440.9635902 471.151367188 c 1,20,-1
 444.4609375 523 l 1,0,-1
435.472205075 135.0390625 m 1,21,-1
 435.472205075 405.60546875 l 1,22,23
 379.011470159 477.950195312 379.011470159 477.950195312 298.956350109 478.5 c 0,24,25
 227.488457468 477.451171875 227.488457468 477.451171875 185.614257812 422.657226562 c 0,26,27
 146.23046875 366.03125 146.23046875 366.03125 145.9765625 264.997070312 c 0,28,29
 145.9765625 154.946289062 145.9765625 154.946289062 182.76171875 98.6279296875 c 0,30,31
 221.374583948 45.0234375 221.374583948 45.0234375 288.332548166 44.5 c 0,32,33
 339.149388299 45.0595703125 339.149388299 45.0595703125 372.984745014 67.1318359375 c 0,34,35
 407.369966479 90.7568359375 407.369966479 90.7568359375 435.472205075 135.0390625 c 1,21,-1
EndSplineSet
Validated: 524289
EndChar

StartChar: r
Encoding: 114 114 107
Width: 388
GlyphClass: 2
Flags: W
LayerCount: 2
Fore
SplineSet
179 317.447265625 m 1,0,-1
 179 0 l 1,1,-1
 106 0 l 1,2,-1
 106 523 l 1,3,-1
 170.686523438 523 l 1,4,-1
 174.44921875 434.953125 l 1,5,6
 193.96875 476.876953125 193.96875 476.876953125 221.103515625 500.6796875 c 0,7,8
 260.484375 533.65234375 260.484375 533.65234375 316.5 534 c 0,9,10
 348.791992188 533.765625 348.791992188 533.765625 370.561523438 527.712890625 c 2,11,-1
 377.211914062 525.8125 l 1,12,-1
 363.279296875 458.081054688 l 1,13,-1
 355.524414062 460.13671875 l 2,14,15
 333.921875 465.590820312 333.921875 465.590820312 311.5 465.71484375 c 0,16,17
 261.821289062 464.842773438 261.821289062 464.842773438 231.733398438 430.875 c 0,18,19
 200.405273438 393.885742188 200.405273438 393.885742188 179 317.447265625 c 1,0,-1
EndSplineSet
Validated: 524289
EndChar

StartChar: s
Encoding: 115 115 108
Width: 494
GlyphClass: 2
Flags: W
LayerCount: 2
Fore
SplineSet
252.908411312 534 m 0,0,1
 308.516602151 533.673828125 308.516602151 533.673828125 351.129882812 519.053710938 c 0,2,3
 392.665039062 504.036132812 392.665039062 504.036132812 431.12109375 475.692382812 c 2,4,-1
 436.887695312 471.412109375 l 1,5,-1
 401.393554688 422.831054688 l 1,6,-1
 395.306640625 426.942382812 l 2,7,8
 359.71484375 450.676757812 359.71484375 450.676757812 329.04296875 461.56640625 c 0,9,10
 294.668939897 472.165039062 294.668939897 472.165039062 255.103118965 472.322265625 c 0,11,12
 200.634075702 471.783203125 200.634075702 471.783203125 167.855988304 450.438476562 c 0,13,14
 138.549804688 428.415039062 138.549804688 428.415039062 138.077148438 394.038085938 c 0,15,16
 138.99609375 360.59375 138.99609375 360.59375 162.975764352 342.461914062 c 0,17,18
 193.141206605 322.759765625 193.141206605 322.759765625 269.235836022 304.82421875 c 0,19,20
 365.142578125 281.6484375 365.142578125 281.6484375 406.047851562 246.818359375 c 0,21,22
 447.682617188 209.708984375 447.682617188 209.708984375 448.077148438 144.110351562 c 0,23,24
 447.111328125 72.3251953125 447.111328125 72.3251953125 391.106445312 30.3525390625 c 0,25,26
 334.313476562 -10.7060546875 334.313476562 -10.7060546875 244.129580699 -11 c 0,27,28
 176.418348729 -10.6650390625 176.418348729 -10.6650390625 128.862304688 7.0068359375 c 0,29,30
 82.3046875 25.0087890625 82.3046875 25.0087890625 44.6748046875 56.3701171875 c 2,31,-1
 39 61.1376953125 l 1,32,-1
 80.6259765625 107.889648438 l 1,33,-1
 86.2568359375 103.514648438 l 2,34,35
 120.834960938 77.064453125 120.834960938 77.064453125 155.67578125 64.3466796875 c 0,36,37
 194.775449364 51.8408203125 194.775449364 51.8408203125 243.032226872 51.6826171875 c 0,38,39
 304.091822902 52.21875 304.091822902 52.21875 339.596679688 75.98046875 c 0,40,41
 371.615234375 100.453125 371.615234375 100.453125 372.077148438 141.534179688 c 0,42,43
 371.639648438 170.7265625 371.639648438 170.7265625 361.140625 188.3046875 c 0,44,45
 349.114257812 206.138671875 349.114257812 206.138671875 322.758625936 219.037109375 c 0,46,47
 290.603158238 232.970703125 290.603158238 232.970703125 231.044922277 247.169921875 c 0,48,49
 139.958007812 269.366210938 139.958007812 269.366210938 102.049804688 302.233398438 c 0,50,51
 63.4931640625 337.284179688 63.4931640625 337.284179688 63.0771484375 393.118164062 c 0,52,53
 63.72265625 433.69921875 63.72265625 433.69921875 87.515625 465.888671875 c 0,54,55
 112.584960938 498.12109375 112.584960938 498.12109375 153.044921875 515.861328125 c 0,56,57
 198.110376228 533.8046875 198.110376228 533.8046875 252.908411312 534 c 0,0,1
EndSplineSet
Validated: 524289
EndChar

StartChar: germandbls
Encoding: 223 223 109
Width: 612
GlyphClass: 2
Flags: W
LayerCount: 2
Fore
SplineSet
179 530.5 m 2,0,-1
 179 0 l 1,1,-1
 106 0 l 1,2,-1
 106 532.5 l 2,3,4
 106.6875 632.5859375 106.6875 632.5859375 159.095703125 687.698242188 c 0,5,6
 213.174804688 742.61328125 213.174804688 742.61328125 307.078817734 743 c 0,7,8
 388.559296105 742.353515625 388.559296105 742.353515625 439.492591595 703.258789062 c 0,9,10
 487.521484375 662.208984375 487.521484375 662.208984375 488 601.5 c 0,11,12
 487.435546875 558.912109375 487.435546875 558.912109375 468.590820312 532.125 c 0,13,14
 449.103515625 506.478515625 449.103515625 506.478515625 414.273966672 480.189453125 c 0,15,16
 388.087371075 460.037109375 388.087371075 460.037109375 376.127742072 447.092773438 c 0,17,18
 365.955135853 434.745117188 365.955135853 434.745117188 365.60591133 419.607421875 c 0,19,20
 366.517251001 399.854492188 366.517251001 399.854492188 381.58424415 385.280273438 c 0,21,22
 400.390980988 368.208984375 400.390980988 368.208984375 440.069388855 343.626953125 c 0,23,24
 477.288085938 319.043945312 477.288085938 319.043945312 501.943359375 298.1015625 c 0,25,26
 527.721679688 275.434570312 527.721679688 275.434570312 545.693359375 241.4140625 c 0,27,28
 563.791015625 205.58203125 563.791015625 205.58203125 564 157.836914062 c 0,29,30
 563.232421875 82.6611328125 563.232421875 82.6611328125 515.802734375 35.90234375 c 0,31,32
 466.80078125 -10.6162109375 466.80078125 -10.6162109375 389.768472906 -11 c 0,33,34
 329.3777998 -10.533203125 329.3777998 -10.533203125 282.814530095 12.294921875 c 2,35,-1
 276.332377617 15.5146484375 l 1,36,-1
 301.948468288 68.4326171875 l 1,37,-1
 309.41641972 65.2578125 l 2,38,39
 342.930437962 51.529296875 342.930437962 51.529296875 385.472906404 51.3349609375 c 0,40,41
 434.737684729 52.0947265625 434.737684729 52.0947265625 462.022460938 79.2109375 c 0,42,43
 488.670898438 108.234375 488.670898438 108.234375 489 158.958984375 c 0,44,45
 488.560546875 193.455078125 488.560546875 193.455078125 475.361328125 218.381835938 c 0,46,47
 460.936523438 244.192382812 460.936523438 244.192382812 442.37448045 260.666992188 c 0,48,49
 420.319850677 278.431640625 420.319850677 278.431640625 385.201287331 300.987304688 c 0,50,51
 338.194408097 330.051757812 338.194408097 330.051757812 314.976745305 353.818359375 c 0,52,53
 290.807891395 380.008789062 290.807891395 380.008789062 290.433497537 417.064453125 c 0,54,55
 291.078461746 447.939453125 291.078461746 447.939453125 307.095597291 467.73046875 c 0,56,57
 323.79230488 487.0625 323.79230488 487.0625 353.563433267 508.455078125 c 0,58,59
 384.93071698 532.484375 384.93071698 532.484375 399.946322737 550.46875 c 0,60,61
 413.637392241 568.90625 413.637392241 568.90625 413.931034483 598.5 c 0,62,63
 412.966209975 637.013671875 412.966209975 637.013671875 384.74299569 658.640625 c 0,64,65
 353.794152171 680.697265625 353.794152171 680.697265625 306.004926108 681 c 0,66,67
 246.128126924 680.168945312 246.128126924 680.168945312 212.114257812 644.029296875 c 0,68,69
 179.295898438 605.6328125 179.295898438 605.6328125 179 530.5 c 2,0,-1
EndSplineSet
Validated: 524289
EndChar

StartChar: t
Encoding: 116 116 110
Width: 371
GlyphClass: 2
Flags: W
LayerCount: 2
Fore
SplineSet
106 130.018554688 m 2,0,-1
 106 461 l 1,1,-1
 18 461 l 1,2,-1
 18 523 l 1,3,-1
 106 523 l 1,4,-1
 106 647.149414062 l 1,5,-1
 184.941076028 655.959960938 l 1,6,-1
 184.941076028 523 l 1,7,-1
 330.200195312 523 l 1,8,-1
 320.966796875 461 l 1,9,-1
 184.941076028 461 l 1,10,-1
 184.941076028 132.92578125 l 2,11,12
 185.530299233 91.044921875 185.530299233 91.044921875 204.670549817 71.2216796875 c 0,13,14
 225.080928602 52.36328125 225.080928602 52.36328125 263.5 51.998046875 c 0,15,16
 302.009765625 52.55859375 302.009765625 52.55859375 339.76953125 73.3271484375 c 2,17,-1
 346.263671875 76.9453125 l 1,18,-1
 376.516601562 25.951171875 l 1,19,-1
 370.624023438 22.181640625 l 2,20,21
 318.120117188 -10.7099609375 318.120117188 -10.7099609375 256.497594362 -11 c 0,22,23
 184.041029195 -10.2607421875 184.041029195 -10.2607421875 142.675771245 25.6494140625 c 0,24,25
 106.328125 63.06640625 106.328125 63.06640625 106 130.018554688 c 2,0,-1
EndSplineSet
Validated: 524289
EndChar

StartChar: u
Encoding: 117 117 111
Width: 609
GlyphClass: 2
Flags: W
LayerCount: 2
Fore
SplineSet
503 523 m 1,0,-1
 503 0 l 1,1,-1
 438.23828125 0 l 1,2,-1
 435.771484375 76.455078125 l 1,3,4
 368.946058091 -10.4619140625 368.946058091 -10.4619140625 261.634854772 -11 c 0,5,6
 182.680497925 -10.2548828125 182.680497925 -10.2548828125 141.500976562 31.7021484375 c 0,7,8
 101.321289062 75.0654296875 101.321289062 75.0654296875 101 151.923828125 c 2,9,-1
 101 523 l 1,10,-1
 174 523 l 1,11,-1
 174 147.5 l 2,12,13
 174.56846473 89.4345703125 174.56846473 89.4345703125 199.059128631 62.998046875 c 0,14,15
 224.890041494 37.3623046875 224.890041494 37.3623046875 275.443983402 37 c 0,16,17
 367.013485477 38.4140625 367.013485477 38.4140625 430 138.526367188 c 1,18,-1
 430 523 l 1,19,-1
 503 523 l 1,0,-1
EndSplineSet
Validated: 524289
EndChar

StartChar: uacute
Encoding: 250 250 112
Width: 624
GlyphClass: 2
Flags: W
LayerCount: 2
Fore
SplineSet
390.462890625 785.7421875 m 1
 423.481445312 719.407226562 l 1
 215.004882812 628.533203125 l 1
 189 675.366210938 l 1
 390.462890625 785.7421875 l 1
EndSplineSet
Refer: 111 117 N 1 0 0 1 0 0 0
Validated: 524289
EndChar

StartChar: ucircumflex
Encoding: 251 251 113
Width: 624
GlyphClass: 2
Flags: W
LayerCount: 2
Fore
SplineSet
290.970703125 779 m 1
 329.635742188 779 l 1
 332.284179688 779 l 1
 470.290039062 669.19921875 l 1
 434.974609375 626.7734375 l 1
 311.653320312 712.694335938 l 1
 189.314453125 626.76953125 l 1
 154 669.1953125 l 1
 290.970703125 779 l 1
EndSplineSet
Refer: 111 117 N 1 0 0 1 0 0 0
Validated: 524289
EndChar

StartChar: udieresis
Encoding: 252 252 114
Width: 624
GlyphClass: 2
Flags: W
LayerCount: 2
Fore
SplineSet
214.5 742 m 0
 234.791992188 741.20703125 234.791992188 741.20703125 248.302734375 728.302734375 c 0
 261.592773438 713.864257812 261.592773438 713.864257812 262 694.5 c 0
 261.189453125 674.140625 261.189453125 674.140625 248.182617188 661.080078125 c 0
 233.76953125 648.387695312 233.76953125 648.387695312 214.5 648 c 0
 194.299804688 648.762695312 194.299804688 648.762695312 180.817382812 661.080078125 c 0
 167.415039062 675.060546875 167.415039062 675.060546875 167 694.5 c 0
 167.79296875 714.791992188 167.79296875 714.791992188 180.697265625 728.302734375 c 0
 195.135742188 741.592773438 195.135742188 741.592773438 214.5 742 c 0
403.5 742 m 0
 423.791992188 741.20703125 423.791992188 741.20703125 437.302734375 728.302734375 c 0
 450.592773438 713.864257812 450.592773438 713.864257812 451 694.5 c 0
 450.189453125 674.140625 450.189453125 674.140625 437.182617188 661.080078125 c 0
 422.76953125 648.387695312 422.76953125 648.387695312 403.5 648 c 0
 383.299804688 648.762695312 383.299804688 648.762695312 369.817382812 661.080078125 c 0
 356.415039062 675.060546875 356.415039062 675.060546875 356 694.5 c 0
 356.79296875 714.791992188 356.79296875 714.791992188 369.697265625 728.302734375 c 0
 384.135742188 741.592773438 384.135742188 741.592773438 403.5 742 c 0
EndSplineSet
Refer: 111 117 N 1 0 0 1 0 0 0
Validated: 524289
EndChar

StartChar: ugrave
Encoding: 249 249 115
Width: 624
GlyphClass: 2
Flags: W
LayerCount: 2
Fore
SplineSet
232.025390625 785.7421875 m 1
 433.33984375 675.447265625 l 1
 408.6328125 628.4765625 l 1
 199 719.388671875 l 1
 232.025390625 785.7421875 l 1
EndSplineSet
Refer: 111 117 N 1 0 0 1 0 0 0
Validated: 524289
EndChar

StartChar: v
Encoding: 118 118 116
Width: 500
GlyphClass: 2
Flags: W
LayerCount: 2
Fore
SplineSet
491.181640625 523 m 1,0,-1
 299.635690238 0 l 1,1,-1
 212.920705031 -0 l 1,2,-1
 15 523 l 1,3,-1
 95.037109375 523 l 1,4,-1
 256.153162436 67.267578125 l 1,5,-1
 413.215820312 523 l 1,6,-1
 491.181640625 523 l 1,0,-1
EndSplineSet
Validated: 524289
EndChar

StartChar: w
Encoding: 119 119 117
Width: 743
GlyphClass: 2
Flags: W
LayerCount: 2
Fore
SplineSet
722.169921875 523 m 1,0,-1
 575.499023438 -0 l 1,1,-1
 485.739257812 -0 l 1,2,-1
 375.549804688 445.508789062 l 1,3,-1
 248.459960938 0 l 1,4,-1
 159.756835938 0 l 1,5,-1
 25 523 l 1,6,-1
 100.55859375 523 l 1,7,-1
 206.922851562 69.052734375 l 1,8,-1
 337.784179688 523 l 1,9,-1
 415.465820312 523 l 1,10,-1
 529.327148438 68.501953125 l 1,11,-1
 649.649414062 523 l 1,12,-1
 722.169921875 523 l 1,0,-1
EndSplineSet
Validated: 524289
EndChar

StartChar: x
Encoding: 120 120 118
Width: 489
GlyphClass: 2
Flags: W
LayerCount: 2
Fore
SplineSet
251.453226845 320.819335938 m 1,0,-1
 383.7734375 523 l 1,1,-1
 467.922851562 523 l 1,2,-1
 297.005152619 279.467773438 l 1,3,-1
 490.860351562 0 l 1,4,-1
 402.788085938 0 l 1,5,-1
 248.453588205 236.255859375 l 1,6,-1
 95.1416015625 0 l 1,7,-1
 10 0 l 1,8,-1
 203.738177411 277.56640625 l 1,9,-1
 34.1025390625 523 l 1,10,-1
 120.159179688 523 l 1,11,-1
 251.453226845 320.819335938 l 1,0,-1
EndSplineSet
Validated: 524289
EndChar

StartChar: y
Encoding: 121 121 119
Width: 498
GlyphClass: 2
Flags: W
LayerCount: 2
Fore
SplineSet
207.593836421 -0 m 1,0,-1
 15 523 l 1,1,-1
 93.9814453125 523 l 1,2,-1
 254.056257041 59.7001953125 l 1,3,-1
 411.091796875 523 l 1,4,-1
 488.03515625 523 l 1,5,-1
 300.411047458 3.060546875 l 2,6,7
 277.753352368 -58.9658203125 277.753352368 -58.9658203125 251.313224465 -98.5400390625 c 0,8,9
 223.252493235 -139.120117188 223.252493235 -139.120117188 180.677060481 -165.329101562 c 0,10,11
 136.556878066 -191.5859375 136.556878066 -191.5859375 70.9619140625 -203.8671875 c 2,12,-1
 63.166015625 -205.352539062 l 1,13,-1
 55.2314453125 -145.84765625 l 1,14,15
 112.777778776 -131.68359375 112.777778776 -131.68359375 143.333480593 -113.190429688 c 0,16,17
 172.914360294 -94.3232421875 172.914360294 -94.3232421875 190.207971128 -68.083984375 c 0,18,19
 206.54418569 -42.232421875 206.54418569 -42.232421875 222.975729858 -0 c 1,20,-1
 213.191631974 -0 l 1,21,-1
 207.593836421 -0 l 1,0,-1
EndSplineSet
Validated: 524289
EndChar

StartChar: yacute
Encoding: 253 253 120
Width: 513
GlyphClass: 2
Flags: W
LayerCount: 2
Fore
SplineSet
340.515625 785.7421875 m 1
 373.534179688 719.407226562 l 1
 165.057617188 628.533203125 l 1
 139.052734375 675.366210938 l 1
 340.515625 785.7421875 l 1
EndSplineSet
Refer: 119 121 N 1 0 0 1 0 0 0
Validated: 524289
EndChar

StartChar: ydieresis
Encoding: 255 255 121
Width: 513
GlyphClass: 2
Flags: W
LayerCount: 2
Fore
SplineSet
164.552734375 742 m 0
 184.844726562 741.20703125 184.844726562 741.20703125 198.35546875 728.302734375 c 0
 211.645507812 713.864257812 211.645507812 713.864257812 212.052734375 694.5 c 0
 211.2421875 674.140625 211.2421875 674.140625 198.235351562 661.080078125 c 0
 183.822265625 648.387695312 183.822265625 648.387695312 164.552734375 648 c 0
 144.352539062 648.762695312 144.352539062 648.762695312 130.870117188 661.080078125 c 0
 117.467773438 675.060546875 117.467773438 675.060546875 117.052734375 694.5 c 0
 117.845703125 714.791992188 117.845703125 714.791992188 130.75 728.302734375 c 0
 145.188476562 741.592773438 145.188476562 741.592773438 164.552734375 742 c 0
353.552734375 742 m 0
 373.844726562 741.20703125 373.844726562 741.20703125 387.35546875 728.302734375 c 0
 400.645507812 713.864257812 400.645507812 713.864257812 401.052734375 694.5 c 0
 400.2421875 674.140625 400.2421875 674.140625 387.235351562 661.080078125 c 0
 372.822265625 648.387695312 372.822265625 648.387695312 353.552734375 648 c 0
 333.352539062 648.762695312 333.352539062 648.762695312 319.870117188 661.080078125 c 0
 306.467773438 675.060546875 306.467773438 675.060546875 306.052734375 694.5 c 0
 306.845703125 714.791992188 306.845703125 714.791992188 319.75 728.302734375 c 0
 334.188476562 741.592773438 334.188476562 741.592773438 353.552734375 742 c 0
EndSplineSet
Refer: 119 121 N 1 0 0 1 0 0 0
Validated: 524289
EndChar

StartChar: z
Encoding: 122 122 122
Width: 452
GlyphClass: 2
Flags: W
LayerCount: 2
Fore
SplineSet
52 523 m 1,0,-1
 418 523 l 1,1,-1
 418 471.963867188 l 1,2,-1
 418 469.71484375 l 1,3,-1
 117.6953125 63.1875 l 1,4,-1
 416.954101562 63.1875 l 1,5,-1
 409.154296875 0 l 1,6,-1
 28 0 l 1,7,-1
 28 50.8349609375 l 1,8,-1
 28 53.0751953125 l 1,9,-1
 328.3046875 458 l 1,10,-1
 52 458 l 1,11,-1
 52 523 l 1,0,-1
EndSplineSet
Validated: 524289
EndChar

StartChar: ordfeminine
Encoding: 170 170 123
Width: 530
GlyphClass: 2
Flags: W
LayerCount: 2
Fore
SplineSet
269.770992366 528.5 m 2,0,-1
 346 528.5 l 1,1,-1
 346 553.788085938 l 2,2,3
 345.390625 593.448242188 345.390625 593.448242188 324.899749523 610.036132812 c 0,4,5
 302.048067748 626.522460938 302.048067748 626.522460938 250.824427481 626.790039062 c 0,6,7
 196.609375 626.413085938 196.609375 626.413085938 127.928710938 603.883789062 c 1,8,-1
 107.921875 657.341796875 l 1,9,-1
 114.955078125 659.765625 l 2,10,11
 188.577148438 684.81640625 188.577148438 684.81640625 257.511450382 685 c 0,12,13
 343.175870706 684.4296875 343.175870706 684.4296875 380.513671875 653.104492188 c 0,14,15
 417.631835938 619.991210938 417.631835938 619.991210938 418 557.60546875 c 2,16,-1
 418 375 l 2,17,18
 418.3046875 347.451171875 418.3046875 347.451171875 424.821289062 336.53515625 c 0,19,20
 432.634765625 325.934570312 432.634765625 325.934570312 446.350585938 319.938476562 c 2,21,-1
 452.681640625 317.33203125 l 1,22,-1
 436.740234375 265.522460938 l 1,23,-1
 430.259765625 266.602539062 l 2,24,25
 398 272.522460938 398 272.522460938 379.958007812 288.44921875 c 0,26,27
 366.365234375 301.615234375 366.365234375 301.615234375 359.290039062 320.737304688 c 1,28,29
 308.124507991 266.928710938 308.124507991 266.928710938 219.618320611 266.5 c 0,30,31
 153.489257812 267.17578125 153.489257812 267.17578125 116.442382812 300.463867188 c 0,32,33
 79.408203125 335.551757812 79.408203125 335.551757812 79 392 c 0,34,35
 79.9794921875 457.90234375 79.9794921875 457.90234375 129.153320312 493.611328125 c 0,36,37
 178.990234375 528.244140625 178.990234375 528.244140625 269.770992366 528.5 c 2,0,-1
346 387.026367188 m 1,38,-1
 346 473.5 l 1,39,-1
 278.687022901 473.5 l 2,40,41
 219.379964814 473.122070312 219.379964814 473.122070312 188.40234375 457.44921875 c 0,42,43
 154.521484375 437.23828125 154.521484375 437.23828125 154 395 c 0,44,45
 154.724609375 361.28125 154.724609375 361.28125 173.03515625 344.056640625 c 0,46,47
 193.370117188 326.817382812 193.370117188 326.817382812 231.877862595 326.5 c 0,48,49
 306.366770038 327.689453125 306.366770038 327.689453125 346 387.026367188 c 1,38,-1
80 0 m 1,50,-1
 80 66 l 1,51,-1
 465 66 l 1,52,-1
 465 0 l 1,53,-1
 80 0 l 1,50,-1
EndSplineSet
Validated: 524289
EndChar

StartChar: ordmasculine
Encoding: 186 186 124
Width: 530
GlyphClass: 2
Flags: W
LayerCount: 2
Fore
SplineSet
264 685 m 0,0,1
 359.926757812 684.192382812 359.926757812 684.192382812 410.083007812 629.005859375 c 0,2,3
 459.68359375 572.455078125 459.68359375 572.455078125 460 473.5 c 0,4,5
 459.353515625 374.58203125 459.353515625 374.58203125 409.649414062 317.068359375 c 0,6,7
 358.014648438 259.416992188 358.014648438 259.416992188 262.890510949 259 c 0,8,9
 168.025390625 259.828125 168.025390625 259.828125 117.870117188 316.046875 c 0,10,11
 68.31640625 373.565429688 68.31640625 373.565429688 68 471.5 c 0,12,13
 68.650390625 569.424804688 68.650390625 569.424804688 118.350585938 626.931640625 c 0,14,15
 169.977539062 684.580078125 169.977539062 684.580078125 264 685 c 0,0,1
265.109489051 631.5 m 0,16,17
 204.695426551 630.610351562 204.695426551 630.610351562 173.387695312 593.85546875 c 0,18,19
 143.26953125 554.391601562 143.26953125 554.391601562 143 479 c 0,20,21
 143.512695312 403.5625 143.512695312 403.5625 172.922851562 365.098632812 c 0,22,23
 204.797274179 327.938476562 204.797274179 327.938476562 264 327.5 c 0,24,25
 324.363138686 328.393554688 324.363138686 328.393554688 355.077148438 365.098632812 c 0,26,27
 384.736328125 404.583984375 384.736328125 404.583984375 385 481 c 0,28,29
 384.498046875 557.390625 384.498046875 557.390625 355.596679688 594.875 c 0,30,31
 324.31979927 631.069335938 324.31979927 631.069335938 265.109489051 631.5 c 0,16,17
456 0 m 1,32,-1
 71 0 l 1,33,-1
 71 66 l 1,34,-1
 456 66 l 1,35,-1
 456 0 l 1,32,-1
EndSplineSet
Validated: 524289
EndChar

StartChar: zero
Encoding: 48 48 126
Width: 580
Flags: W
LayerCount: 2
Fore
SplineSet
290 676 m 0,0,1
 404.731445312 674.911132812 404.731445312 674.911132812 459.919921875 586.82421875 c 0,2,3
 513.795898438 498.501953125 513.795898438 498.501953125 514 332.010742188 c 0,4,5
 513.575195312 165.495117188 513.575195312 165.495117188 459.403320312 78.1494140625 c 0,6,7
 402.752929688 -10.443359375 402.752929688 -10.443359375 290 -11 c 0,8,9
 175.268554688 -9.9111328125 175.268554688 -9.9111328125 120.080078125 78.17578125 c 0,10,11
 66.2041015625 166.498046875 66.2041015625 166.498046875 66 332.989257812 c 0,12,13
 66.419921875 500.469726562 66.419921875 500.469726562 120.08984375 587.330078125 c 0,14,15
 176.250976562 675.448242188 176.250976562 675.448242188 290 676 c 0,0,1
290 620.5 m 0,16,17
 141.500976562 618.448242188 141.500976562 618.448242188 141 333 c 0,18,19
 141.955078125 45.4658203125 141.955078125 45.4658203125 290 44.5 c 0,20,21
 363.824886658 45.8232421875 363.824886658 45.8232421875 401.34375 112.45703125 c 0,22,23
 437.830078125 183.875 437.830078125 183.875 437.750976562 332.501953125 c 128,-1,24
 437.672851562 481.129882812 437.672851562 481.129882812 401.333984375 552.061523438 c 0,25,26
 362.686123705 619.87109375 362.686123705 619.87109375 290 620.5 c 0,16,17
EndSplineSet
Validated: 524833
Substitution2: "'frac' Diagonal Fractions lookup 11 subtable" zero.numr
Substitution2: "'dnom' Denominators lookup 9 subtable" zero.dnom
Substitution2: "'numr' Numerators lookup 8 subtable" zero.numr
EndChar

StartChar: one
Encoding: 49 49 127
Width: 428
Flags: W
LayerCount: 2
Fore
SplineSet
250.237304688 665 m 1,0,-1
 309.868164062 665 l 1,1,-1
 309.868164062 0 l 1,2,-1
 236.868164062 0 l 1,3,-1
 236.868164062 581.877929688 l 1,4,-1
 77.9873046875 485.2421875 l 1,5,-1
 43 539.734375 l 1,6,-1
 250.237304688 665 l 1,0,-1
EndSplineSet
Validated: 524801
Substitution2: "'frac' Diagonal Fractions lookup 11 subtable" one.numr
Substitution2: "'dnom' Denominators lookup 9 subtable" one.dnom
Substitution2: "'numr' Numerators lookup 8 subtable" one.numr
EndChar

StartChar: two
Encoding: 50 50 128
Width: 509
Flags: W
LayerCount: 2
Fore
SplineSet
139.178710938 66 m 1,0,-1
 460.51953125 66 l 1,1,-1
 450.166992188 0 l 1,2,-1
 46.25 0 l 1,3,-1
 46.25 58.04296875 l 1,4,5
 187.247312104 201.858398438 187.247312104 201.858398438 251.807061963 270.690429688 c 128,-1,6
 316.366811822 339.522460938 316.366811822 339.522460938 342.473632812 388.688476562 c 0,7,8
 366.03125 438.0625 366.03125 438.0625 366.25 493.40625 c 0,9,10
 365.530273438 548.114257812 365.530273438 548.114257812 333.335493055 580.020507812 c 0,11,12
 298.23157356 612 298.23157356 612 239.683997509 612 c 0,13,14
 191.39872661 611.540039062 191.39872661 611.540039062 154.936123769 593.8828125 c 0,15,16
 120.125 574.713867188 120.125 574.713867188 89.4892578125 538.673828125 c 2,17,-1
 84.9208984375 533.248046875 l 1,18,-1
 33 572.188476562 l 1,19,-1
 37.9375 578.23828125 l 2,20,21
 79.5908203125 628.475585938 79.5908203125 628.475585938 126.932617188 652.2265625 c 0,22,23
 177.635688898 675.784179688 177.635688898 675.784179688 242.944837541 676 c 0,24,25
 337.722554205 675.279296875 337.722554205 675.279296875 389.525390625 626.057617188 c 0,26,27
 440.856445312 575.287109375 440.856445312 575.287109375 441.25 497.879882812 c 0,28,29
 440.809570312 432.401367188 440.809570312 432.401367188 413.532226562 375.680664062 c 0,30,31
 385.415039062 318.573242188 385.415039062 318.573242188 327.737293079 253.159179688 c 0,32,33
 266.15709334 187.74609375 266.15709334 187.74609375 139.178710938 66 c 1,0,-1
EndSplineSet
Validated: 524801
Substitution2: "'frac' Diagonal Fractions lookup 11 subtable" two.numr
Substitution2: "'dnom' Denominators lookup 9 subtable" two.dnom
Substitution2: "'numr' Numerators lookup 8 subtable" two.numr
EndChar

StartChar: three
Encoding: 51 51 129
Width: 516
Flags: W
LayerCount: 2
Fore
SplineSet
337.748046875 293.913085938 m 0,0,1
 298.913068869 319.239257812 298.913068869 319.239257812 230.446413444 319.5 c 2,2,-1
 173.178489674 319.5 l 1,3,-1
 184.606694866 381.5 l 1,4,-1
 226.114968227 381.5 l 2,5,6
 285.087552566 382.188476562 285.087552566 382.188476562 325.852416261 413.369140625 c 0,7,8
 363.627929688 445.774414062 363.627929688 445.774414062 364.025390625 503.8828125 c 0,9,10
 363.23828125 554.452148438 363.23828125 554.452148438 331.043594136 583.850585938 c 0,11,12
 294.511829856 613.254882812 294.511829856 613.254882812 235.860719966 613.58984375 c 0,13,14
 191.607224002 613.2265625 191.607224002 613.2265625 155.583050959 600.002929688 c 0,15,16
 120.083007812 585.64453125 120.083007812 585.64453125 85.5908203125 555.05078125 c 2,17,-1
 79.890625 549.955078125 l 1,18,-1
 39.18359375 596.053710938 l 1,19,-1
 44.3623046875 600.8515625 l 2,20,21
 85.935546875 638.82421875 85.935546875 638.82421875 130.624023438 657.390625 c 0,22,23
 179.69363469 675.817382812 179.69363469 675.817382812 239.10930388 676 c 0,24,25
 302.077054242 675.556640625 302.077054242 675.556640625 347.530273438 653.620117188 c 0,26,27
 390.95703125 630.297851562 390.95703125 630.297851562 413.999023438 592.607421875 c 0,28,29
 436.766601562 553.552734375 436.766601562 553.552734375 437.025390625 506.20703125 c 0,30,31
 436.329101562 439.62890625 436.329101562 439.62890625 398.59765625 398.05078125 c 0,32,33
 371.637695312 369.59765625 371.637695312 369.59765625 335.423683513 355.7734375 c 1,34,35
 379.799804688 344.365234375 379.799804688 344.365234375 411.389648438 313.162109375 c 0,36,37
 455.670898438 267.5859375 455.670898438 267.5859375 456.025390625 191.087890625 c 0,38,39
 455.520507812 132.052734375 455.520507812 132.052734375 429.024414062 86.6240234375 c 0,40,41
 400.994140625 40.6650390625 400.994140625 40.6650390625 351.5078125 14.7939453125 c 0,42,43
 297.763586214 -10.7783203125 297.763586214 -10.7783203125 228.280690835 -11 c 0,44,45
 101.9453125 -10.1240234375 101.9453125 -10.1240234375 24.87109375 75.6083984375 c 2,46,-1
 20 81.0712890625 l 1,47,-1
 68.0478515625 122.973632812 l 1,48,-1
 73.048828125 117.65234375 l 2,49,50
 106.547851562 82.6376953125 106.547851562 82.6376953125 141.200241778 67.06640625 c 0,51,52
 179.85754436 51.775390625 179.85754436 51.775390625 226.114968227 51.580078125 c 0,53,54
 300.817593487 52.275390625 300.817593487 52.275390625 342.223632812 89.521484375 c 0,55,56
 380.653320312 128.323242188 380.653320312 128.323242188 381.025390625 189.940429688 c 0,57,58
 380.2265625 262.245117188 380.2265625 262.245117188 337.748046875 293.913085938 c 0,0,1
EndSplineSet
Validated: 524801
Substitution2: "'frac' Diagonal Fractions lookup 11 subtable" three.numr
Substitution2: "'dnom' Denominators lookup 9 subtable" three.dnom
Substitution2: "'numr' Numerators lookup 8 subtable" three.numr
EndChar

StartChar: four
Encoding: 52 52 130
Width: 548
Flags: W
LayerCount: 2
Fore
SplineSet
423 230.5 m 1,0,-1
 513 230.5 l 1,1,-1
 513 167.5 l 1,2,-1
 423 167.5 l 1,3,-1
 423 0 l 1,4,-1
 351 0 l 1,5,-1
 351 167.5 l 1,6,-1
 45 167.5 l 1,7,-1
 45 218.8359375 l 1,8,-1
 257.690856074 678.196289062 l 1,9,-1
 324.987400968 652.958984375 l 1,10,-1
 125.982421875 230.5 l 1,11,-1
 351.264648438 230.5 l 1,12,-1
 355.818496919 425.5 l 1,13,-1
 423 425.5 l 1,14,-1
 423 230.5 l 1,0,-1
EndSplineSet
Validated: 524801
Substitution2: "'frac' Diagonal Fractions lookup 11 subtable" four.numr
Substitution2: "'dnom' Denominators lookup 9 subtable" four.dnom
Substitution2: "'numr' Numerators lookup 8 subtable" four.numr
EndChar

StartChar: five
Encoding: 53 53 131
Width: 517
Flags: W
LayerCount: 2
Fore
SplineSet
194.79082764 358.216796875 m 0,0,1
 168.56739708 350.909179688 168.56739708 350.909179688 137.5546875 334.336914062 c 1,2,-1
 82.076171875 334.336914062 l 1,3,-1
 82.076171875 665 l 1,4,-1
 448.614257812 665 l 1,5,-1
 436.801757812 602 l 1,6,-1
 153.076171875 602 l 1,7,-1
 153.076171875 399.948242188 l 1,8,9
 209.42593085 425.0859375 209.42593085 425.0859375 268.370464655 425.323242188 c 0,10,11
 363.997070312 424.528320312 363.997070312 424.528320312 416.625 368.751953125 c 0,12,13
 468.745117188 311.622070312 468.745117188 311.622070312 469.076171875 215.946289062 c 0,14,15
 468.622070312 150.404296875 468.622070312 150.404296875 441.75 98.88671875 c 0,16,17
 413.376953125 46.658203125 413.376953125 46.658203125 363.868164062 17.8232421875 c 0,18,19
 309.908175544 -10.7548828125 309.908175544 -10.7548828125 239.1214164 -11 c 0,20,21
 118.165039062 -10.171875 118.165039062 -10.171875 39.1728515625 69.5146484375 c 2,22,-1
 34 74.7724609375 l 1,23,-1
 80.8134765625 119.297851562 l 1,24,-1
 86.0380859375 113.8671875 l 2,25,26
 117.578125 81.7138671875 117.578125 81.7138671875 151.616210938 66.634765625 c 0,27,28
 189.633524752 51.794921875 189.633524752 51.794921875 239.1214164 51.6103515625 c 0,29,30
 312.436576344 52.431640625 312.436576344 52.431640625 353.897460938 95.533203125 c 0,31,32
 392.762695312 140.834960938 392.762695312 140.834960938 393.076171875 217.431640625 c 0,33,34
 392.471679688 292.749023438 392.471679688 292.749023438 357.637695312 329.287109375 c 0,35,36
 319.140541144 365.26953125 319.140541144 365.26953125 254.287589569 365.642578125 c 0,37,38
 220.527620389 365.388671875 220.527620389 365.388671875 194.79082764 358.216796875 c 0,0,1
EndSplineSet
Validated: 524801
Substitution2: "'frac' Diagonal Fractions lookup 11 subtable" five.numr
Substitution2: "'dnom' Denominators lookup 9 subtable" five.dnom
Substitution2: "'numr' Numerators lookup 8 subtable" five.numr
EndChar

StartChar: six
Encoding: 54 54 132
Width: 554
Flags: W
LayerCount: 2
Fore
SplineSet
313.184065934 438.192382812 m 0,0,1
 398.928710938 437.37109375 398.928710938 437.37109375 450.979492188 383.504882812 c 0,2,3
 502.681640625 328.10546875 502.681640625 328.10546875 503 226.318359375 c 0,4,5
 502.588867188 154.885742188 502.588867188 154.885742188 476.774414062 101.327148438 c 0,6,7
 449.575195312 47.029296875 449.575195312 47.029296875 404.037109375 18.0458984375 c 0,8,9
 354.892025455 -10.7236328125 354.892025455 -10.7236328125 292.618131868 -11 c 0,10,11
 170.310546875 -9.970703125 170.310546875 -9.970703125 117.557617188 75.2763671875 c 0,12,13
 66.220703125 160.555664062 66.220703125 160.555664062 66 300.694335938 c 0,14,15
 66.291015625 414.732421875 66.291015625 414.732421875 95.3994140625 498.7890625 c 0,16,17
 125.682617188 583.951171875 125.682617188 583.951171875 180.671875 629.747070312 c 0,18,19
 241.730763865 675.65234375 241.730763865 675.65234375 324.008241758 676 c 0,20,21
 398.193359375 675.388671875 398.193359375 675.388671875 456.727539062 636.555664062 c 2,22,-1
 462.672851562 632.57421875 l 1,23,-1
 429.825195312 581.141601562 l 1,24,-1
 423.438476562 585.177734375 l 2,25,26
 376.213749141 614.047851562 376.213749141 614.047851562 322.925824176 614.345703125 c 0,27,28
 239.721314818 613.098632812 239.721314818 613.098632812 190.283160199 538.682617188 c 0,29,30
 147.60546875 467.661132812 147.60546875 467.661132812 140.962890625 358.40625 c 1,31,32
 209.360770089 437.697265625 209.360770089 437.697265625 313.184065934 438.192382812 c 0,0,1
292.618131868 44.5 m 0,33,34
 359.918290694 45.4912109375 359.918290694 45.4912109375 394.860351562 91.8056640625 c 0,35,36
 428.736328125 141.258789062 428.736328125 141.258789062 429 222 c 0,37,38
 428.461914062 302.171875 428.461914062 302.171875 396.319335938 340.10546875 c 0,39,40
 361.541917067 377.076171875 361.541917067 377.076171875 304.524725275 377.5 c 0,41,42
 252.592993432 376.856445312 252.592993432 376.856445312 210.178925567 349.3828125 c 0,43,44
 168.653320312 320.446289062 168.653320312 320.446289062 140.056640625 273.040039062 c 1,45,46
 143.663085938 160.544921875 143.663085938 160.544921875 177.963867188 101.803710938 c 0,47,48
 215.065660414 45.021484375 215.065660414 45.021484375 292.618131868 44.5 c 0,33,34
EndSplineSet
Validated: 524801
Substitution2: "'frac' Diagonal Fractions lookup 11 subtable" six.numr
Substitution2: "'dnom' Denominators lookup 9 subtable" six.dnom
Substitution2: "'numr' Numerators lookup 8 subtable" six.numr
EndChar

StartChar: seven
Encoding: 55 55 133
Width: 467
Flags: W
LayerCount: 2
Fore
SplineSet
30 665 m 1,0,-1
 431 665 l 1,1,-1
 431 612.169921875 l 1,2,-1
 150.815208958 -9.8203125 l 1,3,-1
 82.4345703125 12.40234375 l 1,4,-1
 352.188476562 601 l 1,5,-1
 30 601 l 1,6,-1
 30 665 l 1,0,-1
EndSplineSet
Validated: 524801
Substitution2: "'frac' Diagonal Fractions lookup 11 subtable" seven.numr
Substitution2: "'dnom' Denominators lookup 9 subtable" seven.dnom
Substitution2: "'numr' Numerators lookup 8 subtable" seven.numr
EndChar

StartChar: eight
Encoding: 56 56 134
Width: 568
Flags: W
LayerCount: 2
Fore
SplineSet
375.578351449 352.3984375 m 1,0,1
 444.458984375 322.953125 444.458984375 322.953125 477.701171875 285.399414062 c 0,2,3
 514.66796875 241.934570312 514.66796875 241.934570312 515 176.408203125 c 0,4,5
 514.430664062 120.088867188 514.430664062 120.088867188 486.256835938 77.9228515625 c 0,6,7
 456.666015625 35.51953125 456.666015625 35.51953125 406.154296875 12.1884765625 c 0,8,9
 351.539034194 -10.8037109375 351.539034194 -10.8037109375 281.855072464 -11 c 0,10,11
 211.083984375 -10.5986328125 211.083984375 -10.5986328125 158.79296875 12.212890625 c 0,12,13
 108.280273438 36.408203125 108.280273438 36.408203125 80.673828125 78.02734375 c 0,14,15
 53.275390625 121.111328125 53.275390625 121.111328125 53 175.4296875 c 0,16,17
 54.4072265625 298.500976562 54.4072265625 298.500976562 186.239271966 356.916015625 c 1,18,19
 136.038085938 382.108398438 136.038085938 382.108398438 111.067382812 413.15234375 c 0,20,21
 82.30078125 450.658203125 82.30078125 450.658203125 82 506.20703125 c 0,22,23
 82.583984375 558.662109375 82.583984375 558.662109375 109.305664062 597.443359375 c 0,24,25
 137.353515625 636.344726562 137.353515625 636.344726562 182.017493207 656.265625 c 0,26,27
 230.344344429 675.793945312 230.344344429 675.793945312 284 676 c 0,28,29
 338.682036911 675.59765625 338.682036911 675.59765625 385.911288496 656.783203125 c 0,30,31
 431.543945312 636.609375 431.543945312 636.609375 459.1015625 599.530273438 c 0,32,33
 486.708007812 560.67578125 486.708007812 560.67578125 487 507.185546875 c 0,34,35
 486.352539062 453.541992188 486.352539062 453.541992188 456.436523438 415.114257812 c 0,36,37
 428.802734375 381.0859375 428.802734375 381.0859375 375.578351449 352.3984375 c 1,0,1
155 509 m 0,38,39
 155.704101562 463.956054688 155.704101562 463.956054688 180.883237092 438.25390625 c 0,40,41
 210.335144928 411.23046875 210.335144928 411.23046875 280.337494339 387.041992188 c 2,42,-1
 310.133973053 377.18359375 l 1,43,44
 366.130406476 406.0859375 366.130406476 406.0859375 390.755180027 435.553710938 c 0,45,46
 413.692382812 466.326171875 413.692382812 466.326171875 414 509 c 0,47,48
 413.217773438 562.752929688 413.217773438 562.752929688 379.965608016 592.428710938 c 0,49,50
 343.226392663 622.166992188 343.226392663 622.166992188 284 622.5 c 0,51,52
 225.748669611 621.82421875 225.748669611 621.82421875 189.60119452 592.393554688 c 0,53,54
 155.39453125 561.68359375 155.39453125 561.68359375 155 509 c 0,38,39
282.927536232 45.5 m 0,55,56
 356.28552423 46.1123046875 356.28552423 46.1123046875 399.196289062 79.2578125 c 0,57,58
 438.583984375 113.4609375 438.583984375 113.4609375 439 173 c 0,59,60
 438.564453125 211.206054688 438.564453125 211.206054688 424.96875 235.813476562 c 0,61,62
 409.869140625 260.94921875 409.869140625 260.94921875 380.537449049 279.146484375 c 0,63,64
 346.982110507 298.5 346.982110507 298.5 288.686792346 318.974609375 c 2,65,-1
 255.081182065 330.956054688 l 1,66,67
 187.645833333 305.42578125 187.645833333 305.42578125 157.995117188 267.994140625 c 0,68,69
 129.299804688 228.6875 129.299804688 228.6875 129 172 c 0,70,71
 129.834960938 111.439453125 129.834960938 111.439453125 168.296875 78.763671875 c 0,72,73
 211.723901721 45.8095703125 211.723901721 45.8095703125 282.927536232 45.5 c 0,55,56
EndSplineSet
Validated: 524801
Substitution2: "'frac' Diagonal Fractions lookup 11 subtable" eight.numr
Substitution2: "'dnom' Denominators lookup 9 subtable" eight.dnom
Substitution2: "'numr' Numerators lookup 8 subtable" eight.numr
EndChar

StartChar: nine
Encoding: 57 57 135
Width: 548
Flags: W
LayerCount: 2
Fore
SplineSet
333.055080307 150.104492188 m 0,0,1
 398.544921875 213.157226562 398.544921875 213.157226562 410.866210938 316.091796875 c 1,2,3
 344.905955395 242.790039062 344.905955395 242.790039062 247.240223464 242.334960938 c 0,4,5
 188.212345059 242.870117188 188.212345059 242.870117188 144.546875 268.400390625 c 0,6,7
 101.646484375 295.390625 101.646484375 295.390625 77.2734375 342.852539062 c 0,8,9
 53.208984375 391.580078125 53.208984375 391.580078125 53 455.251953125 c 0,10,11
 53.4599609375 521.987304688 53.4599609375 521.987304688 80.3828125 571.775390625 c 0,12,13
 108.755859375 622.133789062 108.755859375 622.133789062 155.764648438 649.083007812 c 0,14,15
 206.756524965 675.75 206.756524965 675.75 270 676 c 0,16,17
 382.346679688 675.086914062 382.346679688 675.086914062 435.1015625 603.912109375 c 0,18,19
 486.747070312 532.088867188 486.747070312 532.088867188 487 406.305664062 c 0,20,21
 486.646484375 278.271484375 486.646484375 278.271484375 449.33984375 196.73828125 c 0,22,23
 410.66796875 114.469726562 410.66796875 114.469726562 335.821730971 65.4521484375 c 0,24,25
 255.967767982 16.4794921875 255.967767982 16.4794921875 125.701171875 -20.8251953125 c 1,26,-1
 105.948242188 37.185546875 l 1,27,-1
 113.31640625 39.380859375 l 2,28,29
 255.957184008 80.435546875 255.957184008 80.435546875 333.055080307 150.104492188 c 0,0,1
345.096466917 327.706054688 m 0,30,31
 382.7109375 352.85546875 382.7109375 352.85546875 413.015625 398.266601562 c 0,32,33
 413.028320312 401.630859375 413.028320312 401.630859375 413.028320312 402.749023438 c 0,34,35
 412.650390625 514.486328125 412.650390625 514.486328125 381.069335938 567.640625 c 0,36,37
 346.597274354 619.994140625 346.597274354 619.994140625 272.167597765 620.5 c 0,38,39
 203.152682001 619.666015625 203.152682001 619.666015625 164.673828125 578.596679688 c 0,40,41
 128.303710938 535.243164062 128.303710938 535.243164062 128 457 c 0,42,43
 128.579101562 382.693359375 128.579101562 382.693359375 161.73046875 342.836914062 c 0,44,45
 197.803541812 303.926757812 197.803541812 303.926757812 258.078212291 303.5 c 0,46,47
 306.883030726 304.099609375 306.883030726 304.099609375 345.096466917 327.706054688 c 0,30,31
EndSplineSet
Validated: 524801
Substitution2: "'frac' Diagonal Fractions lookup 11 subtable" nine.numr
Substitution2: "'dnom' Denominators lookup 9 subtable" nine.dnom
Substitution2: "'numr' Numerators lookup 8 subtable" nine.numr
EndChar

StartChar: uni00B9
Encoding: 185 185 136
Width: 400
Flags: W
LayerCount: 2
Fore
SplineSet
265.5 744.5 m 1,0,-1
 265.5 315.5 l 1,1,-1
 199.5 315.5 l 1,2,-1
 199.5 668.951258165 l 1,3,-1
 101.555541827 611.896233987 l 1,4,-1
 70.5085452814 660.491532928 l 1,5,-1
 211.940521491 744.5 l 1,6,-1
 214 744.5 l 1,7,-1
 265.5 744.5 l 1,0,-1
EndSplineSet
Validated: 1
EndChar

StartChar: uni00B2
Encoding: 178 178 137
Width: 400
Flags: W
LayerCount: 2
Fore
SplineSet
342.820625477 373.5 m 1,0,-1
 333.378765012 315.5 l 1,1,-1
 67.5 315.5 l 1,2,-1
 67.5 367.104521875 l 1,3,4
 154.903040185 454.50756206 154.903040185 454.50756206 193.289832303 496.529156619 c 128,-1,5
 231.676624421 538.550751178 231.676624421 538.550751178 246.832296554 567.435096882 c 0,6,7
 261.256127011 596.372466715 261.256127011 596.372466715 261.5 626 c 0,8,9
 260.779120622 657.865176707 260.779120622 657.865176707 243.332935287 675.065880455 c 0,10,11
 224.069875721 692.15886956 224.069875721 692.15886956 193 692.5 c 0,12,13
 165.539042285 692.07725406 165.539042285 692.07725406 145.908589275 682.318667806 c 0,14,15
 125.243041728 671.126776936 125.243041728 671.126776936 106.661085443 650.082467126 c 2,16,-1
 102.10200546 644.839525145 l 1,17,-1
 55.1236270249 679.737749125 l 1,18,-1
 60.2657858475 685.832159582 l 2,19,20
 88.965295491 719.068600954 88.965295491 719.068600954 121.823364162 734.79499241 c 0,21,22
 155.983601859 750.29433207 155.983601859 750.29433207 197 750.5 c 0,23,24
 257.096489024 749.790251908 257.096489024 749.790251908 293.137984102 716.461635196 c 0,25,26
 329.077837031 681.445690112 329.077837031 681.445690112 329.5 630 c 0,27,28
 329.028249102 589.80195623 329.028249102 589.80195623 311.692558121 555.113442063 c 0,29,30
 293.485768432 520.078291109 293.485768432 520.078291109 257.525960611 480.218293934 c 128,-1,31
 221.566152791 440.358296758 221.566152791 440.358296758 153.401305662 373.5 c 1,32,-1
 342.820625477 373.5 l 1,0,-1
EndSplineSet
Validated: 1
EndChar

StartChar: uni00B3
Encoding: 179 179 138
Width: 400
Flags: W
LayerCount: 2
Fore
SplineSet
332.5 640 m 0,0,1
 331.33284947 573.194861057 331.33284947 573.194861057 270.532358712 545.172390213 c 1,2,3
 295.551535058 536.842113502 295.551535058 536.842113502 313.753020763 519.351051441 c 0,4,5
 343.129612834 489.275583939 343.129612834 489.275583939 343.5 440 c 0,6,7
 342.638975831 381.499291183 342.638975831 381.499291183 302.006126728 344.417178794 c 0,8,9
 260.008241478 307.831090164 260.008241478 307.831090164 192 307.5 c 0,10,11
 110.510329666 308.363118497 110.510329666 308.363118497 57.4541898279 365.952934275 c 2,12,-1
 52.3861539378 371.517836428 l 1,13,-1
 94.3268774475 409.399780244 l 1,14,-1
 99.3662405976 404.237505797 l 2,15,16
 138.86747344 364.929228536 138.86747344 364.929228536 189 364.5 c 0,17,18
 231.083133042 365.132231627 231.083133042 365.132231627 253.369032949 385.468231051 c 0,19,20
 275.114082188 407.148156274 275.114082188 407.148156274 275.5 441 c 0,21,22
 274.666063805 481.489910647 274.666063805 481.489910647 250.606140638 499.058666202 c 0,23,24
 229.110584288 513.247767597 229.110584288 513.247767597 192 513.5 c 2,25,-1
 153.032913138 513.5 l 1,26,-1
 162.72522083 567.5 l 1,27,-1
 189 567.5 l 2,28,29
 221.675368579 568.125875889 221.675368579 568.125875889 243.909631237 584.929839214 c 0,30,31
 265.083209049 602.71126791 265.083209049 602.71126791 265.5 635 c 0,32,33
 264.685277102 663.655195354 264.685277102 663.655195354 247.123144595 679.30379627 c 0,34,35
 227.313609127 695.185735059 227.313609127 695.185735059 196 695.5 c 0,36,37
 170.134757548 695.140418511 170.134757548 695.140418511 149.835024403 687.055175737 c 0,38,39
 128.329733444 677.813097224 128.329733444 677.813097224 105.796784385 659.236122739 c 2,40,-1
 100.164209336 654.542310199 l 1,41,-1
 63.3812585039 696.774587081 l 1,42,-1
 69.1231445949 701.69620373 l 2,43,44
 98.624441532 726.511188771 98.624441532 726.511188771 129.218933168 738.966652177 c 0,45,46
 161.199510375 751.323626999 161.199510375 751.323626999 199 751.5 c 0,47,48
 259.880629599 750.860059087 259.880629599 750.860059087 295.862927697 720.708112475 c 0,49,50
 332.042176293 688.643380229 332.042176293 688.643380229 332.5 640 c 0,0,1
EndSplineSet
Validated: 1
EndChar

StartChar: onehalf
Encoding: 189 189 139
Width: 914
Flags: W
LayerCount: 2
Fore
SplineSet
265.5 692.5 m 1,0,-1
 265.5 263.5 l 1,1,-1
 199.5 263.5 l 1,2,-1
 199.5 616.951258165 l 1,3,-1
 101.555541827 559.896233987 l 1,4,-1
 70.5085452814 608.491532928 l 1,5,-1
 211.940521491 692.5 l 1,6,-1
 214 692.5 l 1,7,-1
 265.5 692.5 l 1,0,-1
856.820625477 50.5 m 1,8,-1
 847.378765012 -7.5 l 1,9,-1
 581.5 -7.5 l 1,10,-1
 581.5 44.104521875 l 1,11,12
 668.903040185 131.50756206 668.903040185 131.50756206 707.289832303 173.529156619 c 128,-1,13
 745.676624421 215.550751178 745.676624421 215.550751178 760.832296554 244.435096882 c 0,14,15
 775.256127011 273.372466715 775.256127011 273.372466715 775.5 303 c 0,16,17
 774.779120622 334.865176707 774.779120622 334.865176707 757.332935287 352.065880455 c 0,18,19
 739.004758329 369.5 739.004758329 369.5 707 369.5 c 0,20,21
 679.539042285 369.07725406 679.539042285 369.07725406 659.908589275 359.318667806 c 0,22,23
 639.243041728 348.126776936 639.243041728 348.126776936 620.661085443 327.082467126 c 2,24,-1
 616.10200546 321.839525145 l 1,25,-1
 569.123627025 356.737749125 l 1,26,-1
 574.265785847 362.832159582 l 2,27,28
 602.965295491 396.068600954 602.965295491 396.068600954 635.823364162 411.79499241 c 0,29,30
 669.983601859 427.29433207 669.983601859 427.29433207 711 427.5 c 0,31,32
 771.096489024 426.790251908 771.096489024 426.790251908 807.137984102 393.461635196 c 0,33,34
 843.077837031 358.445690112 843.077837031 358.445690112 843.5 307 c 0,35,36
 843.028249102 266.80195623 843.028249102 266.80195623 825.692558121 232.113442063 c 0,37,38
 807.485768432 197.078291109 807.485768432 197.078291109 771.525960611 157.218293934 c 128,-1,39
 735.566152791 117.358296758 735.566152791 117.358296758 667.401305662 50.5 c 1,40,-1
 856.820625477 50.5 l 1,8,-1
637.638057291 756.900925223 m 1,41,-1
 691.183578814 731.4668025 l 1,42,-1
 277.337264949 -80.9735040792 l 1,43,-1
 222.842374556 -54.3906307164 l 1,44,-1
 637.638057291 756.900925223 l 1,41,-1
EndSplineSet
Validated: 1
EndChar

StartChar: onequarter
Encoding: 188 188 140
Width: 914
Flags: W
LayerCount: 2
Fore
SplineSet
265.5 692.5 m 1,0,-1
 265.5 263.5 l 1,1,-1
 199.5 263.5 l 1,2,-1
 199.5 616.951258165 l 1,3,-1
 101.555541827 559.896233987 l 1,4,-1
 70.5085452814 608.491532928 l 1,5,-1
 211.940521491 692.5 l 1,6,-1
 214 692.5 l 1,7,-1
 265.5 692.5 l 1,0,-1
868.5 152.5 m 1,8,-1
 868.5 95.5 l 1,9,-1
 812.5 95.5 l 1,10,-1
 812.5 -7.5 l 1,11,-1
 747.5 -7.5 l 1,12,-1
 747.5 95.5 l 1,13,-1
 558.5 95.5 l 1,14,-1
 558.5 141.652959438 l 1,15,-1
 692.144755433 430.531238489 l 1,16,-1
 750.171892226 408.11166291 l 1,17,-1
 631.741778137 152.5 l 1,18,-1
 747.818883825 152.5 l 1,19,-1
 752.818883825 267.5 l 1,20,-1
 812.5 267.5 l 1,21,-1
 812.5 152.5 l 1,22,-1
 868.5 152.5 l 1,8,-1
637.638057291 756.900925223 m 1,23,-1
 691.183578814 731.4668025 l 1,24,-1
 277.337264949 -80.9735040792 l 1,25,-1
 222.842374556 -54.3906307164 l 1,26,-1
 637.638057291 756.900925223 l 1,23,-1
EndSplineSet
Validated: 1
EndChar

StartChar: threequarters
Encoding: 190 190 141
Width: 914
Flags: W
LayerCount: 2
Fore
SplineSet
332.5 588 m 0,0,1
 331.33284947 521.194861057 331.33284947 521.194861057 270.532358712 493.172390213 c 1,2,3
 295.551535058 484.842113502 295.551535058 484.842113502 313.753020763 467.351051441 c 0,4,5
 343.129612834 437.275583939 343.129612834 437.275583939 343.5 388 c 0,6,7
 342.638975831 329.499291183 342.638975831 329.499291183 302.006126728 292.417178794 c 0,8,9
 260.008241478 255.831090164 260.008241478 255.831090164 192 255.5 c 0,10,11
 110.510329666 256.363118497 110.510329666 256.363118497 57.4541898279 313.952934275 c 2,12,-1
 52.3861539378 319.517836428 l 1,13,-1
 94.3268774475 357.399780244 l 1,14,-1
 99.3662405976 352.237505797 l 2,15,16
 138.86747344 312.929228536 138.86747344 312.929228536 189 312.5 c 0,17,18
 231.083133042 313.132231627 231.083133042 313.132231627 253.369032949 333.468231051 c 0,19,20
 275.114082188 355.148156274 275.114082188 355.148156274 275.5 389 c 0,21,22
 274.666063805 429.489910647 274.666063805 429.489910647 250.606140638 447.058666202 c 0,23,24
 229.110584288 461.247767597 229.110584288 461.247767597 192 461.5 c 2,25,-1
 153.032913138 461.5 l 1,26,-1
 162.72522083 515.5 l 1,27,-1
 189 515.5 l 2,28,29
 221.675368579 516.125875889 221.675368579 516.125875889 243.909631237 532.929839214 c 0,30,31
 265.083209049 550.71126791 265.083209049 550.71126791 265.5 583 c 0,32,33
 264.685277102 611.655195354 264.685277102 611.655195354 247.123144595 627.30379627 c 0,34,35
 227.313609127 643.185735059 227.313609127 643.185735059 196 643.5 c 0,36,37
 170.134757548 643.140418511 170.134757548 643.140418511 149.835024403 635.055175737 c 0,38,39
 128.329733444 625.813097224 128.329733444 625.813097224 105.796784385 607.236122739 c 2,40,-1
 100.164209336 602.542310199 l 1,41,-1
 63.3812585039 644.774587081 l 1,42,-1
 69.1231445949 649.69620373 l 2,43,44
 98.624441532 674.511188771 98.624441532 674.511188771 129.218933168 686.966652177 c 0,45,46
 161.199510375 699.323626999 161.199510375 699.323626999 199 699.5 c 0,47,48
 259.880629599 698.860059087 259.880629599 698.860059087 295.862927697 668.708112475 c 0,49,50
 332.042176293 636.643380229 332.042176293 636.643380229 332.5 588 c 0,0,1
868.5 152.5 m 1,51,-1
 868.5 95.5 l 1,52,-1
 812.5 95.5 l 1,53,-1
 812.5 -7.5 l 1,54,-1
 747.5 -7.5 l 1,55,-1
 747.5 95.5 l 1,56,-1
 558.5 95.5 l 1,57,-1
 558.5 141.652959438 l 1,58,-1
 692.144755433 430.531238489 l 1,59,-1
 750.171892226 408.11166291 l 1,60,-1
 631.741778137 152.5 l 1,61,-1
 747.818883825 152.5 l 1,62,-1
 752.818883825 267.5 l 1,63,-1
 812.5 267.5 l 1,64,-1
 812.5 152.5 l 1,65,-1
 868.5 152.5 l 1,51,-1
637.638057291 756.900925223 m 1,66,-1
 691.183578814 731.4668025 l 1,67,-1
 277.337264949 -80.9735040792 l 1,68,-1
 222.842374556 -54.3906307164 l 1,69,-1
 637.638057291 756.900925223 l 1,66,-1
EndSplineSet
Validated: 1
EndChar

StartChar: asterisk
Encoding: 42 42 142
Width: 436
Flags: W
LayerCount: 2
Fore
SplineSet
181.06327748 743.5 m 1,0,-1
 253.88699896 743.5 l 1,1,-1
 246.073395346 588.204628176 l 1,2,-1
 388.537457278 643.824159205 l 1,3,-1
 411.736275246 576.805351742 l 1,4,-1
 263.144658265 537.702294641 l 1,5,-1
 359.766668586 418.632746568 l 1,6,-1
 301.024890697 375.214910737 l 1,7,-1
 218 504.147682173 l 1,8,-1
 135.036233434 375.309832917 l 1,9,-1
 76.1624374089 417.545382239 l 1,10,-1
 172.904446565 536.762807664 l 1,11,-1
 24.4131983281 576.816368044 l 1,12,-1
 46.3300851609 643.85625718 l 1,13,-1
 189.853601164 588.204281587 l 1,14,-1
 181.06327748 743.5 l 1,0,-1
EndSplineSet
Validated: 1
EndChar

StartChar: backslash
Encoding: 92 92 143
Width: 520
Flags: W
LayerCount: 2
Fore
SplineSet
174.40313074 812.011130503 m 1,0,-1
 410.161314329 -92.4060392989 l 1,1,-1
 344.613539781 -109.114295556 l 1,2,-1
 109.821647536 796.511574534 l 1,3,-1
 174.40313074 812.011130503 l 1,0,-1
EndSplineSet
Validated: 1
EndChar

StartChar: periodcentered
Encoding: 183 183 144
Width: 207
Flags: W
LayerCount: 2
Fore
SplineSet
142.802260937 357.802260938 m 0,0,1
 158.093605176 341.357199698 158.093605176 341.357199698 158.5 319 c 0,2,3
 157.720227261 294.733619868 157.720227261 294.733619868 142.802260937 279.197739062 c 0,4,5
 126.330248845 263.893114149 126.330248845 263.893114149 103 263.5 c 0,6,7
 79.6855065745 264.305074643 79.6855065745 264.305074643 63.6977390625 279.697739062 c 0,8,9
 47.9160262109 296.624272452 47.9160262109 296.624272452 47.5 319 c 0,10,11
 48.3196178483 342.369056887 48.3196178483 342.369056887 63.7957483872 357.898504486 c 0,12,13
 80.7022563761 373.100024346 80.7022563761 373.100024346 103 373.5 c 0,14,15
 127.266380132 372.720227261 127.266380132 372.720227261 142.802260937 357.802260938 c 0,0,1
EndSplineSet
Validated: 1
EndChar

StartChar: comma
Encoding: 44 44 146
Width: 207
Flags: W
LayerCount: 2
Fore
SplineSet
80 -158.5 m 1,0,-1
 28.1849809808 -158.5 l 1,1,-1
 69.3014787657 -7.39687064045 l 1,2,3
 47.9716500297 9.36540914619 47.9716500297 9.36540914619 47.5 37 c 0,4,5
 48.3196178483 60.3690568871 48.3196178483 60.3690568871 63.7957483872 75.8985044862 c 0,6,7
 80.7022563761 91.1000243457 80.7022563761 91.1000243457 103 91.5 c 0,8,9
 127.266380132 90.7202272606 127.266380132 90.7202272606 142.802260937 75.8022609375 c 0,10,11
 158.093605176 59.3571996982 158.093605176 59.3571996982 158.5 37 c 0,12,13
 157.975778289 12.6270789558 157.975778289 12.6270789558 142.875256738 -21.0012470043 c 2,14,-1
 84.9810449504 -158.5 l 1,15,-1
 80 -158.5 l 1,0,-1
EndSplineSet
Validated: 1
EndChar

StartChar: exclam
Encoding: 33 33 147
Width: 240
Flags: W
LayerCount: 2
Fore
SplineSet
153.436040529 210.5 m 1,0,-1
 85.5798617994 210.5 l 1,1,-1
 80.4192622277 692.5 l 1,2,-1
 157.564520186 692.5 l 1,3,-1
 153.436040529 210.5 l 1,0,-1
159.802260937 75.8022609375 m 0,4,5
 175.093605176 59.3571996982 175.093605176 59.3571996982 175.5 37 c 0,6,7
 174.720327004 13.7609474624 174.720327004 13.7609474624 159.898504486 -2.20425161279 c 0,8,9
 143.409304232 -18.0908322625 143.409304232 -18.0908322625 120 -18.5 c 0,10,11
 96.6855065745 -17.6949253573 96.6855065745 -17.6949253573 80.6977390625 -2.3022609375 c 0,12,13
 64.9160262109 14.6242724515 64.9160262109 14.6242724515 64.5 37 c 0,14,15
 65.3196178483 60.3690568871 65.3196178483 60.3690568871 80.7957483872 75.8985044862 c 0,16,17
 97.7022563761 91.1000243457 97.7022563761 91.1000243457 120 91.5 c 0,18,19
 144.266380132 90.7202272606 144.266380132 90.7202272606 159.802260937 75.8022609375 c 0,4,5
EndSplineSet
Validated: 1
EndChar

StartChar: exclamdown
Encoding: 161 161 148
Width: 240
Flags: W
LayerCount: 2
Fore
SplineSet
159.898504486 466.204251613 m 0,0,1
 175.100024346 449.297743624 175.100024346 449.297743624 175.5 427 c 0,2,3
 174.706000593 403.706709145 174.706000593 403.706709145 159.802260937 388.197739062 c 0,4,5
 143.330248845 372.893114149 143.330248845 372.893114149 120 372.5 c 0,6,7
 95.7336198677 373.279772739 95.7336198677 373.279772739 80.1977390625 388.197739062 c 0,8,9
 64.9063948235 404.642800302 64.9063948235 404.642800302 64.5 427 c 0,10,11
 65.2796729965 450.239052538 65.2796729965 450.239052538 80.1014955138 466.204251613 c 0,12,13
 96.5906957675 482.090832263 96.5906957675 482.090832263 120 482.5 c 0,14,15
 144.342008391 481.694993073 144.342008391 481.694993073 159.898504486 466.204251613 c 0,0,1
159.584560902 -204.5 m 1,16,-1
 82.4154390984 -204.5 l 1,17,-1
 87.5836005334 256.5 l 1,18,-1
 154.416399467 256.5 l 1,19,-1
 159.584560902 -204.5 l 1,16,-1
EndSplineSet
Validated: 1
EndChar

StartChar: numbersign
Encoding: 35 35 149
Width: 503
Flags: W
LayerCount: 2
Fore
SplineSet
495.5 506.5 m 1,0,-1
 495.5 444.5 l 1,1,-1
 416.570956664 444.5 l 1,2,-1
 388.562107106 233.5 l 1,3,-1
 458.5 233.5 l 1,4,-1
 458.5 172.5 l 1,5,-1
 380.56711996 172.5 l 1,6,-1
 356.56711996 -7.5 l 1,7,-1
 289.43288004 -7.5 l 1,8,-1
 313.43288004 172.5 l 1,9,-1
 145.56711996 172.5 l 1,10,-1
 121.56711996 -7.5 l 1,11,-1
 54.4328800401 -7.5 l 1,12,-1
 78.4328800401 172.5 l 1,13,-1
 7.5 172.5 l 1,14,-1
 7.5 233.5 l 1,15,-1
 86.429043336 233.5 l 1,16,-1
 114.437892894 444.5 l 1,17,-1
 44.5 444.5 l 1,18,-1
 44.5 506.5 l 1,19,-1
 122.427655951 506.5 l 1,20,-1
 144.427655951 672.5 l 1,21,-1
 211.560295857 672.5 l 1,22,-1
 189.560295857 506.5 l 1,23,-1
 357.427655951 506.5 l 1,24,-1
 379.427655951 672.5 l 1,25,-1
 446.560295857 672.5 l 1,26,-1
 424.560295857 506.5 l 1,27,-1
 495.5 506.5 l 1,0,-1
153.562107106 233.5 m 1,28,-1
 321.429043336 233.5 l 1,29,-1
 349.437892894 444.5 l 1,30,-1
 181.570956664 444.5 l 1,31,-1
 153.562107106 233.5 l 1,28,-1
EndSplineSet
Validated: 1
EndChar

StartChar: period
Encoding: 46 46 150
Width: 207
Flags: W
LayerCount: 2
Fore
SplineSet
142.802260937 75.8022609375 m 0,0,1
 158.093605176 59.3571996982 158.093605176 59.3571996982 158.5 37 c 0,2,3
 157.720227261 12.7336198677 157.720227261 12.7336198677 142.802260937 -2.8022609375 c 0,4,5
 126.330248845 -18.1068858511 126.330248845 -18.1068858511 103 -18.5 c 0,6,7
 79.6855065745 -17.6949253573 79.6855065745 -17.6949253573 63.6977390625 -2.3022609375 c 0,8,9
 47.9160262109 14.6242724515 47.9160262109 14.6242724515 47.5 37 c 0,10,11
 48.3196178483 60.3690568871 48.3196178483 60.3690568871 63.7957483872 75.8985044862 c 0,12,13
 80.7022563761 91.1000243457 80.7022563761 91.1000243457 103 91.5 c 0,14,15
 127.266380132 90.7202272606 127.266380132 90.7202272606 142.802260937 75.8022609375 c 0,0,1
EndSplineSet
Validated: 1
EndChar

StartChar: question
Encoding: 63 63 151
Width: 447
Flags: W
LayerCount: 2
Fore
SplineSet
231.5 210.5 m 1,0,-1
 159.5 210.5 l 1,1,-1
 159.5 277 l 2,2,3
 159.89584105 320.943641834 159.89584105 320.943641834 174.220189292 351.708823649 c 0,4,5
 189.390336821 382.68595988 189.390336821 382.68595988 209.909782678 402.006204263 c 0,6,7
 231.144286266 421.36066838 231.144286266 421.36066838 266.53058149 445.648169916 c 128,-1,8
 301.916876714 469.935671452 301.916876714 469.935671452 320.777369909 491.84585579 c 0,9,10
 338.182683082 513.632697959 338.182683082 513.632697959 338.5 547 c 0,11,12
 337.658519455 589.660591078 337.658519455 589.660591078 310.130771718 613.797267528 c 0,13,14
 280.313584779 638.188315916 280.313584779 638.188315916 231 638.5 c 0,15,16
 187.428361605 638.071115262 187.428361605 638.071115262 153.808994253 621.768645313 c 0,17,18
 119.183840251 604.056525972 119.183840251 604.056525972 86.6547968884 567.075244542 c 2,19,-1
 81.9285302916 561.65393874 l 1,20,-1
 30.205223456 603.032584209 l 1,21,-1
 35.3467411012 608.92651907 l 2,22,23
 77.9588139911 657.069486563 77.9588139911 657.069486563 125.240262428 680.255411969 c 0,24,25
 173.94889519 703.288642438 173.94889519 703.288642438 234 703.5 c 0,26,27
 290.078819476 703.067291273 290.078819476 703.067291273 330.414877526 682.6781112 c 0,28,29
 371.308990323 660.951512282 371.308990323 660.951512282 392.875531627 626.949664745 c 0,30,31
 414.220877886 591.504847644 414.220877886 591.504847644 414.5 550 c 0,32,33
 414.076848266 511.956861173 414.076848266 511.956861173 400.712577499 484.653184663 c 0,34,35
 386.531127817 457.220308057 386.531127817 457.220308057 367.571960825 439.47696407 c 0,36,37
 347.793734523 421.600188085 347.793734523 421.600188085 317.293827466 400.851584417 c 0,38,39
 287.598508691 379.911038654 287.598508691 379.911038654 270.557939768 364.464112374 c 0,40,41
 253.916896826 348.599502995 253.916896826 348.599502995 242.712577499 326.653184663 c 0,42,43
 231.707539665 303.475576095 231.707539665 303.475576095 231.5 273 c 2,44,-1
 231.5 210.5 l 1,0,-1
237.802260937 75.8022609375 m 0,45,46
 253.093605176 59.3571996982 253.093605176 59.3571996982 253.5 37 c 0,47,48
 252.720327004 13.7609474624 252.720327004 13.7609474624 237.898504486 -2.20425161279 c 0,49,50
 221.409304232 -18.0908322625 221.409304232 -18.0908322625 198 -18.5 c 0,51,52
 173.657991609 -17.6949930729 173.657991609 -17.6949930729 158.101495514 -2.20425161279 c 0,53,54
 142.899975654 14.7022563761 142.899975654 14.7022563761 142.5 37 c 0,55,56
 143.293999407 60.2932908554 143.293999407 60.2932908554 158.197739063 75.8022609375 c 0,57,58
 174.669751155 91.1068858511 174.669751155 91.1068858511 198 91.5 c 0,59,60
 222.266380132 90.7202272606 222.266380132 90.7202272606 237.802260937 75.8022609375 c 0,45,46
EndSplineSet
Validated: 1
EndChar

StartChar: questiondown
Encoding: 191 191 152
Width: 447
Flags: W
LayerCount: 2
Fore
SplineSet
210.197739063 388.197739062 m 0,0,1
 194.906394824 404.642800302 194.906394824 404.642800302 194.5 427 c 0,2,3
 195.279772739 451.266380132 195.279772739 451.266380132 210.197739063 466.802260938 c 0,4,5
 226.669751155 482.106885851 226.669751155 482.106885851 250 482.5 c 0,6,7
 273.369056887 481.680382152 273.369056887 481.680382152 288.898504486 466.204251613 c 0,8,9
 304.100024346 449.297743624 304.100024346 449.297743624 304.5 427 c 0,10,11
 303.706000593 403.706709145 303.706000593 403.706709145 288.802260938 388.197739062 c 0,12,13
 272.357199698 372.906394824 272.357199698 372.906394824 250 372.5 c 0,14,15
 225.733619868 373.279772739 225.733619868 373.279772739 210.197739063 388.197739062 c 0,0,1
215.5 204 m 2,16,-1
 215.5 256.5 l 1,17,-1
 287.5 256.5 l 1,18,-1
 287.5 200 l 2,19,20
 287.089527597 159.001380565 287.089527597 159.001380565 273.236795646 130.202066113 c 0,21,22
 258.52244657 101.217222167 258.52244657 101.217222167 238.506126728 82.9171787935 c 0,23,24
 217.796607814 64.5971505824 217.796607814 64.5971505824 187.117264082 43.7316850318 c 0,25,26
 147.048171516 17.0181963634 147.048171516 17.0181963634 127.713438226 -5.35667683173 c 0,27,28
 109.817797752 -27.6439571425 109.817797752 -27.6439571425 109.5 -62 c 0,29,30
 110.40259281 -100.733079282 110.40259281 -100.733079282 137.869228282 -124.797267528 c 0,31,32
 167.672390924 -149.185137954 167.672390924 -149.185137954 216 -149.5 c 0,33,34
 258.578674505 -149.054833551 258.578674505 -149.054833551 292.653184663 -132.287422501 c 0,35,36
 327.790805964 -114.087241392 327.790805964 -114.087241392 360.345203112 -77.0752445424 c 2,37,-1
 365.015054651 -71.7186501293 l 1,38,-1
 417.932255718 -113.01988023 l 1,39,-1
 412.593499654 -118.994202492 l 2,40,41
 369.016413751 -167.090445773 369.016413751 -167.090445773 321.759737572 -190.255411969 c 0,42,43
 273.05110481 -213.288642438 273.05110481 -213.288642438 213 -213.5 c 0,44,45
 157.908636289 -213.063138685 157.908636289 -213.063138685 117.585122474 -192.6781112 c 0,46,47
 76.7149480011 -170.979862981 76.7149480011 -170.979862981 55.15182867 -137.49337264 c 0,48,49
 33.7935724479 -102.57461094 33.7935724479 -102.57461094 33.5 -64 c 0,50,51
 33.9134875934 -24.9919216388 33.9134875934 -24.9919216388 47.2622942132 2.79607924914 c 0,52,53
 61.5306894433 30.8366056176 61.5306894433 30.8366056176 81.5752445424 48.6547968884 c 0,54,55
 102.252594779 66.4458694581 102.252594779 66.4458694581 132.715812279 87.15515219 c 0,56,57
 174.920487367 116.900839778 174.920487367 116.900839778 195.811885556 140.886277214 c 0,58,59
 215.188541667 164.710410143 215.188541667 164.710410143 215.5 204 c 2,16,-1
EndSplineSet
Validated: 1
EndChar

StartChar: quotesingle
Encoding: 39 39 154
Width: 204
Flags: W
LayerCount: 2
Fore
SplineSet
63.2261733747 692.5 m 1,0,-1
 140.773826625 692.5 l 1,1,-1
 131.23597802 426.5 l 1,2,-1
 72.7640219802 426.5 l 1,3,-1
 63.2261733747 692.5 l 1,0,-1
EndSplineSet
Validated: 1
EndChar

StartChar: slash
Encoding: 47 47 156
Width: 520
Flags: W
LayerCount: 2
Fore
SplineSet
345.6321476 812.146465516 m 1,0,-1
 410.152243222 795.371240655 l 1,1,-1
 174.3678524 -109.146465516 l 1,2,-1
 109.847756778 -92.3712406546 l 1,3,-1
 345.6321476 812.146465516 l 1,0,-1
EndSplineSet
Validated: 513
Substitution2: "'frac' Diagonal Fractions lookup 10 subtable" fraction
EndChar

StartChar: underscore
Encoding: 95 95 157
Width: 520
Flags: W
LayerCount: 2
Fore
SplineSet
21.5 -129.5 m 1,0,-1
 21.5 -63.5 l 1,1,-1
 499.5 -63.5 l 1,2,-1
 499.5 -129.5 l 1,3,-1
 21.5 -129.5 l 1,0,-1
EndSplineSet
Validated: 1
EndChar

StartChar: braceleft
Encoding: 123 123 158
Width: 326
Flags: W
LayerCount: 2
Fore
SplineSet
269.5 -76.5 m 1,0,-1
 269.5 -136.5 l 1,1,-1
 262 -136.5 l 2,2,3
 185.228483865 -135.932147368 185.228483865 -135.932147368 149.088699707 -105.166499098 c 0,4,5
 112.850676759 -72.3913020167 112.850676759 -72.3913020167 112.5 -4 c 2,6,-1
 112.5 251 l 2,7,8
 111.905258521 286.588562213 111.905258521 286.588562213 96.4280391753 301.47696407 c 0,9,10
 78.9875962542 316.201608492 78.9875962542 316.201608492 44 316.5 c 2,11,-1
 36.5 316.5 l 1,12,-1
 36.5 381.5 l 1,13,-1
 44 381.5 l 2,14,15
 80.0086666424 382.038219766 80.0086666424 382.038219766 96.4280391753 396.52303593 c 0,16,17
 112.172322043 412.470589368 112.172322043 412.470589368 112.5 448 c 2,18,-1
 112.5 703 l 2,19,20
 113.23557124 772.362521886 113.23557124 772.362521886 149.088699707 804.166499098 c 0,21,22
 186.224854883 835.235076539 186.224854883 835.235076539 262 835.5 c 2,23,-1
 269.5 835.5 l 1,24,-1
 269.5 775.5 l 1,25,-1
 262 775.5 l 2,26,27
 218.089140971 775.004090719 218.089140971 775.004090719 200.090217322 758.993795737 c 0,28,29
 182.835424575 741.590417339 182.835424575 741.590417339 182.5 705 c 2,30,-1
 182.5 451 l 2,31,32
 181.947779357 399.272284869 181.947779357 399.272284869 162.69620373 376.123144595 c 0,33,34
 147.677585014 359.553013834 147.677585014 359.553013834 122.80688325 349.111575372 c 1,35,36
 149.370450985 338.070505309 149.370450985 338.070505309 163.206078214 322.365311691 c 0,37,38
 182.268860191 298.688109399 182.268860191 298.688109399 182.5 247 c 2,39,-1
 182.5 -6 l 2,40,41
 183.11527943 -43.6329267559 183.11527943 -43.6329267559 200.090217322 -59.9937957367 c 0,42,43
 219.093162946 -76.2158274538 219.093162946 -76.2158274538 262 -76.5 c 2,44,-1
 269.5 -76.5 l 1,0,-1
EndSplineSet
Validated: 1
EndChar

StartChar: braceright
Encoding: 125 125 159
Width: 326
Flags: W
LayerCount: 2
Fore
SplineSet
289.5 381.5 m 1,0,-1
 289.5 316.5 l 1,1,-1
 282 316.5 l 2,2,3
 245.991333358 315.961780234 245.991333358 315.961780234 229.571960825 301.47696407 c 0,4,5
 213.831662363 285.546049951 213.831662363 285.546049951 213.5 251 c 2,6,-1
 213.5 -4 l 2,7,8
 212.754355252 -73.3941494606 212.754355252 -73.3941494606 176.370003226 -105.202069929 c 0,9,10
 138.761662179 -136.233226259 138.761662179 -136.233226259 64 -136.5 c 2,11,-1
 56.5 -136.5 l 1,12,-1
 56.5 -76.5 l 1,13,-1
 64 -76.5 l 2,14,15
 107.910859029 -76.004090719 107.910859029 -76.004090719 125.909782678 -59.9937957367 c 0,16,17
 143.164575425 -42.5904173385 143.164575425 -42.5904173385 143.5 -6 c 2,18,-1
 143.5 247 l 2,19,20
 144.037701451 299.698876157 144.037701451 299.698876157 162.793921786 322.365311691 c 0,21,22
 177.625111059 338.750011984 177.625111059 338.750011984 203.19311675 349.111575372 c 1,23,24
 177.328439349 360.243840613 177.328439349 360.243840613 163.30379627 376.123144595 c 0,25,26
 143.741871746 400.276562423 143.741871746 400.276562423 143.5 451 c 2,27,-1
 143.5 705 l 2,28,29
 142.88472057 742.632926756 142.88472057 742.632926756 125.909782678 758.993795737 c 0,30,31
 106.906837054 775.215827454 106.906837054 775.215827454 64 775.5 c 2,32,-1
 56.5 775.5 l 1,33,-1
 56.5 835.5 l 1,34,-1
 64 835.5 l 2,35,36
 139.757113267 834.931128194 139.757113267 834.931128194 176.370003226 804.202069929 c 0,37,38
 213.143715875 771.424279046 213.143715875 771.424279046 213.5 703 c 2,39,-1
 213.5 448 l 2,40,41
 214.080623706 411.432180229 214.080623706 411.432180229 229.571960825 396.52303593 c 0,42,43
 247.012403746 381.798391508 247.012403746 381.798391508 282 381.5 c 2,44,-1
 289.5 381.5 l 1,0,-1
EndSplineSet
Validated: 1
EndChar

StartChar: bracketleft
Encoding: 91 91 160
Width: 317
Flags: W
LayerCount: 2
Fore
SplineSet
258.5 814.5 m 1,0,-1
 258.5 750.5 l 1,1,-1
 146.5 750.5 l 1,2,-1
 146.5 -56.5 l 1,3,-1
 258.5 -56.5 l 1,4,-1
 258.5 -119.5 l 1,5,-1
 76.5 -119.5 l 1,6,-1
 76.5 814.5 l 1,7,-1
 258.5 814.5 l 1,0,-1
EndSplineSet
Validated: 1
EndChar

StartChar: bracketright
Encoding: 93 93 161
Width: 317
Flags: W
LayerCount: 2
Fore
SplineSet
240.5 814.5 m 1,0,-1
 240.5 -119.5 l 1,1,-1
 58.5 -119.5 l 1,2,-1
 58.5 -56.5 l 1,3,-1
 170.5 -56.5 l 1,4,-1
 170.5 750.5 l 1,5,-1
 58.5 750.5 l 1,6,-1
 58.5 814.5 l 1,7,-1
 240.5 814.5 l 1,0,-1
EndSplineSet
Validated: 1
EndChar

StartChar: parenleft
Encoding: 40 40 162
Width: 324
Flags: W
LayerCount: 2
Fore
SplineSet
280.4712652 815.147015771 m 1,0,1
 223.845471495 730.742530815 223.845471495 730.742530815 191.9317661 669.195103548 c 128,-1,2
 160.018060705 607.64767628 160.018060705 607.64767628 140.812419181 529.515260782 c 128,-1,3
 121.606777656 451.382845284 121.606777656 451.382845284 121.659809057 349.500509478 c 128,-1,4
 121.712840458 247.618173673 121.712840458 247.618173673 141.048262784 169.485271397 c 128,-1,5
 160.38368511 91.3523691209 160.38368511 91.3523691209 192.187786406 30.2446700218 c 0,6,7
 224.218772701 -31.2989609137 224.218772701 -31.2989609137 280.4712652 -115.147015771 c 1,8,-1
 231.058986233 -147.198223749 l 1,9,10
 165.090259378 -54.6292038088 165.090259378 -54.6292038088 129.019370947 8.58952033367 c 128,-1,11
 92.9484825159 71.8082444761 92.9484825159 71.8082444761 69.783386137 155.744714175 c 128,-1,12
 46.6182897581 239.681183874 46.6182897581 239.681183874 46.6785171925 350.500495128 c 128,-1,13
 46.7387446269 461.319806382 46.7387446269 461.319806382 70.0459452974 545.255892721 c 128,-1,14
 93.353145968 629.19197906 93.353145968 629.19197906 129.308390622 691.991728361 c 0,15,16
 165.499557456 755.203541434 165.499557456 755.203541434 231.058986233 847.198223749 c 1,17,-1
 280.4712652 815.147015771 l 1,0,1
EndSplineSet
Validated: 513
Substitution2: "'dnom' Denominators lookup 9 subtable" parenleft.dnom
Substitution2: "'numr' Numerators lookup 8 subtable" parenleft.numr
EndChar

StartChar: parenright
Encoding: 41 41 163
Width: 324
Flags: W
LayerCount: 2
Fore
SplineSet
92.9410137674 847.198223749 m 1,0,1
 158.923803219 754.60947081 158.923803219 754.60947081 194.987660351 691.400613167 c 128,-1,2
 231.051517484 628.191755524 231.051517484 628.191755524 254.216613863 544.255285825 c 128,-1,3
 277.381710242 460.318816126 277.381710242 460.318816126 277.321482807 349.499504872 c 128,-1,4
 277.261255373 238.680193618 277.261255373 238.680193618 253.954054703 154.744107279 c 128,-1,5
 230.646854032 70.8080209403 230.646854032 70.8080209403 194.691609378 8.00827163948 c 0,6,7
 158.500442544 -55.2035414337 158.500442544 -55.2035414337 92.9410137674 -147.198223749 c 1,8,-1
 43.5287348004 -115.147015771 l 1,9,10
 100.534657188 -30.1759239098 100.534657188 -30.1759239098 132.258298241 31.088199905 c 128,-1,11
 163.981939295 92.3523237198 163.981939295 92.3523237198 183.187580819 170.484739218 c 128,-1,12
 202.393222344 248.617154716 202.393222344 248.617154716 202.340190943 350.499490522 c 128,-1,13
 202.287159542 452.381826327 202.287159542 452.381826327 182.951737216 530.514728603 c 128,-1,14
 163.61631489 608.647630879 163.61631489 608.647630879 131.812213594 669.755329978 c 0,15,16
 99.7812272994 731.298960914 99.7812272994 731.298960914 43.5287348004 815.147015771 c 1,17,-1
 92.9410137674 847.198223749 l 1,0,1
EndSplineSet
Validated: 513
Substitution2: "'dnom' Denominators lookup 9 subtable" parenright.dnom
Substitution2: "'numr' Numerators lookup 8 subtable" parenright.numr
EndChar

StartChar: hyphen
Encoding: 45 45 164
Width: 401
Flags: W
LayerCount: 2
Fore
SplineSet
60.5 280.5 m 1,0,-1
 60.5 345.5 l 1,1,-1
 340.5 345.5 l 1,2,-1
 340.5 280.5 l 1,3,-1
 60.5 280.5 l 1,0,-1
EndSplineSet
Validated: 1
EndChar

StartChar: uni00AD
Encoding: 173 173 165
Width: 401
Flags: W
LayerCount: 2
Fore
SplineSet
60.5 280.5 m 1,0,-1
 60.5 345.5 l 1,1,-1
 340.5 345.5 l 1,2,-1
 340.5 280.5 l 1,3,-1
 60.5 280.5 l 1,0,-1
EndSplineSet
Validated: 1
EndChar

StartChar: guillemotleft
Encoding: 171 171 166
Width: 555
Flags: W
LayerCount: 2
Fore
SplineSet
276.5 268 m 1,0,-1
 276.5 307 l 1,1,-1
 276.5 309.551149388 l 1,2,-1
 446.413777214 530.231847842 l 1,3,-1
 494.301431227 496.976532555 l 1,4,-1
 355.98671326 287.990060882 l 1,5,-1
 494.365357657 77.8969365414 l 1,6,-1
 446.34512549 45.8834484297 l 1,7,-1
 276.5 265.439342355 l 1,8,-1
 276.5 268 l 1,0,-1
63.5 268 m 1,9,-1
 63.5 307 l 1,10,-1
 63.5 309.551149388 l 1,11,-1
 233.413777214 530.231847842 l 1,12,-1
 281.301431227 496.976532555 l 1,13,-1
 142.98671326 287.990060882 l 1,14,-1
 281.365357657 77.8969365414 l 1,15,-1
 233.34512549 45.8834484297 l 1,16,-1
 63.5 265.439342355 l 1,17,-1
 63.5 268 l 1,9,-1
EndSplineSet
Validated: 1
EndChar

StartChar: guillemotright
Encoding: 187 187 167
Width: 546
Flags: W
LayerCount: 2
Fore
SplineSet
482.5 307 m 1,0,-1
 482.5 268 l 1,1,-1
 482.5 265.439342355 l 1,2,-1
 312.65487451 45.8834484297 l 1,3,-1
 264.613871196 77.9107839726 l 1,4,-1
 403.993357899 287.990010307 l 1,5,-1
 264.67836386 496.962501366 l 1,6,-1
 312.586222786 530.231847842 l 1,7,-1
 482.5 309.551149388 l 1,8,-1
 482.5 307 l 1,0,-1
278.5 307 m 1,9,-1
 278.5 268 l 1,10,-1
 278.5 265.439342355 l 1,11,-1
 108.65487451 45.8834484297 l 1,12,-1
 60.613871196 77.9107839726 l 1,13,-1
 199.993357899 287.990010307 l 1,14,-1
 60.6783638596 496.962501366 l 1,15,-1
 108.586222786 530.231847842 l 1,16,-1
 278.5 309.551149388 l 1,17,-1
 278.5 307 l 1,9,-1
EndSplineSet
Validated: 1
EndChar

StartChar: cent
Encoding: 162 162 169
Width: 469
GlyphClass: 2
Flags: W
LayerCount: 2
Fore
SplineSet
318.5 -157.5 m 1,0,-1
 252.5 -157.5 l 1,1,-1
 252.5 -16.6967698976 l 1,2,3
 163.835117461 -4.52278331804 163.835117461 -4.52278331804 111.001564912 64.999466425 c 0,4,5
 56.7790464908 138.362388402 56.7790464908 138.362388402 56.5 258 c 0,6,7
 57.0609157219 378.587519705 57.0609157219 378.587519705 111.418154292 454.387400007 c 0,8,9
 165.710131658 527.928620513 165.710131658 527.928620513 253.5 539.692100173 c 1,10,-1
 253.5 687.5 l 1,11,-1
 318.5 687.5 l 1,12,-1
 318.5 539.776283423 l 1,13,14
 386.044205843 531.261125459 386.044205843 531.261125459 437.912202953 486.665715784 c 2,15,-1
 443.232900817 482.047751599 l 1,16,-1
 405.284932565 432.322827681 l 1,17,-1
 399.292618479 437.162773673 l 2,18,19
 373.731880644 457.35925914 373.731880644 457.35925914 347.939688027 466.949083315 c 0,20,21
 320.986950948 476.342088803 320.986950948 476.342088803 288 476.5 c 0,22,23
 217.566852409 475.525541813 217.566852409 475.525541813 175.959559969 421.948212025 c 0,24,25
 133.763602491 365.476998932 133.763602491 365.476998932 133.5 259 c 0,26,27
 134.015591226 152.612651722 134.015591226 152.612651722 175.385458525 99.6470359636 c 0,28,29
 217.535208203 47.9558858436 217.535208203 47.9558858436 287 47.5 c 0,30,31
 320.942195177 47.8407467376 320.942195177 47.8407467376 347.803208561 57.9997695519 c 0,32,33
 375.837259755 69.1954205668 375.837259755 69.1954205668 403.473238381 89.978627897 c 2,34,-1
 409.601638606 94.627759102 l 1,35,-1
 446.104434836 43.7845786392 l 1,36,-1
 440.876855405 39.3037962701 l 2,37,38
 385.2060617 -7.61804705008 385.2060617 -7.61804705008 318.5 -16.6791989815 c 1,39,-1
 318.5 -157.5 l 1,0,-1
EndSplineSet
Validated: 1
EndChar

StartChar: currency
Encoding: 164 164 170
Width: 560
GlyphClass: 2
Flags: W
LayerCount: 2
Fore
SplineSet
442.881260554 464.276738679 m 1,0,1
 480.196408491 411.186176531 480.196408491 411.186176531 480.5 341 c 0,2,3
 479.886498663 267.948973609 479.886498663 267.948973609 441.984707797 215.739224073 c 1,4,-1
 521.672938655 138.06841678 l 1,5,-1
 475 91.395478125 l 1,6,-1
 395.114413705 171.28106442 l 1,7,8
 345.134887384 138.782791093 345.134887384 138.782791093 280 138.5 c 0,9,10
 213.855937221 139.104094269 213.855937221 139.104094269 165.725541601 173.121019726 c 1,11,-1
 83.924790351 91.320268476 l 1,12,-1
 38.4047968872 138.140833182 l 1,13,-1
 120.070648208 217.790243729 l 1,14,15
 82.8033655373 270.859356041 82.8033655373 270.859356041 82.5 341 c 0,16,17
 83.1025044712 411.14459625 83.1025044712 411.14459625 119.133552904 462.261925221 c 1,18,-1
 38.395478125 543 l 1,19,-1
 85 589.604521875 l 1,20,-1
 165.825248446 508.779273429 l 1,21,22
 215.768953534 542.206293562 215.768953534 542.206293562 280 542.5 c 0,23,24
 346.147110918 541.931730608 346.147110918 541.931730608 395.147686266 509.69679382 c 1,25,-1
 476.108446747 589.645544794 l 1,26,-1
 521.530372061 542.925850186 l 1,27,-1
 442.881260554 464.276738679 l 1,0,1
376.354234829 237.935096375 m 0,28,29
 409.179365753 276.725521975 409.179365753 276.725521975 409.5 341 c 0,30,31
 408.86651214 406.292455072 408.86651214 406.292455072 376.354234829 444.064903625 c 0,32,33
 342.609215303 481.111669743 342.609215303 481.111669743 281 481.5 c 0,34,35
 219.34463559 480.716648254 219.34463559 480.716648254 186.645765171 444.064903625 c 0,36,37
 153.820634247 405.274478025 153.820634247 405.274478025 153.5 341 c 0,38,39
 154.13348786 275.707544928 154.13348786 275.707544928 186.645765171 237.935096375 c 0,40,41
 220.379693396 200.891721787 220.379693396 200.891721787 281 200.5 c 0,42,43
 343.643808645 201.274286734 343.643808645 201.274286734 376.354234829 237.935096375 c 0,28,29
EndSplineSet
Validated: 1
EndChar

StartChar: dollar
Encoding: 36 36 171
Width: 556
GlyphClass: 2
Flags: W
LayerCount: 2
Fore
SplineSet
317.576177727 -10.1923828125 m 1,0,-1
 317.576177727 -151 l 1,1,-1
 246.885428649 -151 l 1,2,-1
 246.885428649 -12.8125 l 1,3,4
 125.615234375 -5.9013671875 125.615234375 -5.9013671875 44.3515625 70.6708984375 c 2,5,-1
 39 75.7490234375 l 1,6,-1
 84.2548828125 122.861328125 l 1,7,-1
 89.701171875 117.795898438 l 2,8,9
 125.337890625 85.2021484375 125.337890625 85.2021484375 166.469262535 68.0224609375 c 0,10,11
 211.244044966 51.05859375 211.244044966 51.05859375 267.771331785 50.8779296875 c 0,12,13
 342.145982649 51.4990234375 342.145982649 51.4990234375 387.756835938 86.09765625 c 0,14,15
 429.629882812 121.729492188 429.629882812 121.729492188 430.053710938 182.344726562 c 0,16,17
 429.630859375 219.978515625 429.630859375 219.978515625 416.499023438 243.750976562 c 0,18,19
 401.911132812 267.805664062 401.911132812 267.805664062 370.3881837 285.225585938 c 0,20,21
 334.254148756 303.734375 334.254148756 303.734375 269.650937551 322.02734375 c 0,22,23
 158.772460938 354.38671875 158.772460938 354.38671875 113.9453125 395.06640625 c 0,24,25
 68.451171875 437.99609375 68.451171875 437.99609375 68.0537109375 508.3046875 c 0,26,27
 68.8955078125 577.65234375 68.8955078125 577.65234375 117.897460938 623.9609375 c 0,28,29
 166.511101283 667.833984375 166.511101283 667.833984375 246.885428649 675.58203125 c 1,30,-1
 246.885428649 819 l 1,31,-1
 317.576177727 819 l 1,32,-1
 317.576177727 675.583984375 l 1,33,34
 369.363134367 670.571289062 369.363134367 670.571289062 406.291992188 653.8203125 c 0,35,36
 445.260742188 634.983398438 445.260742188 634.983398438 481.619140625 602.37890625 c 2,37,-1
 487.235351562 597.30859375 l 1,38,-1
 441.856445312 550.067382812 l 1,39,-1
 436.411132812 555.124023438 l 2,40,41
 401.969726562 586.549804688 401.969726562 586.549804688 366.114355564 599.8828125 c 0,42,43
 327.657224122 613.01953125 327.657224122 613.01953125 279.553123298 613.182617188 c 0,44,45
 216.884954201 612.596679688 216.884954201 612.596679688 179.064817702 585.254882812 c 0,46,47
 143.494140625 557.018554688 143.494140625 557.018554688 143.053710938 510.274414062 c 0,48,49
 143.51953125 477.76171875 143.51953125 477.76171875 155.92578125 457.543945312 c 0,50,51
 170.794343137 436.72265625 170.794343137 436.72265625 202.570872449 420.232421875 c 0,52,53
 234.964523298 404.044921875 234.964523298 404.044921875 301.267433651 385.354492188 c 0,54,55
 372.905830377 364.212890625 372.905830377 364.212890625 415.21484375 341.430664062 c 0,56,57
 458.002929688 317.040039062 458.002929688 317.040039062 481.466796875 279.728515625 c 0,58,59
 504.815429688 240.75390625 504.815429688 240.75390625 505.053710938 184.314453125 c 0,60,61
 504.28515625 105.3203125 504.28515625 105.3203125 453.4609375 52.6552734375 c 0,62,63
 403.231445312 2.2734375 403.231445312 2.2734375 317.576177727 -10.1923828125 c 1,0,-1
EndSplineSet
Validated: 524289
EndChar

StartChar: sterling
Encoding: 163 163 172
Width: 509
GlyphClass: 2
Flags: W
LayerCount: 2
Fore
SplineSet
199.5 323.5 m 1,0,-1
 199.5 171 l 2,1,2
 199.083515282 119.91160602 199.083515282 119.91160602 183.501160096 92.2601155683 c 0,3,4
 171.835409688 73.261166151 171.835409688 73.261166151 151.804263911 58.5 c 1,5,-1
 461.600505184 58.5 l 1,6,-1
 452.541681655 -7.5 l 1,7,-1
 43.5 -7.5 l 1,8,-1
 43.5 52.9062583665 l 1,9,-1
 47.9995846338 54.8748266437 l 2,10,11
 93.8366357102 75.4207194504 93.8366357102 75.4207194504 110.351584417 98.2938274658 c 0,12,13
 126.264631702 122.406452413 126.264631702 122.406452413 126.5 170 c 2,14,-1
 126.5 323.5 l 1,15,-1
 61.5 323.5 l 1,16,-1
 61.5 381.5 l 1,17,-1
 126.5 381.5 l 1,18,-1
 126.5 500 l 2,19,20
 127.213055542 580.070942615 127.213055542 580.070942615 173.449675015 631.54210386 c 0,21,22
 221.59718947 683.110582467 221.59718947 683.110582467 306 683.5 c 0,23,24
 358.955943544 683.098802214 358.955943544 683.098802214 399.136504067 664.813659279 c 0,25,26
 440.015894117 645.296622685 440.015894117 645.296622685 473.727380903 605.840246734 c 2,27,-1
 478.719057987 599.940991999 l 1,28,-1
 428.040248268 559.657835556 l 1,29,-1
 423.33073263 565.091892061 l 2,30,31
 397.812332229 593.858017301 397.812332229 593.858017301 371.749688012 606.740035412 c 0,32,33
 344.525196717 619.300564627 344.525196717 619.300564627 308 619.5 c 0,34,35
 255.360886184 618.717447113 255.360886184 618.717447113 227.661085443 587.582467126 c 0,36,37
 199.817139469 554.279970879 199.817139469 554.279970879 199.5 499 c 2,38,-1
 199.5 381.5 l 1,39,-1
 413.5 381.5 l 1,40,-1
 413.5 323.5 l 1,41,-1
 199.5 323.5 l 1,0,-1
EndSplineSet
Validated: 1
EndChar

StartChar: yen
Encoding: 165 165 173
Width: 512
GlyphClass: 2
Flags: W
LayerCount: 2
Fore
SplineSet
431.643933674 672.5 m 1,0,-1
 512.204753487 672.5 l 1,1,-1
 317.204753487 345.5 l 1,2,-1
 429.5 345.5 l 1,3,-1
 429.5 287.5 l 1,4,-1
 293.5 287.5 l 1,5,-1
 293.5 199.5 l 1,6,-1
 429.5 199.5 l 1,7,-1
 429.5 141.5 l 1,8,-1
 293.5 141.5 l 1,9,-1
 293.5 -7.5 l 1,10,-1
 219.5 -7.5 l 1,11,-1
 219.5 141.5 l 1,12,-1
 83.5 141.5 l 1,13,-1
 83.5 199.5 l 1,14,-1
 219.5 199.5 l 1,15,-1
 219.5 287.5 l 1,16,-1
 83.5 287.5 l 1,17,-1
 83.5 345.5 l 1,18,-1
 194.795246513 345.5 l 1,19,-1
 -0.204753486701 672.5 l 1,20,-1
 83.3439393632 672.5 l 1,21,-1
 257.981751637 368.103366316 l 1,22,-1
 431.643933674 672.5 l 1,0,-1
EndSplineSet
Validated: 1
EndChar

StartChar: plus
Encoding: 43 43 174
Width: 493
GlyphClass: 2
Flags: W
LayerCount: 2
Fore
SplineSet
211.5 363.5 m 1,0,-1
 211.5 515.5 l 1,1,-1
 281.5 515.5 l 1,2,-1
 281.5 363.5 l 1,3,-1
 431.5 363.5 l 1,4,-1
 431.5 298.5 l 1,5,-1
 281.5 298.5 l 1,6,-1
 281.5 146.5 l 1,7,-1
 211.5 146.5 l 1,8,-1
 211.5 298.5 l 1,9,-1
 61.5 298.5 l 1,10,-1
 61.5 363.5 l 1,11,-1
 211.5 363.5 l 1,0,-1
EndSplineSet
Validated: 513
Substitution2: "'dnom' Denominators lookup 9 subtable" plus.dnom
Substitution2: "'numr' Numerators lookup 8 subtable" plus.numr
EndChar

StartChar: multiply
Encoding: 215 215 175
Width: 493
GlyphClass: 2
Flags: W
LayerCount: 2
Fore
SplineSet
370.867039152 481.59538788 m 1,0,-1
 419.65404417 434.092251415 l 1,1,-1
 294.521437733 307.958584127 l 1,2,-1
 419.683843252 179.792280876 l 1,3,-1
 370.752029948 133.435826167 l 1,4,-1
 247.935227902 261.245181142 l 1,5,-1
 122.11404206 133.42683362 l 1,6,-1
 74.3875902639 179.863381314 l 1,7,-1
 197.56105088 306.041072677 l 1,8,-1
 74.5000408817 434.104562757 l 1,9,-1
 122.127758506 481.732280381 l 1,10,-1
 245.065018429 352.79808095 l 1,11,-1
 370.867039152 481.59538788 l 1,0,-1
EndSplineSet
Validated: 1
EndChar

StartChar: divide
Encoding: 247 247 176
Width: 493
GlyphClass: 2
Flags: W
LayerCount: 2
Fore
SplineSet
61.5 298.5 m 1
 61.5 364.5 l 1
 431.5 364.5 l 1
 431.5 298.5 l 1
 61.5 298.5 l 1
EndSplineSet
Refer: 150 46 N 1 0 0 1 144 76 2
Refer: 150 46 N 1 0 0 1 144 514 2
Validated: 1
EndChar

StartChar: equal
Encoding: 61 61 177
Width: 493
GlyphClass: 2
Flags: W
LayerCount: 2
Fore
SplineSet
61.5 210.5 m 1,0,-1
 61.5 276.5 l 1,1,-1
 431.5 276.5 l 1,2,-1
 431.5 210.5 l 1,3,-1
 61.5 210.5 l 1,0,-1
61.5 385.5 m 1,4,-1
 61.5 451.5 l 1,5,-1
 431.5 451.5 l 1,6,-1
 431.5 385.5 l 1,7,-1
 61.5 385.5 l 1,4,-1
EndSplineSet
Validated: 513
Substitution2: "'dnom' Denominators lookup 9 subtable" equal.dnom
Substitution2: "'numr' Numerators lookup 8 subtable" equal.numr
EndChar

StartChar: greater
Encoding: 62 62 178
Width: 497
GlyphClass: 2
Flags: W
LayerCount: 2
Fore
SplineSet
440.5 364.696212511 m 1,0,-1
 440.5 301.328012105 l 1,1,-1
 81.2705714602 124.810103253 l 1,2,-1
 54.2089645473 186.665204768 l 1,3,-1
 363.318095828 332.931355217 l 1,4,-1
 54.2360356612 476.259629174 l 1,5,-1
 81.2029479696 539.18242456 l 1,6,-1
 440.5 364.696212511 l 1,0,-1
EndSplineSet
Validated: 1
EndChar

StartChar: less
Encoding: 60 60 179
Width: 497
GlyphClass: 2
Flags: W
LayerCount: 2
Fore
SplineSet
56.5 301.328012105 m 1,0,-1
 56.5 364.696212511 l 1,1,-1
 415.79705203 539.18242456 l 1,2,-1
 442.767417135 476.25157265 l 1,3,-1
 132.727679561 332.931316601 l 1,4,-1
 442.794593819 186.673338177 l 1,5,-1
 415.72942854 124.810103253 l 1,6,-1
 56.5 301.328012105 l 1,0,-1
EndSplineSet
Validated: 1
EndChar

StartChar: plusminus
Encoding: 177 177 180
Width: 493
GlyphClass: 2
Flags: W
LayerCount: 2
Fore
SplineSet
61.5 -7.5 m 1
 61.5 58.5 l 1
 431.5 58.5 l 1
 431.5 -7.5 l 1
 61.5 -7.5 l 1
EndSplineSet
Refer: 174 43 N 1 0 0 1 0 10 2
Validated: 1
EndChar

StartChar: asciitilde
Encoding: 126 126 181
Width: 472
GlyphClass: 2
Flags: W
LayerCount: 2
Fore
SplineSet
312 256.5 m 0,0,1
 287.090498569 256.886998256 287.090498569 256.886998256 265.517302331 265.823510744 c 128,-1,2
 243.944106093 274.760023232 243.944106093 274.760023232 219.694418683 289.021244853 c 128,-1,3
 195.444731273 303.282466474 195.444731273 303.282466474 182.459905092 309.142670761 c 0,4,5
 169.881293811 314.293327179 169.881293811 314.293327179 158 314.5 c 0,6,7
 138.223653063 313.885133923 138.223653063 313.885133923 124.493700723 303.996434218 c 0,8,9
 108.519662815 291.364784089 108.519662815 291.364784089 90.3286873509 265.215256859 c 1,10,-1
 40.4764628569 292.162405234 l 1,11,-1
 44.5956361129 298.902870562 l 2,12,13
 67.835702074 336.150062708 67.835702074 336.150062708 93.8770811954 356.904453348 c 0,14,15
 122.179351063 378.187656566 122.179351063 378.187656566 162 378.5 c 0,16,17
 186.909501431 378.113001744 186.909501431 378.113001744 208.462426066 369.174427663 c 128,-1,18
 230.015350701 360.235853582 230.015350701 360.235853582 255.745462107 344.501226637 c 0,19,20
 279.448068568 331.720735378 279.448068568 331.720735378 292.136504067 325.813659279 c 0,21,22
 304.207678847 320.710155821 304.207678847 320.710155821 316 320.5 c 0,23,24
 335.761401173 321.068059649 335.761401173 321.068059649 348.571372606 330.051826373 c 0,25,26
 363.630054314 341.741313382 363.630054314 341.741313382 381.840003721 366.779993817 c 1,27,-1
 430.508582725 339.741894371 l 1,28,-1
 426.385718224 333.066780416 l 2,29,30
 404.160212433 297.841066679 404.160212433 297.841066679 379.165200743 277.628953606 c 0,31,32
 351.825571925 256.808669125 351.825571925 256.808669125 312 256.5 c 0,0,1
EndSplineSet
Validated: 1
EndChar

StartChar: logicalnot
Encoding: 172 172 182
Width: 499
GlyphClass: 2
Flags: W
LayerCount: 2
Fore
SplineSet
437.5 354.5 m 1,0,-1
 437.5 160.5 l 1,1,-1
 367.5 160.5 l 1,2,-1
 367.5 288.5 l 1,3,-1
 61.5 288.5 l 1,4,-1
 61.5 354.5 l 1,5,-1
 437.5 354.5 l 1,0,-1
EndSplineSet
Validated: 1
EndChar

StartChar: mu
Encoding: 181 181 183
Width: 585
GlyphClass: 2
Flags: W
LayerCount: 2
Fore
SplineSet
171.5 -80 m 2,0,-1
 171.5 -203.764677405 l 1,1,-1
 98.5 -211.316401543 l 1,2,-1
 98.5 530.5 l 1,3,-1
 171.5 530.5 l 1,4,-1
 171.5 150 l 2,5,6
 172.109258176 96.2112017259 172.109258176 96.2112017259 196.252096192 71.8519590456 c 0,7,8
 221.952055248 47.8626298762 221.952055248 47.8626298762 262 47.5 c 0,9,10
 351.849507781 49.077005756 351.849507781 49.077005756 406.5 159.72664779 c 1,11,-1
 406.5 530.5 l 1,12,-1
 479.5 530.5 l 1,13,-1
 479.5 177 l 2,14,15
 479.799676915 77.9288022129 479.799676915 77.9288022129 506.099039809 0.423857307044 c 2,16,-1
 509.059181518 -8.23729806145 l 1,17,-1
 441.200810842 -17.1997243772 l 1,18,19
 427.053076068 18.1696125563 427.053076068 18.1696125563 422.264521227 38.6790268839 c 128,-1,20
 417.475966385 59.1884412114 417.475966385 59.1884412114 414.949622054 78.6545054631 c 1,21,22
 352.640464294 -17.8558505961 352.640464294 -17.8558505961 262 -18.5 c 0,23,24
 218.693167635 -18.0127656278 218.693167635 -18.0127656278 191.077256593 -1.39217694659 c 0,25,26
 176.649543215 7.9319554352 176.649543215 7.9319554352 165.628096937 20.0819337716 c 1,27,28
 171.5 -25.7160292107 171.5 -25.7160292107 171.5 -80 c 2,0,-1
EndSplineSet
Validated: 1
EndChar

StartChar: percent
Encoding: 37 37 184
Width: 823
GlyphClass: 2
Flags: W
LayerCount: 2
Fore
SplineSet
144.118164062 8.6787109375 m 1,0,-1
 629.650105266 705.743164062 l 1,1,-1
 685.998046875 671.465820312 l 1,2,-1
 199.427740716 -26.9111328125 l 1,3,-1
 144.118164062 8.6787109375 l 1,0,-1
211.717532468 683.5 m 0,4,5
 284.397600446 682.685546875 284.397600446 682.685546875 328.889489905 637.110351562 c 0,6,7
 372.941774046 590.090820312 372.941774046 590.090820312 373.298701299 514 c 0,8,9
 372.587871601 436.969726562 372.587871601 436.969726562 329.468236353 390.455078125 c 0,10,11
 284.461121398 343.911132812 284.461121398 343.911132812 211.717532468 343.5 c 0,12,13
 140.124023438 344.310546875 140.124023438 344.310546875 96.5439453125 389.856445312 c 0,14,15
 53.3505859375 436.8828125 53.3505859375 436.8828125 53 513 c 0,16,17
 53.697265625 590.055664062 53.697265625 590.055664062 95.9833984375 636.579101562 c 0,18,19
 140.063476562 683.090820312 140.063476562 683.090820312 211.717532468 683.5 c 0,4,5
211.717532468 626.5 m 0,20,21
 164.513671875 625.595703125 164.513671875 625.595703125 143.716796875 595.8046875 c 0,22,23
 122.26171875 562.856445312 122.26171875 562.856445312 122 513 c 0,24,25
 122.521484375 463.118164062 122.521484375 463.118164062 143.716796875 431.1953125 c 0,26,27
 165.5859375 400.947265625 165.5859375 400.947265625 211.717532468 400.5 c 0,28,29
 259.132393973 401.409179688 259.132393973 401.409179688 280.109432072 431.131835938 c 0,30,31
 301.793266792 464.1015625 301.793266792 464.1015625 302.058441558 514 c 0,32,33
 301.532125101 563.922851562 301.532125101 563.922851562 280.109432072 595.868164062 c 0,34,35
 258.022289722 626.049804688 258.022289722 626.049804688 211.717532468 626.5 c 0,20,21
611.282467532 321.5 m 0,36,37
 682.875976562 320.689453125 682.875976562 320.689453125 726.456054688 275.143554688 c 0,38,39
 769.646484375 228.125976562 769.646484375 228.125976562 770 153 c 0,40,41
 769.30859375 74.953125 769.30859375 74.953125 727.016601562 28.4208984375 c 0,42,43
 682.936523438 -18.0908203125 682.936523438 -18.0908203125 611.282467532 -18.5 c 0,44,45
 539.618734781 -17.673828125 539.618734781 -17.673828125 494.6287604 28.3876953125 c 0,46,47
 450.065283837 75.8916015625 450.065283837 75.8916015625 449.701298701 151 c 0,48,49
 450.41112013 229.038085938 450.41112013 229.038085938 493.562011719 275.076171875 c 0,50,51
 538.565093598 321.09375 538.565093598 321.09375 611.282467532 321.5 c 0,36,37
611.282467532 264.5 m 0,52,53
 564.819412033 263.580078125 564.819412033 263.580078125 543.363446124 233.8046875 c 0,54,55
 521.211774554 200.856445312 521.211774554 200.856445312 520.941558442 151 c 0,56,57
 521.479974127 101.118164062 521.479974127 101.118164062 543.363446124 69.1953125 c 0,58,59
 565.927499746 38.9521484375 565.927499746 38.9521484375 611.282467532 38.5 c 0,60,61
 658.486328125 39.404296875 658.486328125 39.404296875 679.283203125 69.1953125 c 0,62,63
 700.740234375 102.157226562 700.740234375 102.157226562 701 153 c 0,64,65
 700.471679688 201.897460938 700.471679688 201.897460938 679.283203125 233.8046875 c 0,66,67
 657.4140625 264.052734375 657.4140625 264.052734375 611.282467532 264.5 c 0,52,53
EndSplineSet
Validated: 524289
EndChar

